<svg xmlns="http://www.w3.org/2000/svg" xmlns:xlink="http://www.w3.org/1999/xlink" version="1.1" x="0px" y="0px" viewBox="0 0 100 100" enable-background="new 0 0 100 100" xml:space="preserve"><path d="M57.383,15.887c-4.928-1.204-10.017-1.152-14.763-0.028c-0.15,0.036-0.308,0.001-0.429-0.095  C42.07,15.669,42,15.523,42,15.369V15c0-4.595,3.873-8.284,8.533-7.983C54.785,7.293,58,11.013,58,15.274v0.134  C58,15.732,57.697,15.964,57.383,15.887z"></path><path d="M82.295,64.006c3.8,0.158,6.818,3.344,6.702,7.209C88.882,75.046,85.539,78,81.706,78H18.294  c-3.833,0-7.175-2.954-7.29-6.785c-0.116-3.865,2.902-7.052,6.702-7.209c0.181-0.008,0.345-0.107,0.426-0.269l3.446-6.893  C21.855,56.289,22,55.677,22,55.056V47c0-15.725,12.964-28.423,28.787-27.989C66.038,19.429,78,32.326,78,47.582v7.473  c0,0.621,0.145,1.233,0.422,1.789l3.446,6.893C81.95,63.9,82.114,63.999,82.295,64.006z"></path><path d="M39.012,82.518C38.999,82.236,39.234,82,39.517,82h20.966c0.283,0,0.518,0.236,0.505,0.518C60.717,88.353,55.901,93,50,93  S39.283,88.353,39.012,82.518z"></path></svg>