<svg height='100px' width='100px'  fill="#4a90e2" xmlns:x="http://ns.adobe.com/Extensibility/1.0/" xmlns:i="http://ns.adobe.com/AdobeIllustrator/10.0/" xmlns:graph="http://ns.adobe.com/Graphs/1.0/" xmlns="http://www.w3.org/2000/svg" xmlns:xlink="http://www.w3.org/1999/xlink" version="1.1" x="0px" y="0px" viewBox="-949 951 100 100" style="enable-background:new -949 951 100 100;" xml:space="preserve"><g><g i:extraneous="self"><g><path d="M-912,984.1c0.3,1.3,1.3,2.3,2.6,2.6c2.6,0.7,7.3,1.8,10.4,1.8c3.1,0,7.8-1.1,10.5-1.8c1.3-0.3,2.3-1.4,2.6-2.7     c0.4-1.5,0.8-3.6,0.9-5.2c0.1-1.8,0-3.6-0.2-5.3c0,0,0,0,0,0c-0.2-1.1-0.9-2.1-2-2.5c-1.2-0.4-2.3-0.9-3.4-1.5l-2.6-1.4     c-0.6,0-1.1,0.4-1.2,0.9l-3.2,7l-0.4-4.4c0.5-0.2,0.8-0.6,0.8-1.1v-0.6c0-0.3-0.1-0.5-0.3-0.7c-0.5,0.2-1,0.2-1.5,0.2     c-0.5,0-1-0.1-1.5-0.2c-0.2,0.2-0.3,0.5-0.3,0.7v0.6c0,0.5,0.4,1,0.8,1.1l-0.4,4.4l-3.2-7c-0.1-0.6-0.6-0.9-1.2-0.9l-2.6,1.4     c-1.1,0.6-2.3,1-3.5,1.5c-1,0.4-1.8,1.4-1.9,2.5l0,0c-0.3,1.7-0.3,3.5-0.2,5.3C-912.8,980.4-912.4,982.5-912,984.1z"></path><path d="M-905.2,961.7c0.5,4.3,3.6,6.7,6.2,6.7s5.7-2.4,6.2-6.7c0.4,0,0.6-0.7,0.6-1.6c0-0.8,0.2-1.8-0.2-2.1     c-0.1-0.1-0.3-0.1-0.5,0c-0.6-3.6-2.4-5.9-6.1-5.9s-5.6,2.3-6.1,5.9c-0.2-0.1-0.4-0.1-0.5,0c-0.4,0.3-0.2,1.3-0.2,2.1     C-905.8,960.9-905.7,961.6-905.2,961.7z"></path><path d="M-917.9,1034.9c-0.2-1.1-0.9-2.1-2-2.5c-1.2-0.4-2.3-0.9-3.4-1.5l-2.6-1.4c-0.6,0-1.1,0.4-1.2,0.9l-3.2,7l-0.4-4.4     c0.5-0.2,0.8-0.6,0.8-1.1v-0.6c0-0.3-0.1-0.5-0.3-0.7c-0.5,0.2-1,0.2-1.5,0.2c-0.5,0-1-0.1-1.5-0.2c-0.2,0.2-0.3,0.5-0.3,0.7v0.6     c0,0.5,0.4,1,0.8,1.1l-0.4,4.4l-3.2-7c-0.1-0.6-0.6-0.9-1.2-0.9l-2.6,1.4c-1.1,0.6-2.3,1-3.5,1.5c-1,0.4-1.8,1.4-1.9,2.5l0,0     c-0.3,1.7-0.3,3.5-0.2,5.3c0.1,1.7,0.6,3.8,0.9,5.4c0.3,1.3,1.3,2.3,2.6,2.6c2.6,0.7,7.3,1.8,10.4,1.8c3.1,0,7.8-1.1,10.5-1.8     c1.3-0.3,2.3-1.4,2.6-2.7c0.4-1.5,0.8-3.6,0.9-5.2C-917.6,1038.5-917.7,1036.7-917.9,1034.9     C-917.9,1034.9-917.9,1034.9-917.9,1034.9z"></path><path d="M-937.9,1023.1c0.5,4.3,3.6,6.7,6.2,6.7c2.6,0,5.7-2.4,6.2-6.7c0.4,0,0.6-0.7,0.6-1.6c0-0.8,0.2-1.8-0.2-2.1     c-0.1-0.1-0.3-0.1-0.5,0c-0.6-3.6-2.4-5.9-6.1-5.9c-3.7,0-5.6,2.3-6.1,5.9c-0.2-0.1-0.4-0.1-0.5,0c-0.4,0.3-0.2,1.3-0.2,2.1     C-938.4,1022.4-938.3,1023.1-937.9,1023.1z"></path><path d="M-852.7,1034.9C-852.7,1034.9-852.7,1034.9-852.7,1034.9c-0.2-1.1-0.9-2.1-2-2.5c-1.2-0.4-2.3-0.9-3.4-1.5l-2.6-1.4     c-0.6,0-1.1,0.4-1.2,0.9l-3.2,7l-0.4-4.4c0.5-0.2,0.8-0.6,0.8-1.1v-0.6c0-0.3-0.1-0.5-0.3-0.7c-0.5,0.2-1,0.2-1.5,0.2     c-0.5,0-1-0.1-1.5-0.2c-0.2,0.2-0.3,0.5-0.3,0.7v0.6c0,0.5,0.4,1,0.8,1.1l-0.4,4.4l-3.2-7c-0.1-0.6-0.6-0.9-1.2-0.9l-2.6,1.4     c-1.1,0.6-2.3,1-3.5,1.5c-1,0.4-1.8,1.4-1.9,2.5l0,0c-0.3,1.7-0.3,3.5-0.2,5.3c0.1,1.7,0.6,3.8,0.9,5.4c0.3,1.3,1.3,2.3,2.6,2.6     c2.6,0.7,7.3,1.8,10.4,1.8c3.1,0,7.8-1.1,10.5-1.8c1.3-0.3,2.3-1.4,2.6-2.7c0.4-1.5,0.8-3.6,0.9-5.2     C-852.3,1038.5-852.4,1036.7-852.7,1034.9z"></path><path d="M-872.6,1023.1c0.5,4.3,3.6,6.7,6.2,6.7s5.7-2.4,6.2-6.7c0.4,0,0.6-0.7,0.6-1.6c0-0.8,0.2-1.8-0.2-2.1     c-0.1-0.1-0.3-0.1-0.5,0c-0.6-3.6-2.4-5.9-6.1-5.9s-5.6,2.3-6.1,5.9c-0.2-0.1-0.4-0.1-0.5,0c-0.4,0.3-0.2,1.3-0.2,2.1     C-873.2,1022.4-873,1023.1-872.6,1023.1z"></path><path d="M-881.2,1021.6l-15-8.7v-17.3c0-1.5-1.2-2.8-2.8-2.8c-1.5,0-2.8,1.2-2.8,2.8v17.3l-15,8.7c-1.3,0.8-1.8,2.5-1,3.8     c0.5,0.9,1.5,1.4,2.4,1.4c0.5,0,1-0.1,1.4-0.4l15-8.7l15,8.7c0.4,0.3,0.9,0.4,1.4,0.4c1,0,1.9-0.5,2.4-1.4     C-879.4,1024.1-879.9,1022.4-881.2,1021.6z"></path></g></g></g></svg>