<svg height='100px' width='100px'  fill="#2a2a28" xmlns="http://www.w3.org/2000/svg" xmlns:xlink="http://www.w3.org/1999/xlink" version="1.1" x="0px" y="0px" viewBox="0 0 100 100" style="enable-background:new 0 0 100 100;" xml:space="preserve"><style type="text/css">
	.st0{fill-rule:evenodd;clip-rule:evenodd;}
</style><path class="st0" d="M82,90H18c-4.4,0-8-3.6-8-8V18c0-4.4,3.6-8,8-8h64c4.4,0,8,3.6,8,8v64C90,86.4,86.4,90,82,90z M74.6,33.3  c-1.9-1.7-4.9-1.7-6.7,0l-25.7,24l-10.1-9.4c-1.9-1.7-4.9-1.7-6.7,0c-1.9,1.7-1.9,4.5,0,6.3l13.4,12.5c1.9,1.7,4.9,1.7,6.7,0  l29.1-27.2C76.5,37.8,76.5,35,74.6,33.3z"></path></svg>