<svg height='100px' width='100px'  fill="#2a2a28" xmlns="http://www.w3.org/2000/svg" xmlns:xlink="http://www.w3.org/1999/xlink" version="1.1" x="0px" y="0px" viewBox="0 0 1024 1024" style="enable-background:new 0 0 1024 1024;" xml:space="preserve"><g><g><path d="M838.4,896.4c-22,0-44,0-66,0c-52.7,0-105.4,0-158.1,0c-63.4,0-126.9,0-190.3,0c-54.2,0-108.5,0-162.7,0    c-25.1,0-50.2,0.1-75.3,0c-4.3,0-8.6-0.3-12.9-0.8c3.5,0.5,7.1,1,10.6,1.4c-8.9-1.2-17.6-3.6-25.9-7.1c3.2,1.3,6.4,2.7,9.6,4    c-7.7-3.4-14.9-7.6-21.5-12.7c2.7,2.1,5.4,4.2,8.1,6.3c-6.6-5.2-12.4-11-17.6-17.6c2.1,2.7,4.2,5.4,6.3,8.1    c-5.1-6.7-9.3-13.8-12.7-21.5c1.3,3.2,2.7,6.4,4,9.6c-3.5-8.3-5.9-17-7.1-25.9c0.5,3.5,1,7.1,1.4,10.6c-1.1-9.1-0.8-18.4-0.8-27.6    c0-15.5,0-31,0-46.4c0-52.6,0-105.1,0-157.7c0-64.1,0-128.1,0-192.2c0-54.8,0-109.5,0-164.3c0-25.5-0.1-51.1,0-76.6    c0-4.3,0.3-8.6,0.8-12.9c-0.5,3.5-1,7.1-1.4,10.6c1.2-8.9,3.6-17.6,7.1-25.9c-1.3,3.2-2.7,6.4-4,9.6c3.4-7.7,7.6-14.9,12.7-21.5    c-2.1,2.7-4.2,5.4-6.3,8.1c5.2-6.6,11-12.4,17.6-17.6c-2.7,2.1-5.4,4.2-8.1,6.3c6.7-5.1,13.8-9.3,21.5-12.7    c-3.2,1.3-6.4,2.7-9.6,4c8.3-3.5,17-5.9,25.9-7.1c-3.5,0.5-7.1,1-10.6,1.4c9.1-1.1,18.4-0.8,27.6-0.8c15.5,0,31,0,46.4,0    c52.6,0,105.1,0,157.7,0c64.1,0,128.1,0,192.2,0c54.8,0,109.5,0,164.3,0c25.5,0,51.1-0.1,76.6,0c4.3,0,8.6,0.3,12.9,0.8    c-3.5-0.5-7.1-1-10.6-1.4c8.9,1.2,17.6,3.6,25.9,7.1c-3.2-1.3-6.4-2.7-9.6-4c7.7,3.4,14.9,7.6,21.5,12.7c-2.7-2.1-5.4-4.2-8.1-6.3    c6.6,5.2,12.4,11,17.6,17.6c-2.1-2.7-4.2-5.4-6.3-8.1c5.1,6.7,9.3,13.8,12.7,21.5c-1.3-3.2-2.7-6.4-4-9.6c3.5,8.3,5.9,17,7.1,25.9    c-0.5-3.5-1-7.1-1.4-10.6c1.1,9.1,0.8,18.4,0.8,27.6c0,15.5,0,31,0,46.4c0,52.6,0,105.1,0,157.7c0,64.1,0,128.1,0,192.2    c0,54.8,0,109.5,0,164.3c0,25.5,0.1,51.1,0,76.6c0,4.3-0.3,8.6-0.8,12.9c0.5-3.5,1-7.1,1.4-10.6c-1.2,8.9-3.6,17.6-7.1,25.9    c1.3-3.2,2.7-6.4,4-9.6c-3.4,7.7-7.6,14.9-12.7,21.5c2.1-2.7,4.2-5.4,6.3-8.1c-5.2,6.6-11,12.4-17.6,17.6c2.7-2.1,5.4-4.2,8.1-6.3    c-6.7,5.1-13.8,9.3-21.5,12.7c3.2-1.3,6.4-2.7,9.6-4c-8.3,3.5-17,5.9-25.9,7.1c3.5-0.5,7.1-1,10.6-1.4    C846.7,896.1,842.6,896.4,838.4,896.4c-10.3,0.1-21,4.4-28.3,11.7c-6.9,6.9-12.2,18.3-11.7,28.3c1,21.5,17.6,40.2,40,40    c34.1-0.2,65.3-12.9,91.2-34.7c11-9.3,20.5-21.2,27.8-33.5c7.5-12.7,13.4-27.3,16.1-41.9c2.7-15.3,3-29.5,3-44.7    c0-18.2,0-36.4,0-54.6c0-27.4,0-54.9,0-82.3c0-33.2,0-66.5,0-99.7c0-35.6,0-71.2,0-106.8c0-34.5,0-69,0-103.5c0-30,0-60,0-89.9    c0-22,0-44,0-66c0-10.6,0-21.1,0-31.7c-0.1-49.4-26.3-96.3-69.4-121c-24-13.8-50.4-18.3-77.6-18.3c-15.4,0-30.9,0-46.3,0    c-25.5,0-51,0-76.6,0c-32.2,0-64.3,0-96.5,0c-35.4,0-70.7,0-106.1,0c-35.1,0-70.2,0-105.3,0c-31.4,0-62.8,0-94.2,0    c-24.2,0-48.5,0-72.7,0c-13.6,0-27.3,0-40.9,0c-2.7,0-5.4,0-8.1,0c-33.7,1-64.7,13.9-89.9,36c-30.2,26.4-45.3,66-45.3,105.5    c0,12.5,0,25,0,37.4c0,23.4,0,46.8,0,70.2c0,30.9,0,61.7,0,92.6c0,34.9,0,69.8,0,104.7c0,35.5,0,70.9,0,106.4    c0,32.6,0,65.2,0,97.8c0,26.3,0,52.6,0,78.9c0,16.5,0,33,0,49.6c0,20.7,1.3,41.4,9.3,60.7c7,16.8,15.3,31,27.6,44.7    c9.8,10.9,22,20.3,34.8,27.2c20.6,11.1,43.4,17,66.8,17.1c9.4,0,18.8,0,28.2,0c21,0,42,0,63,0c29.5,0,59.1,0,88.6,0    c34.1,0,68.2,0,102.3,0c35.8,0,71.6,0,107.4,0c33.6,0,67.2,0,100.8,0c28.1,0,56.2,0,84.3,0c19.2,0,38.3,0,57.5,0    c6.8,0,13.5,0,20.3,0c20.9,0,41-18.4,40-40C877.4,914.7,860.8,896.4,838.4,896.4z"></path></g></g><g><g><path d="M313.3,552c13.2,0,26.3,0,39.5,0c31.6,0,63.2,0,94.9,0c38.3,0,76.5,0,114.8,0c33.1,0,66.2,0,99.3,0    c16.1,0,32.2,0.3,48.3,0c0.2,0,0.5,0,0.7,0c20.9,0,41-18.4,40-40c-1-21.7-17.6-40-40-40c-13.2,0-26.3,0-39.5,0    c-31.6,0-63.2,0-94.9,0c-38.3,0-76.5,0-114.8,0c-33.1,0-66.2,0-99.3,0c-16.1,0-32.2-0.3-48.3,0c-0.2,0-0.5,0-0.7,0    c-20.9,0-41,18.4-40,40C274.2,533.7,290.8,552,313.3,552L313.3,552z"></path></g></g></svg>