<svg height='100px' width='100px'  fill="#1a1a1a" xmlns="http://www.w3.org/2000/svg" xmlns:xlink="http://www.w3.org/1999/xlink" version="1.1" x="0px" y="0px" viewBox="0 0 100 100" style="enable-background:new 0 0 100 100;" xml:space="preserve"><path d="M88.6,50c0-21.3-17.3-38.6-38.6-38.6c-21.3,0-38.6,17.3-38.6,38.6S28.7,88.6,50,88.6C71.3,88.6,88.6,71.3,88.6,50z   M41.2,64.8c-0.8,0.8-1.9,1.2-3,1.2s-2.2-0.4-3-1.2c-1.7-1.7-1.7-4.3,0-6L44,50l-8.8-8.8c-1.7-1.7-1.7-4.3,0-6c1.7-1.7,4.3-1.7,6,0  L50,44l8.8-8.8c1.7-1.7,4.3-1.7,6,0c1.7,1.7,1.7,4.3,0,6L56,50l8.8,8.8c1.7,1.7,1.7,4.3,0,6c-0.8,0.8-1.9,1.2-3,1.2  c-1.1,0-2.2-0.4-3-1.2L50,56L41.2,64.8z"></path></svg>