<svg width="19" height="18" viewBox="0 0 19 18" fill="none" xmlns="http://www.w3.org/2000/svg">
  <mask id="path-1-outside-1" maskUnits="userSpaceOnUse" x="0" y="0" width="19" height="18" fill="black">
    <rect fill="white" width="19" height="18" />
    <path d="M17.2615 12.3064C17.2665 12.2964 17.2709 12.2861 17.2744 12.2755C18.2767 9.96795 18.0976 7.13895 16.7958 4.97669C17.4908 4.14795 16.5881 2.96114 15.6009 3.42034C15.4274 3.2435 15.2453 3.07401 15.0565 2.91375C15.427 1.90909 14.1905 1.08493 13.4205 1.83556C11.1822 0.708134 8.39837 0.722412 6.1725 1.87371C5.38068 1.03666 4.05088 1.93415 4.53029 2.98438C4.25573 3.22388 3.99584 3.48259 3.75622 3.75618C3.54933 3.99241 3.92415 4.31618 4.12962 4.08161C4.35255 3.82711 4.59409 3.58636 4.84921 3.36326C5.34257 3.71823 6.05793 3.5374 6.32859 2.99556C7.22179 3.25204 8.07476 3.62013 8.86958 4.09255C8.80304 4.33191 8.83021 4.59924 8.94439 4.8202C8.29021 5.38389 7.70109 6.02155 7.18952 6.72038C6.71726 6.57803 6.19669 6.8163 5.99132 7.26244C4.94983 7.26801 3.90511 7.37976 2.87939 7.59604C2.78881 7.42768 2.6515 7.28816 2.48503 7.19471C2.67775 6.44504 2.98298 5.7319 3.39413 5.07252C3.55795 4.80971 3.14443 4.53652 2.9731 4.81126C2.53597 5.5123 2.2113 6.27041 2.00595 7.06733C0.818262 7.08745 0.618869 8.72647 1.74954 9.04177C1.73288 11.3744 2.74392 13.6423 4.49713 15.1873C4.13141 16.1728 5.31873 16.9856 6.10229 16.2905C8.38902 17.5035 11.279 17.5037 13.5659 16.2909C14.3629 17.0772 15.6393 16.1988 15.1904 15.171C16.0939 14.3699 16.7959 13.3902 17.2615 12.3064ZM16.9492 11.7533C16.2629 11.0732 15.5119 10.4562 14.71 9.9146C14.8239 9.55877 14.7249 9.15843 14.459 8.89576C15.1333 7.77743 15.6626 6.57829 16.0352 5.32563C16.1594 5.32606 16.2787 5.30321 16.3887 5.26186C17.5304 7.18535 17.7392 9.66535 16.9492 11.7533ZM5.54077 14.549C5.33212 12.5104 5.69825 10.4765 6.6044 8.63859C7.16734 8.81382 7.7758 8.44454 7.88512 7.86811C9.59459 8.07832 11.241 8.57897 12.7861 9.35865C12.7118 9.64678 12.7733 9.96449 12.9503 10.2042C11.2087 12.4052 8.90978 14.0614 6.27867 15.0106C6.11925 14.7588 5.85113 14.5826 5.54077 14.549ZM13.2503 9.60926C13.2503 9.32901 13.4772 9.10102 13.756 9.10102C14.427 9.12889 14.4268 10.0897 13.756 10.1175C13.4772 10.1175 13.2503 9.88951 13.2503 9.60926ZM16.5432 4.32281C16.5432 4.60306 16.3163 4.83105 16.0374 4.83105C15.3664 4.80318 15.3666 3.84234 16.0374 3.81458C16.3163 3.81458 16.5432 4.04256 16.5432 4.32281ZM15.222 3.74141C14.8794 4.22168 15.0384 4.91596 15.555 5.20141C15.1941 6.40973 14.6824 7.5664 14.0314 8.64529C13.8953 8.60624 13.7442 8.59655 13.6043 8.61792C12.9239 7.16853 11.9339 5.86304 10.7244 4.82026C10.8387 4.59917 10.8659 4.33231 10.7993 4.09262C11.5648 3.63764 12.3848 3.27908 13.2423 3.02418C13.5273 3.57308 14.2919 3.72805 14.7665 3.31716C14.9238 3.45216 15.0761 3.59398 15.222 3.74141ZM9.32863 4.3611C9.32863 4.08085 9.55552 3.85286 9.83441 3.85286C10.5054 3.88073 10.5052 4.84153 9.83441 4.8693C9.55552 4.8693 9.32863 4.64131 9.32863 4.3611ZM14.124 2.0404C14.4029 2.0404 14.6298 2.26838 14.6298 2.54863C14.6019 3.22285 13.6459 3.22269 13.6182 2.54863C13.6182 2.26838 13.8451 2.0404 14.124 2.0404ZM5.43228 3.05683C5.15339 3.05683 4.9265 2.82884 4.9265 2.5486C4.95433 1.87434 5.91037 1.87457 5.9381 2.5486C5.9381 2.82884 5.71117 3.05683 5.43228 3.05683ZM6.43298 2.51068C6.4304 2.44202 6.42095 2.37518 6.40521 2.31069C8.48055 1.24011 11.0732 1.22145 13.1645 2.26089C13.1377 2.35055 13.123 2.44535 13.1225 2.54352C12.2205 2.80969 11.3581 3.18566 10.5529 3.66336C10.1659 3.26401 9.50313 3.26388 9.11598 3.66333C8.27693 3.16548 7.37626 2.77849 6.43298 2.51068ZM9.27263 5.1909C9.60788 5.41914 10.0608 5.41918 10.3961 5.19093C11.5508 6.18547 12.4968 7.43041 13.1483 8.81286C13.1042 8.84673 13.0629 8.88422 13.025 8.92481C11.396 8.10062 9.65766 7.57659 7.85203 7.36575C7.80327 7.21855 7.72142 7.08639 7.61518 6.9782C8.09978 6.32152 8.65591 5.72175 9.27263 5.1909ZM6.90128 7.17249C7.18017 7.17249 7.40706 7.40047 7.40706 7.68072C7.37923 8.35498 6.42319 8.35478 6.39546 7.68072C6.39549 7.40047 6.62239 7.17249 6.90128 7.17249ZM1.49111 8.06998C1.49111 7.78973 1.71801 7.56175 1.9969 7.56175C2.66786 7.58961 2.66766 8.55042 1.9969 8.57818C1.71804 8.57822 1.49111 8.35023 1.49111 8.06998ZM2.24534 9.04157C2.24534 9.04157 2.99839 8.87775 2.99839 8.07651C2.99839 8.07651 4.93069 7.7684 5.9029 7.75758C5.92114 7.99717 6.02371 8.21339 6.18103 8.37654C5.21487 10.3155 4.82518 12.4651 5.0495 14.6193C4.95291 14.6594 4.86399 14.7143 4.78538 14.7811C3.16793 13.3357 2.24534 10.9139 2.24534 9.04157ZM5.43228 16.0541C5.15339 16.0541 4.9265 15.8261 4.9265 15.5458C4.9265 15.2656 5.15339 15.0376 5.43228 15.0376C5.70744 15.0376 5.9381 15.2753 5.9381 15.5458C5.9381 15.8261 5.71117 16.0541 5.43228 16.0541ZM9.83441 16.7095C8.63115 16.7095 7.44128 16.422 6.37781 15.8763C6.42098 15.7528 6.44002 15.6122 6.43162 15.4813C9.15337 14.5026 11.5318 12.7923 13.3335 10.5182C13.4815 10.5874 13.6458 10.6192 13.809 10.6107C13.9191 11.0185 14.0061 11.4345 14.0678 11.8505C14.1151 12.169 14.6057 12.0978 14.5583 11.7782C14.4929 11.3365 14.4001 10.8947 14.2824 10.462C14.3417 10.4252 14.3968 10.3823 14.4469 10.3343C15.2743 10.8946 16.0456 11.5377 16.7444 12.2495C16.311 13.2052 15.6803 14.0705 14.8789 14.7854C14.7997 14.7261 14.7113 14.6783 14.6165 14.6444C14.6652 14.1846 14.6864 13.7204 14.6793 13.2613C14.6742 12.9382 14.1784 12.9458 14.1835 13.2689C14.1904 13.7102 14.1699 14.1565 14.1228 14.5984C13.5381 14.6912 13.1557 15.296 13.3168 15.8628C12.2466 16.4173 11.0475 16.7095 9.83441 16.7095ZM14.2801 16.0971C14.0012 16.0971 13.7743 15.8691 13.7743 15.5888C13.8021 14.9146 14.7582 14.9148 14.7859 15.5888C14.7859 15.8691 14.559 16.0971 14.2801 16.0971Z" />
  </mask>
  <path d="M17.2615 12.3064C17.2665 12.2964 17.2709 12.2861 17.2744 12.2755C18.2767 9.96795 18.0976 7.13895 16.7958 4.97669C17.4908 4.14795 16.5881 2.96114 15.6009 3.42034C15.4274 3.2435 15.2453 3.07401 15.0565 2.91375C15.427 1.90909 14.1905 1.08493 13.4205 1.83556C11.1822 0.708134 8.39837 0.722412 6.1725 1.87371C5.38068 1.03666 4.05088 1.93415 4.53029 2.98438C4.25573 3.22388 3.99584 3.48259 3.75622 3.75618C3.54933 3.99241 3.92415 4.31618 4.12962 4.08161C4.35255 3.82711 4.59409 3.58636 4.84921 3.36326C5.34257 3.71823 6.05793 3.5374 6.32859 2.99556C7.22179 3.25204 8.07476 3.62013 8.86958 4.09255C8.80304 4.33191 8.83021 4.59924 8.94439 4.8202C8.29021 5.38389 7.70109 6.02155 7.18952 6.72038C6.71726 6.57803 6.19669 6.8163 5.99132 7.26244C4.94983 7.26801 3.90511 7.37976 2.87939 7.59604C2.78881 7.42768 2.6515 7.28816 2.48503 7.19471C2.67775 6.44504 2.98298 5.7319 3.39413 5.07252C3.55795 4.80971 3.14443 4.53652 2.9731 4.81126C2.53597 5.5123 2.2113 6.27041 2.00595 7.06733C0.818262 7.08745 0.618869 8.72647 1.74954 9.04177C1.73288 11.3744 2.74392 13.6423 4.49713 15.1873C4.13141 16.1728 5.31873 16.9856 6.10229 16.2905C8.38902 17.5035 11.279 17.5037 13.5659 16.2909C14.3629 17.0772 15.6393 16.1988 15.1904 15.171C16.0939 14.3699 16.7959 13.3902 17.2615 12.3064ZM16.9492 11.7533C16.2629 11.0732 15.5119 10.4562 14.71 9.9146C14.8239 9.55877 14.7249 9.15843 14.459 8.89576C15.1333 7.77743 15.6626 6.57829 16.0352 5.32563C16.1594 5.32606 16.2787 5.30321 16.3887 5.26186C17.5304 7.18535 17.7392 9.66535 16.9492 11.7533ZM5.54077 14.549C5.33212 12.5104 5.69825 10.4765 6.6044 8.63859C7.16734 8.81382 7.7758 8.44454 7.88512 7.86811C9.59459 8.07832 11.241 8.57897 12.7861 9.35865C12.7118 9.64678 12.7733 9.96449 12.9503 10.2042C11.2087 12.4052 8.90978 14.0614 6.27867 15.0106C6.11925 14.7588 5.85113 14.5826 5.54077 14.549ZM13.2503 9.60926C13.2503 9.32901 13.4772 9.10102 13.756 9.10102C14.427 9.12889 14.4268 10.0897 13.756 10.1175C13.4772 10.1175 13.2503 9.88951 13.2503 9.60926ZM16.5432 4.32281C16.5432 4.60306 16.3163 4.83105 16.0374 4.83105C15.3664 4.80318 15.3666 3.84234 16.0374 3.81458C16.3163 3.81458 16.5432 4.04256 16.5432 4.32281ZM15.222 3.74141C14.8794 4.22168 15.0384 4.91596 15.555 5.20141C15.1941 6.40973 14.6824 7.5664 14.0314 8.64529C13.8953 8.60624 13.7442 8.59655 13.6043 8.61792C12.9239 7.16853 11.9339 5.86304 10.7244 4.82026C10.8387 4.59917 10.8659 4.33231 10.7993 4.09262C11.5648 3.63764 12.3848 3.27908 13.2423 3.02418C13.5273 3.57308 14.2919 3.72805 14.7665 3.31716C14.9238 3.45216 15.0761 3.59398 15.222 3.74141ZM9.32863 4.3611C9.32863 4.08085 9.55552 3.85286 9.83441 3.85286C10.5054 3.88073 10.5052 4.84153 9.83441 4.8693C9.55552 4.8693 9.32863 4.64131 9.32863 4.3611ZM14.124 2.0404C14.4029 2.0404 14.6298 2.26838 14.6298 2.54863C14.6019 3.22285 13.6459 3.22269 13.6182 2.54863C13.6182 2.26838 13.8451 2.0404 14.124 2.0404ZM5.43228 3.05683C5.15339 3.05683 4.9265 2.82884 4.9265 2.5486C4.95433 1.87434 5.91037 1.87457 5.9381 2.5486C5.9381 2.82884 5.71117 3.05683 5.43228 3.05683ZM6.43298 2.51068C6.4304 2.44202 6.42095 2.37518 6.40521 2.31069C8.48055 1.24011 11.0732 1.22145 13.1645 2.26089C13.1377 2.35055 13.123 2.44535 13.1225 2.54352C12.2205 2.80969 11.3581 3.18566 10.5529 3.66336C10.1659 3.26401 9.50313 3.26388 9.11598 3.66333C8.27693 3.16548 7.37626 2.77849 6.43298 2.51068ZM9.27263 5.1909C9.60788 5.41914 10.0608 5.41918 10.3961 5.19093C11.5508 6.18547 12.4968 7.43041 13.1483 8.81286C13.1042 8.84673 13.0629 8.88422 13.025 8.92481C11.396 8.10062 9.65766 7.57659 7.85203 7.36575C7.80327 7.21855 7.72142 7.08639 7.61518 6.9782C8.09978 6.32152 8.65591 5.72175 9.27263 5.1909ZM6.90128 7.17249C7.18017 7.17249 7.40706 7.40047 7.40706 7.68072C7.37923 8.35498 6.42319 8.35478 6.39546 7.68072C6.39549 7.40047 6.62239 7.17249 6.90128 7.17249ZM1.49111 8.06998C1.49111 7.78973 1.71801 7.56175 1.9969 7.56175C2.66786 7.58961 2.66766 8.55042 1.9969 8.57818C1.71804 8.57822 1.49111 8.35023 1.49111 8.06998ZM2.24534 9.04157C2.24534 9.04157 2.99839 8.87775 2.99839 8.07651C2.99839 8.07651 4.93069 7.7684 5.9029 7.75758C5.92114 7.99717 6.02371 8.21339 6.18103 8.37654C5.21487 10.3155 4.82518 12.4651 5.0495 14.6193C4.95291 14.6594 4.86399 14.7143 4.78538 14.7811C3.16793 13.3357 2.24534 10.9139 2.24534 9.04157ZM5.43228 16.0541C5.15339 16.0541 4.9265 15.8261 4.9265 15.5458C4.9265 15.2656 5.15339 15.0376 5.43228 15.0376C5.70744 15.0376 5.9381 15.2753 5.9381 15.5458C5.9381 15.8261 5.71117 16.0541 5.43228 16.0541ZM9.83441 16.7095C8.63115 16.7095 7.44128 16.422 6.37781 15.8763C6.42098 15.7528 6.44002 15.6122 6.43162 15.4813C9.15337 14.5026 11.5318 12.7923 13.3335 10.5182C13.4815 10.5874 13.6458 10.6192 13.809 10.6107C13.9191 11.0185 14.0061 11.4345 14.0678 11.8505C14.1151 12.169 14.6057 12.0978 14.5583 11.7782C14.4929 11.3365 14.4001 10.8947 14.2824 10.462C14.3417 10.4252 14.3968 10.3823 14.4469 10.3343C15.2743 10.8946 16.0456 11.5377 16.7444 12.2495C16.311 13.2052 15.6803 14.0705 14.8789 14.7854C14.7997 14.7261 14.7113 14.6783 14.6165 14.6444C14.6652 14.1846 14.6864 13.7204 14.6793 13.2613C14.6742 12.9382 14.1784 12.9458 14.1835 13.2689C14.1904 13.7102 14.1699 14.1565 14.1228 14.5984C13.5381 14.6912 13.1557 15.296 13.3168 15.8628C12.2466 16.4173 11.0475 16.7095 9.83441 16.7095ZM14.2801 16.0971C14.0012 16.0971 13.7743 15.8691 13.7743 15.5888C13.8021 14.9146 14.7582 14.9148 14.7859 15.5888C14.7859 15.8691 14.559 16.0971 14.2801 16.0971Z" fill="#12814B" />
  <path d="M17.2615 12.3064C17.2665 12.2964 17.2709 12.2861 17.2744 12.2755C18.2767 9.96795 18.0976 7.13895 16.7958 4.97669C17.4908 4.14795 16.5881 2.96114 15.6009 3.42034C15.4274 3.2435 15.2453 3.07401 15.0565 2.91375C15.427 1.90909 14.1905 1.08493 13.4205 1.83556C11.1822 0.708134 8.39837 0.722412 6.1725 1.87371C5.38068 1.03666 4.05088 1.93415 4.53029 2.98438C4.25573 3.22388 3.99584 3.48259 3.75622 3.75618C3.54933 3.99241 3.92415 4.31618 4.12962 4.08161C4.35255 3.82711 4.59409 3.58636 4.84921 3.36326C5.34257 3.71823 6.05793 3.5374 6.32859 2.99556C7.22179 3.25204 8.07476 3.62013 8.86958 4.09255C8.80304 4.33191 8.83021 4.59924 8.94439 4.8202C8.29021 5.38389 7.70109 6.02155 7.18952 6.72038C6.71726 6.57803 6.19669 6.8163 5.99132 7.26244C4.94983 7.26801 3.90511 7.37976 2.87939 7.59604C2.78881 7.42768 2.6515 7.28816 2.48503 7.19471C2.67775 6.44504 2.98298 5.7319 3.39413 5.07252C3.55795 4.80971 3.14443 4.53652 2.9731 4.81126C2.53597 5.5123 2.2113 6.27041 2.00595 7.06733C0.818262 7.08745 0.618869 8.72647 1.74954 9.04177C1.73288 11.3744 2.74392 13.6423 4.49713 15.1873C4.13141 16.1728 5.31873 16.9856 6.10229 16.2905C8.38902 17.5035 11.279 17.5037 13.5659 16.2909C14.3629 17.0772 15.6393 16.1988 15.1904 15.171C16.0939 14.3699 16.7959 13.3902 17.2615 12.3064ZM16.9492 11.7533C16.2629 11.0732 15.5119 10.4562 14.71 9.9146C14.8239 9.55877 14.7249 9.15843 14.459 8.89576C15.1333 7.77743 15.6626 6.57829 16.0352 5.32563C16.1594 5.32606 16.2787 5.30321 16.3887 5.26186C17.5304 7.18535 17.7392 9.66535 16.9492 11.7533ZM5.54077 14.549C5.33212 12.5104 5.69825 10.4765 6.6044 8.63859C7.16734 8.81382 7.7758 8.44454 7.88512 7.86811C9.59459 8.07832 11.241 8.57897 12.7861 9.35865C12.7118 9.64678 12.7733 9.96449 12.9503 10.2042C11.2087 12.4052 8.90978 14.0614 6.27867 15.0106C6.11925 14.7588 5.85113 14.5826 5.54077 14.549ZM13.2503 9.60926C13.2503 9.32901 13.4772 9.10102 13.756 9.10102C14.427 9.12889 14.4268 10.0897 13.756 10.1175C13.4772 10.1175 13.2503 9.88951 13.2503 9.60926ZM16.5432 4.32281C16.5432 4.60306 16.3163 4.83105 16.0374 4.83105C15.3664 4.80318 15.3666 3.84234 16.0374 3.81458C16.3163 3.81458 16.5432 4.04256 16.5432 4.32281ZM15.222 3.74141C14.8794 4.22168 15.0384 4.91596 15.555 5.20141C15.1941 6.40973 14.6824 7.5664 14.0314 8.64529C13.8953 8.60624 13.7442 8.59655 13.6043 8.61792C12.9239 7.16853 11.9339 5.86304 10.7244 4.82026C10.8387 4.59917 10.8659 4.33231 10.7993 4.09262C11.5648 3.63764 12.3848 3.27908 13.2423 3.02418C13.5273 3.57308 14.2919 3.72805 14.7665 3.31716C14.9238 3.45216 15.0761 3.59398 15.222 3.74141ZM9.32863 4.3611C9.32863 4.08085 9.55552 3.85286 9.83441 3.85286C10.5054 3.88073 10.5052 4.84153 9.83441 4.8693C9.55552 4.8693 9.32863 4.64131 9.32863 4.3611ZM14.124 2.0404C14.4029 2.0404 14.6298 2.26838 14.6298 2.54863C14.6019 3.22285 13.6459 3.22269 13.6182 2.54863C13.6182 2.26838 13.8451 2.0404 14.124 2.0404ZM5.43228 3.05683C5.15339 3.05683 4.9265 2.82884 4.9265 2.5486C4.95433 1.87434 5.91037 1.87457 5.9381 2.5486C5.9381 2.82884 5.71117 3.05683 5.43228 3.05683ZM6.43298 2.51068C6.4304 2.44202 6.42095 2.37518 6.40521 2.31069C8.48055 1.24011 11.0732 1.22145 13.1645 2.26089C13.1377 2.35055 13.123 2.44535 13.1225 2.54352C12.2205 2.80969 11.3581 3.18566 10.5529 3.66336C10.1659 3.26401 9.50313 3.26388 9.11598 3.66333C8.27693 3.16548 7.37626 2.77849 6.43298 2.51068ZM9.27263 5.1909C9.60788 5.41914 10.0608 5.41918 10.3961 5.19093C11.5508 6.18547 12.4968 7.43041 13.1483 8.81286C13.1042 8.84673 13.0629 8.88422 13.025 8.92481C11.396 8.10062 9.65766 7.57659 7.85203 7.36575C7.80327 7.21855 7.72142 7.08639 7.61518 6.9782C8.09978 6.32152 8.65591 5.72175 9.27263 5.1909ZM6.90128 7.17249C7.18017 7.17249 7.40706 7.40047 7.40706 7.68072C7.37923 8.35498 6.42319 8.35478 6.39546 7.68072C6.39549 7.40047 6.62239 7.17249 6.90128 7.17249ZM1.49111 8.06998C1.49111 7.78973 1.71801 7.56175 1.9969 7.56175C2.66786 7.58961 2.66766 8.55042 1.9969 8.57818C1.71804 8.57822 1.49111 8.35023 1.49111 8.06998ZM2.24534 9.04157C2.24534 9.04157 2.99839 8.87775 2.99839 8.07651C2.99839 8.07651 4.93069 7.7684 5.9029 7.75758C5.92114 7.99717 6.02371 8.21339 6.18103 8.37654C5.21487 10.3155 4.82518 12.4651 5.0495 14.6193C4.95291 14.6594 4.86399 14.7143 4.78538 14.7811C3.16793 13.3357 2.24534 10.9139 2.24534 9.04157ZM5.43228 16.0541C5.15339 16.0541 4.9265 15.8261 4.9265 15.5458C4.9265 15.2656 5.15339 15.0376 5.43228 15.0376C5.70744 15.0376 5.9381 15.2753 5.9381 15.5458C5.9381 15.8261 5.71117 16.0541 5.43228 16.0541ZM9.83441 16.7095C8.63115 16.7095 7.44128 16.422 6.37781 15.8763C6.42098 15.7528 6.44002 15.6122 6.43162 15.4813C9.15337 14.5026 11.5318 12.7923 13.3335 10.5182C13.4815 10.5874 13.6458 10.6192 13.809 10.6107C13.9191 11.0185 14.0061 11.4345 14.0678 11.8505C14.1151 12.169 14.6057 12.0978 14.5583 11.7782C14.4929 11.3365 14.4001 10.8947 14.2824 10.462C14.3417 10.4252 14.3968 10.3823 14.4469 10.3343C15.2743 10.8946 16.0456 11.5377 16.7444 12.2495C16.311 13.2052 15.6803 14.0705 14.8789 14.7854C14.7997 14.7261 14.7113 14.6783 14.6165 14.6444C14.6652 14.1846 14.6864 13.7204 14.6793 13.2613C14.6742 12.9382 14.1784 12.9458 14.1835 13.2689C14.1904 13.7102 14.1699 14.1565 14.1228 14.5984C13.5381 14.6912 13.1557 15.296 13.3168 15.8628C12.2466 16.4173 11.0475 16.7095 9.83441 16.7095ZM14.2801 16.0971C14.0012 16.0971 13.7743 15.8691 13.7743 15.5888C13.8021 14.9146 14.7582 14.9148 14.7859 15.5888C14.7859 15.8691 14.559 16.0971 14.2801 16.0971Z" stroke="#12814B" stroke-width="0.2" mask="url(#path-1-outside-1)" />
</svg>