<svg xmlns="http://www.w3.org/2000/svg" xmlns:xlink="http://www.w3.org/1999/xlink" width="100" height="100" viewBox="0 0 100 100"><svg viewBox="0 0 99.999997 99.999997"><g transform="translate(-149.6453,-589.21878)"><path d="m 199.64552,591.21879 a 48.000099,48.000099 0 0 0 -48.00022,48.00022 48.000099,48.000099 0 0 0 48.00022,47.99977 48.000099,48.000099 0 0 0 47.99977,-47.99977 48.000099,48.000099 0 0 0 -47.99977,-48.00022 z m 0,5.42088 a 42.107528,42.578935 0 0 1 42.10718,42.57934 42.107528,42.578935 0 0 1 -42.10718,42.57887 42.107528,42.578935 0 0 1 -42.10763,-42.57887 42.107528,42.578935 0 0 1 42.10763,-42.57934 z" fill="#1bb062"></path></g></svg><g transform="translate(50 50) scale(0.69 0.69) rotate(0) translate(-50 -50)" style="fill:#1bb062"><svg fill="#1bb062" xmlns="http://www.w3.org/2000/svg" xmlns:xlink="http://www.w3.org/1999/xlink" version="1.1" x="0px" y="0px" viewBox="0 0 100 100" enable-background="new 0 0 100 100" xml:space="preserve"><g><path d="M85.798,56H65v-8.389c0-2.497-1.334-3.169-3.186-1.493l-17.122,15.58c-1.852,1.676-1.805,4.419,0.046,6.095l17.054,15.579   C63.645,85.049,65,84.377,65,81.879V73h20.798C88.296,73,90,71.217,90,68.718v-7.946C90,58.275,88.296,56,85.798,56z"></path><path d="M54.317,37.857l-17.083-15.58C35.383,20.601,34,21.273,34,23.771V33H13.241C10.743,33,9,34.434,9,36.933v7.947   C9,47.375,10.743,50,13.241,50H34v8.039c0,2.497,1.353,3.169,3.205,1.492l17.131-15.579C56.188,42.276,56.169,39.533,54.317,37.857   z"></path></g></svg></g></svg>