<svg width="531" height="393" viewBox="0 0 531 393" fill="none" xmlns="http://www.w3.org/2000/svg">
<mask id="mask0_2366:32926" style="mask-type:alpha" maskUnits="userSpaceOnUse" x="0" y="0" width="531" height="393">
<rect width="531" height="393" fill="#C4C4C4"/>
</mask>
<g mask="url(#mask0_2366:32926)">
<path opacity="0.2" d="M332.198 332.41C381.713 354.538 511.183 380.168 552.563 292.916C616.948 157.625 521.002 23.0355 452.129 42.6428C402.614 56.7881 372.596 74.9948 327.709 39.2816C277.071 -1.19343 124.316 -17.7195 64.9818 55.9477C12.801 120.792 68.6288 174.152 46.1855 224.71C-36.2938 410.279 193.61 335.911 238.357 317.145C283.243 298.518 308.071 321.626 332.198 332.41Z" fill="#92D6C1"/>
<path opacity="0.2" d="M309.473 337.032C389.007 335.071 614.843 390.672 596.748 195.439C578.653 0.206971 405.979 137.318 327.708 72.0536C249.437 6.64934 168.641 -42.2288 88.6868 54.267C8.5921 150.763 6.76855 162.947 41.4155 231.433C75.9221 299.778 76.904 369.944 186.876 354.958C296.849 339.973 278.613 337.872 309.473 337.032Z" fill="#92D6C1"/>
<path opacity="0.3" d="M307.09 334.791C338.371 334.791 395.882 336.051 388.728 329.329C381.574 322.746 344.122 329.189 313.403 326.948C282.683 324.707 254.91 322.186 223.489 325.407C192.068 328.629 200.625 332.41 214.371 333.53C239.76 335.491 244.249 336.331 258.977 335.211C301.9 332.27 294.887 334.791 307.09 334.791Z" fill="#1BB062"/>
<path d="M264.308 279.891H329.113V323.307H264.308V279.891Z" fill="#005D92"/>
<path d="M264.308 279.891H329.113V323.307H264.308V279.891Z" fill="#15844B"/>
<path d="M246.494 329.89H346.928C346.928 325.828 344.683 322.187 341.036 320.366L329.254 314.624H264.448L252.666 320.366C248.738 322.187 246.494 325.828 246.494 329.89Z" fill="#216C2A"/>
<path d="M329.113 295.156H264.308V299.778L329.113 298.097V295.156Z" fill="#216C2A"/>
<path d="M156.581 295.156H436.842C443.294 295.156 448.484 289.974 448.484 283.532V125.273C448.484 118.831 443.294 113.649 436.842 113.649H156.44C149.988 113.649 144.798 118.831 144.798 125.273V283.532C144.938 289.834 150.128 295.156 156.581 295.156Z" fill="#15844B"/>
<path d="M155.037 129.055H438.244V271.488H155.037V129.055Z" fill="#EEF9F1"/>
<path d="M155.039 129.055V271.628H438.246V129.055H155.039ZM153.637 127.654H155.039H438.246H439.789V129.195V271.628V273.168H438.246H155.039H153.496V271.628V129.055V127.654H153.637Z" fill="#216C2A"/>
<path opacity="0.2" d="M158.406 277.929H435.02C437.685 277.929 439.789 275.829 439.789 273.168H153.637C153.637 275.689 155.741 277.929 158.406 277.929Z" fill="#216C2A"/>
<path opacity="0.15" d="M155.178 267.286H438.244V267.706H155.178V267.286Z" fill="#005D92"/>
<path opacity="0.15" d="M155.178 238.015H438.244V238.435H155.178V238.015Z" fill="#005D92"/>
<path opacity="0.15" d="M155.178 208.885H438.244V209.305H155.178V208.885Z" fill="#005D92"/>
<path opacity="0.15" d="M155.178 179.753H438.244V180.173H155.178V179.753Z" fill="#005D92"/>
<path opacity="0.15" d="M155.178 150.622H438.244V151.042H155.178V150.622Z" fill="#005D92"/>
<path opacity="0.15" d="M375.257 129.054H375.678V267.286H375.257V129.054Z" fill="#005D92"/>
<path opacity="0.15" d="M343.841 129.054H344.262V267.286H343.841V129.054Z" fill="#005D92"/>
<path opacity="0.15" d="M312.278 129.054H312.699V267.286H312.278V129.054Z" fill="#005D92"/>
<path opacity="0.15" d="M280.857 129.054H281.277V267.286H280.857V129.054Z" fill="#005D92"/>
<path opacity="0.15" d="M249.296 129.054H249.717V267.286H249.296V129.054Z" fill="#005D92"/>
<path opacity="0.15" d="M217.874 129.054H218.295V267.286H217.874V129.054Z" fill="#005D92"/>
<path opacity="0.15" d="M186.315 129.054H186.736V267.286H186.315V129.054Z" fill="#005D92"/>
<path opacity="0.15" d="M406.681 129.054H407.102V267.286H406.681V129.054Z" fill="#005D92"/>
<path d="M433.95 267.468H411.227V225.732H433.95V267.468Z" fill="#5FC891"/>
<path d="M402.347 267.374H379.623V217.235H402.347V267.374Z" fill="#5FC891"/>
<path d="M370.884 267.341H348.16V205.719H370.884V267.341Z" fill="#5FC891"/>
<path d="M339.284 267.362H316.561V213.162H339.284V267.362Z" fill="#5FC891"/>
<path d="M307.822 267.381H285.098V219.624H307.822V267.381Z" fill="#5FC891"/>
<path d="M276.362 267.354H253.639V210.213H276.362V267.354Z" fill="#5FC891"/>
<path d="M244.757 267.468H222.033V201.223H244.757V267.468Z" fill="#5FC891"/>
<path d="M213.298 267.413H190.574V181.841H213.298V267.413Z" fill="#3D95D1"/>
<path d="M181.835 267.371H159.111V167.094H181.835V267.371Z" fill="#3D95D1"/>
<path d="M433.95 267.451H411.227V239.581H433.95V267.451Z" fill="#B0E2BB"/>
<path d="M402.347 267.466H379.623V233.994H402.347V267.466Z" fill="#B0E2BB"/>
<path d="M370.888 267.468H348.164V226.293H370.888V267.468Z" fill="#B0E2BB"/>
<path d="M339.284 267.403H316.561V231.129H339.284V267.403Z" fill="#B0E2BB"/>
<path d="M307.823 267.381H285.1V235.449H307.823V267.381Z" fill="#B0E2BB"/>
<path d="M276.363 267.392H253.639V229.158H276.363V267.392Z" fill="#B0E2BB"/>
<path d="M244.757 267.45H222.033V223.194H244.757V267.45Z" fill="#B0E2BB"/>
<path d="M213.298 267.471H190.574V210.329H213.298V267.471Z" fill="#B0E2BB"/>
<path d="M181.835 267.414H159.111V200.329H181.835V267.414Z" fill="#B0E2BB"/>
<path d="M438.244 214.906L438.385 214.206L391.113 201.601L359.553 189.417L359.412 189.557L328.973 197.54L296.431 203.982L264.309 194.599L233.589 186.055L202.169 165.468L169.766 152.303L169.486 153.003L201.748 166.168L233.309 186.756L264.168 195.299L296.431 204.822L296.571 204.682L329.254 198.24L359.412 190.257L390.833 202.301L438.244 214.906Z" fill="#E6949E"/>
<path d="M165.838 150.903L173.693 150.062L170.888 153.283L170.748 157.345L165.838 150.903Z" fill="#FAA634"/>
<path opacity="0.13" d="M344.684 182.694V113.649H435.019C442.453 113.649 448.625 119.671 448.625 127.234V187.176H349.313C346.648 187.176 344.684 185.075 344.684 182.694Z" fill="#5A5A5A"/>
<path d="M358.29 178.074H498.701C501.226 178.074 503.189 176.113 503.189 173.592V88.8607C503.189 86.3398 501.226 84.379 498.701 84.379H358.149C355.625 84.379 353.661 86.3398 353.661 88.8607V173.592C353.801 176.113 355.765 178.074 358.29 178.074Z" fill="white"/>
<path d="M353.801 88.8607C353.801 86.3398 355.765 84.379 358.29 84.379H498.701C501.226 84.379 503.189 86.3398 503.189 88.8607V93.6224H353.661V88.8607H353.801Z" fill="#5FC891"/>
<path d="M448.908 103.987V137.039H482.012C482.012 155.246 467.143 170.092 448.908 170.092C430.673 170.092 415.804 155.246 415.804 137.039C415.804 118.833 430.673 103.987 448.908 103.987Z" fill="#11B2BC"/>
<path d="M482.012 137.04H448.908L461.111 106.368C473.455 111.27 482.012 123.175 482.012 137.04Z" fill="#E6949E"/>
<path d="M461.109 106.368L448.906 137.039V103.987C453.254 103.987 457.462 104.827 461.109 106.368Z" fill="#B0E2BB"/>
<path d="M460.973 106.928C457.045 105.387 453.118 104.687 448.91 104.687V104.127C453.258 104.127 457.326 104.967 461.113 106.508L460.973 106.928Z" fill="#B0E2BB"/>
<path d="M448.906 103.987V104.547C430.951 104.547 416.363 119.113 416.363 137.039C416.363 154.966 430.951 169.531 448.906 169.531C466.861 169.531 481.449 154.966 481.449 137.039H482.01C482.01 155.246 467.141 170.091 448.906 170.091C430.671 170.091 415.802 155.246 415.802 137.039C415.802 118.832 430.671 103.987 448.906 103.987Z" fill="#11B2BC"/>
<path d="M481.451 137.04C481.451 123.595 473.456 111.831 460.971 106.929L461.252 106.369C473.456 111.27 482.152 123.175 482.152 137.04H481.451Z" fill="#E6949E"/>
<path d="M389.711 109.309H396.584V116.171H389.711V109.309Z" fill="#E6949E"/>
<g opacity="0.3">
<path opacity="0.3" d="M364.744 111.269H385.504V112.11H364.744V111.269Z" fill="#005D92"/>
<path opacity="0.3" d="M372.178 113.37H385.504V114.21H372.178V113.37Z" fill="#005D92"/>
</g>
<path d="M389.711 119.812H396.584V126.675H389.711V119.812Z" fill="#B0E2BB"/>
<g opacity="0.3">
<path opacity="0.3" d="M364.744 121.773H385.504V122.613H364.744V121.773Z" fill="#005D92"/>
<path opacity="0.3" d="M372.178 124.013H385.504V124.854H372.178V124.013Z" fill="#005D92"/>
</g>
<path d="M389.711 130.036H396.584V136.898H389.711V130.036Z" fill="#11B2BC"/>
<g opacity="0.3">
<path opacity="0.3" d="M364.744 131.857H385.504V132.697H364.744V131.857Z" fill="#005D92"/>
<path opacity="0.3" d="M372.178 134.097H385.504V134.938H372.178V134.097Z" fill="#005D92"/>
</g>
<path opacity="0.2" d="M364.744 144.042H396.586V163.229H364.744V144.042Z" fill="#EEF9F1"/>
<path d="M435.683 139.142C434.503 131.811 439.499 124.913 446.842 123.736C454.184 122.558 461.093 127.546 462.272 134.877C463.452 142.209 458.456 149.106 451.113 150.284C443.771 151.462 436.862 146.473 435.683 139.142Z" fill="white"/>
<path opacity="0.13" d="M214.37 150.902C216.755 150.902 218.578 152.863 218.578 155.104V235.773C218.578 238.154 216.614 239.975 214.37 239.975H144.936V150.762H214.37V150.902Z" fill="#5A5A5A"/>
<path d="M89.1083 231.432H222.927C225.311 231.432 227.135 229.472 227.135 227.231V146.561C227.135 144.18 225.171 142.359 222.927 142.359H89.1083C86.7237 142.359 84.9002 144.32 84.9002 146.561V227.231C84.9002 229.612 86.7237 231.432 89.1083 231.432Z" fill="white"/>
<path d="M84.9002 146.561C84.9002 144.18 86.864 142.359 89.1083 142.359H222.927C225.311 142.359 227.135 144.32 227.135 146.561V151.042H84.9002V146.561Z" fill="#216C2A"/>
<path d="M206.094 183.255H215.352V220.649H206.094V183.255Z" fill="#5FC891"/>
<path d="M190.523 190.538H199.781V220.649H190.523V190.538Z" fill="#BBE6C5"/>
<path d="M174.953 198.1H184.211V220.648H174.953V198.1Z" fill="#5FC891"/>
<path d="M159.385 196.28H168.643V220.649H159.385V196.28Z" fill="#BBE6C5"/>
<path d="M143.814 193.339H153.072V220.789H143.814V193.339Z" fill="#5FC891"/>
<path d="M128.244 175.552H137.502V220.648H128.244V175.552Z" fill="#BBE6C5"/>
<path d="M112.674 163.087H121.932V220.649H112.674V163.087Z" fill="#5FC891"/>
<path d="M97.1015 166.308H106.359V220.649H97.1015V166.308Z" fill="#BBE6C5"/>
<path d="M179.585 192.078H179.725L195.015 184.515L210.865 177.232L210.725 176.812L194.734 184.235L179.585 191.657L164.015 189.837L148.164 186.896L133.015 169.249L117.305 156.644L101.173 159.866L101.314 160.286L117.164 157.065L132.734 169.529L148.024 187.176H148.164L164.015 190.257L179.585 192.078Z" fill="#11B2BC"/>
<path d="M211.004 178.633C211.845 178.633 212.547 177.933 212.547 177.092C212.547 176.252 211.845 175.552 211.004 175.552C210.162 175.552 209.461 176.252 209.461 177.092C209.461 177.933 210.162 178.633 211.004 178.633Z" fill="#11B2BC"/>
<path d="M195.715 185.916C196.556 185.916 197.258 185.215 197.258 184.375C197.258 183.535 196.556 182.834 195.715 182.834C194.873 182.834 194.172 183.535 194.172 184.375C194.172 185.215 194.873 185.916 195.715 185.916Z" fill="#11B2BC"/>
<path d="M179.58 193.478C180.422 193.478 181.123 192.777 181.123 191.937C181.123 191.097 180.422 190.396 179.58 190.396C178.738 190.396 178.037 191.097 178.037 191.937C178.037 192.777 178.738 193.478 179.58 193.478Z" fill="#11B2BC"/>
<path d="M164.014 191.798C164.855 191.798 165.557 191.097 165.557 190.257C165.557 189.417 164.855 188.717 164.014 188.717C163.172 188.717 162.471 189.417 162.471 190.257C162.471 191.097 163.172 191.798 164.014 191.798Z" fill="#11B2BC"/>
<path d="M148.443 188.577C149.285 188.577 149.986 187.877 149.986 187.037C149.986 186.196 149.285 185.496 148.443 185.496C147.602 185.496 146.9 186.196 146.9 187.037C146.9 187.877 147.602 188.577 148.443 188.577Z" fill="#11B2BC"/>
<path d="M133.154 171.209C133.996 171.209 134.697 170.509 134.697 169.669C134.697 168.829 133.996 168.128 133.154 168.128C132.313 168.128 131.611 168.829 131.611 169.669C131.611 170.509 132.313 171.209 133.154 171.209Z" fill="#11B2BC"/>
<path d="M117.303 158.465C118.144 158.465 118.846 157.765 118.846 156.925C118.846 156.084 118.144 155.384 117.303 155.384C116.461 155.384 115.76 156.084 115.76 156.925C115.619 157.765 116.461 158.465 117.303 158.465Z" fill="#11B2BC"/>
<path d="M101.732 161.686C102.574 161.686 103.275 160.986 103.275 160.146C103.275 159.305 102.574 158.605 101.732 158.605C100.891 158.605 100.189 159.305 100.189 160.146C100.049 160.986 100.891 161.686 101.732 161.686Z" fill="#11B2BC"/>
</g>
</svg>
