<svg height='100px' width='100px'  fill="#4a90e2" xmlns="http://www.w3.org/2000/svg" xmlns:xlink="http://www.w3.org/1999/xlink" version="1.1" x="0px" y="0px" viewBox="0 0 32 32" enable-background="new 0 0 32 32" xml:space="preserve"><g display="none"><rect x="-168" y="-15.333" display="inline" fill="#4a90e2" width="404.667" height="211.333"></rect></g><g display="none"><g display="inline"><g><text transform="matrix(1 0 0 1 8.2228 13.4634)" font-family="'Arial-BoldMT'" font-size="7px">DOC</text></g></g><g display="inline"><g><path d="M26.5,2v28h-21V2H26.5 M26.5,0h-21c-1.1,0-2,0.9-2,2v28c0,1.1,0.9,2,2,2h21c1.1,0,2-0.9,2-2V2C28.5,0.9,27.6,0,26.5,0     L26.5,0z"></path></g><g><g><line fill="none" stroke="#4a90e2" stroke-width="2" stroke-miterlimit="10" x1="8.507" y1="25.041" x2="23.493" y2="25.041"></line></g></g><g><g><line fill="none" stroke="#4a90e2" stroke-width="2" stroke-miterlimit="10" x1="8.507" y1="21.5" x2="23.493" y2="21.5"></line></g></g></g></g><g><g><path d="M11.528,13.358c0.298-0.096,0.535-0.229,0.711-0.4c0.232-0.226,0.411-0.521,0.536-0.885    c0.103-0.299,0.154-0.654,0.154-1.066c0-0.47-0.055-0.864-0.164-1.185s-0.27-0.591-0.479-0.812    c-0.21-0.222-0.462-0.375-0.756-0.462c-0.219-0.063-0.536-0.096-0.953-0.096h-1.85v5.011h1.904    C11.006,13.463,11.305,13.428,11.528,13.358z M9.74,12.62V9.3h0.455c0.412,0,0.689,0.016,0.83,0.048    c0.189,0.041,0.346,0.119,0.469,0.236c0.123,0.115,0.219,0.277,0.287,0.484c0.068,0.208,0.103,0.505,0.103,0.893    s-0.034,0.693-0.103,0.918s-0.157,0.386-0.266,0.483c-0.107,0.098-0.244,0.167-0.408,0.208c-0.125,0.032-0.329,0.049-0.611,0.049    H9.74z"></path><path d="M16.02,13.549c0.735,0,1.323-0.229,1.764-0.686c0.439-0.457,0.659-1.09,0.659-1.898c0-0.816-0.222-1.453-0.664-1.911    c-0.443-0.458-1.034-0.687-1.772-0.687c-0.408,0-0.769,0.065-1.08,0.197c-0.235,0.099-0.451,0.249-0.647,0.451    c-0.197,0.203-0.354,0.433-0.467,0.688c-0.153,0.347-0.229,0.774-0.229,1.285c0,0.798,0.22,1.424,0.66,1.878    C14.682,13.322,15.274,13.549,16.02,13.549z M15.008,9.661c0.255-0.286,0.591-0.429,1.008-0.429s0.752,0.142,1.004,0.424    c0.251,0.282,0.377,0.711,0.377,1.285c0,0.581-0.129,1.017-0.388,1.308c-0.259,0.29-0.59,0.436-0.993,0.436    s-0.735-0.146-0.998-0.439c-0.262-0.293-0.393-0.723-0.393-1.29C14.625,10.378,14.752,9.947,15.008,9.661z"></path><path d="M21.338,13.549c0.537,0,0.981-0.133,1.331-0.398s0.6-0.672,0.75-1.219l-0.981-0.311c-0.084,0.366-0.223,0.635-0.416,0.807    c-0.194,0.17-0.426,0.256-0.694,0.256c-0.364,0-0.661-0.135-0.889-0.403s-0.342-0.72-0.342-1.354c0-0.597,0.115-1.028,0.347-1.296    c0.231-0.266,0.533-0.399,0.904-0.399c0.269,0,0.497,0.075,0.686,0.226c0.188,0.15,0.312,0.355,0.371,0.615l1.001-0.239    c-0.114-0.401-0.285-0.709-0.513-0.923c-0.383-0.362-0.881-0.543-1.494-0.543c-0.701,0-1.268,0.23-1.698,0.691    c-0.431,0.462-0.646,1.109-0.646,1.943c0,0.788,0.214,1.41,0.643,1.864C20.125,13.322,20.672,13.549,21.338,13.549z"></path><path d="M5.5,32h21c1.1,0,2-0.9,2-2V2c0-1.1-0.9-2-2-2h-21c-1.1,0-2,0.9-2,2v28C3.5,31.1,4.4,32,5.5,32z M4,2    c0-0.827,0.673-1.5,1.5-1.5h21C27.327,0.5,28,1.173,28,2v28c0,0.827-0.673,1.5-1.5,1.5h-21C4.673,31.5,4,30.827,4,30V2z"></path><rect x="8.507" y="24.791" width="14.986" height="0.5"></rect><rect x="8.507" y="21.25" width="14.986" height="0.5"></rect></g></g></svg>