<svg width="16" height="16" viewBox="0 0 16 16" fill="none" xmlns="http://www.w3.org/2000/svg">
<path d="M11.0147 6.875C11.0147 6.52981 10.7348 6.25 10.3897 6.25H3.95215C3.60696 6.25 3.32715 6.52981 3.32715 6.875C3.32715 7.22019 3.60696 7.5 3.95215 7.5H10.3897C10.7348 7.5 11.0147 7.22019 11.0147 6.875Z" fill="#2A2A28"/>
<path d="M3.95215 8.75C3.60696 8.75 3.32715 9.02981 3.32715 9.375C3.32715 9.72019 3.60696 10 3.95215 10H7.86186C8.20705 10 8.48686 9.72019 8.48686 9.375C8.48686 9.02981 8.20705 8.75 7.86186 8.75H3.95215Z" fill="#2A2A28"/>
<path d="M5.42085 14.75H3.33057C2.64132 14.75 2.08057 14.1892 2.08057 13.5V2.5C2.08057 1.81075 2.64132 1.25 3.33057 1.25H11.0146C11.7038 1.25 12.2646 1.81075 12.2646 2.5V6.34375C12.2646 6.68894 12.5444 6.96875 12.8896 6.96875C13.2348 6.96875 13.5146 6.68894 13.5146 6.34375V2.5C13.5146 1.1215 12.3931 0 11.0146 0H3.33057C1.95207 0 0.830566 1.1215 0.830566 2.5V13.5C0.830566 14.8785 1.95207 16 3.33057 16H5.42085C5.76603 16 6.04585 15.7202 6.04585 15.375C6.04585 15.0298 5.76603 14.75 5.42085 14.75Z" fill="#2A2A28"/>
<path d="M14.6217 9.0491C13.8907 8.31804 12.7012 8.31801 11.9706 9.0486L8.53924 12.4724C8.46637 12.5451 8.41262 12.6346 8.38268 12.7331L7.6354 15.1933C7.56915 15.4114 7.62687 15.6483 7.78605 15.8114C7.9053 15.9336 8.0673 16 8.23346 16C8.28905 16 8.34518 15.9925 8.40027 15.9773L10.9229 15.2785C11.0267 15.2497 11.1214 15.1946 11.1976 15.1185L14.6218 11.7008C15.3528 10.9697 15.3528 9.78023 14.6217 9.0491ZM10.4309 14.1177L9.16174 14.4693L9.53315 13.2465L11.8484 10.9364L12.7325 11.8204L10.4309 14.1177ZM13.7383 10.8165L13.6172 10.9374L12.7333 10.0535L12.854 9.93304C13.0977 9.68935 13.4942 9.68935 13.7379 9.93304C13.9816 10.1767 13.9816 10.5732 13.7383 10.8165Z" fill="#2A2A28"/>
<path d="M10.3897 3.75H3.95215C3.60696 3.75 3.32715 4.02981 3.32715 4.375C3.32715 4.72019 3.60696 5 3.95215 5H10.3897C10.7348 5 11.0147 4.72019 11.0147 4.375C11.0147 4.02981 10.7348 3.75 10.3897 3.75Z" fill="#2A2A28"/>
</svg>
