<svg xmlns="http://www.w3.org/2000/svg" xmlns:xlink="http://www.w3.org/1999/xlink" width="100" height="100" viewBox="0 0 100 100"><circle stroke="none" fill="#1bb062" r="48%" cx="50%" cy="50%"></circle><g transform="translate(50 50) scale(0.69 0.69) rotate(0) translate(-50 -50)" style="fill:#ffffff"><svg fill="#ffffff" xmlns="http://www.w3.org/2000/svg" viewBox="0 0 48 48" x="0px" y="0px"><title>Favorite, star, rate</title><path d="M33.92,42.21a3,3,0,0,1-1.38-.34L24,37.38l-8.54,4.49a3,3,0,0,1-4.29-3.11l1.63-9.51L5.89,22.51a3,3,0,0,1,1.64-5l9.55-1.38,4.27-8.66a3,3,0,0,1,5.3,0l4.27,8.66,9.55,1.38a3,3,0,0,1,1.64,5L35.2,29.25l1.63,9.51a3,3,0,0,1-2.91,3.45Zm-9.92-7a.93.93,0,0,1,.46.12l9,4.73a1,1,0,0,0,1.39-1l-1.72-10a1,1,0,0,1,.28-.89l7.29-7.1a.92.92,0,0,0,.24-1,.94.94,0,0,0-.77-.65L30.11,18a1,1,0,0,1-.75-.55L24.85,8.32h0a1,1,0,0,0-1.7,0l-4.51,9.12a1,1,0,0,1-.75.55L7.82,19.45a.94.94,0,0,0-.77.65.92.92,0,0,0,.24,1l7.29,7.1a1,1,0,0,1,.28.89l-1.72,10a1,1,0,0,0,1.39,1l9-4.73A.93.93,0,0,1,24,35.25Z"></path></svg></g></svg>