<svg height='100px' width='100px'  fill="#4a90e2" xmlns="http://www.w3.org/2000/svg" xmlns:xlink="http://www.w3.org/1999/xlink" version="1.1" x="0px" y="0px" viewBox="0 0 100 100" enable-background="new 0 0 100 100" xml:space="preserve"><g><path d="M82.553,6.913h-40.25c-0.469,0-0.929,0.109-1.356,0.32l-0.171,0.09C40.517,7.47,40.3,7.631,40.114,7.816L16.046,31.75   c-0.187,0.185-0.35,0.401-0.5,0.661c-0.033,0.058-0.063,0.114-0.092,0.173c-0.127,0.258-0.213,0.504-0.265,0.761   c-0.04,0.198-0.061,0.402-0.061,0.608v56.029c0,1.712,1.393,3.104,3.104,3.104h64.32c1.712,0,3.105-1.393,3.105-3.104V10.018   C85.658,8.306,84.265,6.913,82.553,6.913z M25.758,30.849l13.44-13.366v13.366H25.758z M79.449,13.123v73.755H21.338V37.058h20.965   c1.712,0,3.105-1.393,3.105-3.104V13.123H79.449z"></path></g></svg>