<svg width="401" height="241" viewBox="0 0 401 241" fill="none" xmlns="http://www.w3.org/2000/svg">
<g clip-path="url(#clip0_1380_48030)">
<path opacity="0.2" d="M210.873 224.545C244.314 239.489 331.751 256.798 359.697 197.872C403.179 106.504 338.382 15.6085 291.869 28.8503C258.429 38.4033 238.156 50.6992 207.842 26.5803C173.644 -0.754497 70.4806 -11.9154 30.409 37.8358C-4.83128 81.6282 32.872 117.665 17.7149 151.809C-37.9874 277.133 117.278 226.909 147.498 214.235C177.812 201.655 194.579 217.262 210.873 224.545Z" fill="#92D6C1"/>
<path opacity="0.2" d="M195.527 227.665C249.24 226.341 401.758 263.891 389.537 132.041C377.317 0.190559 260.702 92.7883 207.842 48.7121C154.981 4.54141 100.416 -28.4684 46.4186 36.7C-7.67329 101.868 -8.90482 110.097 14.494 156.349C37.798 202.506 38.4611 249.892 112.731 239.772C187.001 229.651 174.686 228.233 195.527 227.665Z" fill="#92D6C1"/>
<path opacity="0.3" d="M363.202 236.366C370.023 236.366 382.622 236.65 381.012 234.947C379.496 233.245 371.254 234.947 364.528 234.285C357.802 233.718 351.739 233.055 344.919 233.907C338.098 234.758 339.898 235.798 342.929 236.082C348.424 236.555 349.466 236.839 352.687 236.555C362.065 235.704 360.549 236.366 363.202 236.366Z" fill="#1BB062"/>
<path opacity="0.3" d="M354.487 234.567C372.107 234.567 404.695 235.134 400.621 232.108C396.642 229.081 375.422 232.013 357.992 231.067C340.656 230.027 324.93 228.892 307.121 230.405C289.311 231.919 294.142 233.621 302.005 234.094C316.31 234.945 318.867 235.418 327.204 234.851C351.55 233.432 347.571 234.661 354.487 234.567Z" fill="#1BB062"/>
<path opacity="0.3" d="M193.916 226.148C215.041 226.148 253.881 227 249.05 222.46C244.219 218.014 218.925 222.365 198.179 220.852C177.433 219.338 158.676 217.636 137.456 219.811C116.236 221.987 122.015 224.54 131.298 225.297C148.445 226.621 151.476 227.189 161.423 226.432C190.411 224.446 185.674 226.148 193.916 226.148Z" fill="#1BB062"/>
<path d="M165.023 189.07H208.789V218.391H165.023V189.07Z" fill="#005D92"/>
<path d="M165.023 189.07H208.789V218.391H165.023V189.07Z" fill="#15844B"/>
<path d="M152.992 222.837H220.82C220.82 220.094 219.304 217.635 216.841 216.405L208.884 212.527H165.118L157.16 216.405C154.508 217.635 152.992 220.094 152.992 222.837Z" fill="#216C2A"/>
<path d="M208.789 199.379H165.023V202.5L208.789 201.365V199.379Z" fill="#216C2A"/>
<path d="M92.2688 199.382H281.543C285.901 199.382 289.406 195.882 289.406 191.531V84.6513C289.406 80.3004 285.901 76.8008 281.543 76.8008H92.1741C87.8164 76.8008 84.3114 80.3004 84.3114 84.6513V191.531C84.4061 195.787 87.9112 199.382 92.2688 199.382Z" fill="#15844B"/>
<path d="M91.2267 87.2031H282.49V183.395H91.2267V87.2031Z" fill="#EEF9F1"/>
<path d="M91.2268 87.2037V183.49H282.49V87.2037H91.2268ZM90.2795 86.2578H91.2268H282.49H283.532V87.2982V183.49V184.531H282.49H91.2268H90.1847V183.49V87.2037V86.2578H90.2795Z" fill="#216C2A"/>
<path opacity="0.2" d="M93.5004 187.747H280.312C282.111 187.747 283.532 186.328 283.532 184.531H90.2795C90.2795 186.234 91.7005 187.747 93.5004 187.747Z" fill="#216C2A"/>
<path opacity="0.15" d="M91.3215 180.562H282.49V180.846H91.3215V180.562Z" fill="#005D92"/>
<path opacity="0.15" d="M91.3215 160.793H282.49V161.077H91.3215V160.793Z" fill="#005D92"/>
<path opacity="0.15" d="M91.3215 141.121H282.49V141.405H91.3215V141.121Z" fill="#005D92"/>
<path opacity="0.15" d="M91.3215 121.445H282.49V121.729H91.3215V121.445Z" fill="#005D92"/>
<path opacity="0.15" d="M91.3215 101.773H282.49V102.057H91.3215V101.773Z" fill="#005D92"/>
<path opacity="0.15" d="M239.956 87.207H240.24V180.561H239.956V87.207Z" fill="#005D92"/>
<path opacity="0.15" d="M218.736 87.207H219.02V180.561H218.736V87.207Z" fill="#005D92"/>
<path opacity="0.15" d="M197.421 87.207H197.705V180.561H197.421V87.207Z" fill="#005D92"/>
<path opacity="0.15" d="M176.201 87.207H176.485V180.561H176.201V87.207Z" fill="#005D92"/>
<path opacity="0.15" d="M154.887 87.207H155.171V180.561H154.887V87.207Z" fill="#005D92"/>
<path opacity="0.15" d="M133.667 87.207H133.951V180.561H133.667V87.207Z" fill="#005D92"/>
<path opacity="0.15" d="M112.352 87.207H112.636V180.561H112.352V87.207Z" fill="#005D92"/>
<path opacity="0.15" d="M261.176 87.207H261.46V180.561H261.176V87.207Z" fill="#005D92"/>
<path d="M279.589 180.688H264.242V152.501H279.589V180.688Z" fill="#5FC891"/>
<path d="M258.247 180.621H242.9V146.76H258.247V180.621Z" fill="#5FC891"/>
<path d="M236.999 180.602H221.652V138.985H236.999V180.602Z" fill="#5FC891"/>
<path d="M215.657 180.613H200.31V144.009H215.657V180.613Z" fill="#5FC891"/>
<path d="M194.409 180.629H179.062V148.376H194.409V180.629Z" fill="#5FC891"/>
<path d="M173.161 180.609H157.815V142.019H173.161V180.609Z" fill="#5FC891"/>
<path d="M151.819 180.684H136.472V135.945H151.819V180.684Z" fill="#5FC891"/>
<path d="M130.571 180.648H115.225V122.858H130.571V180.648Z" fill="#3D95D1"/>
<path d="M109.324 180.621H93.9772L93.9772 112.899H109.324L109.324 180.621Z" fill="#3D95D1"/>
<path d="M279.589 180.676H264.242V161.854H279.589V180.676Z" fill="#B0E2BB"/>
<path d="M258.247 180.684H242.9V158.078H258.247V180.684Z" fill="#B0E2BB"/>
<path d="M236.999 180.688H221.653V152.88H236.999V180.688Z" fill="#B0E2BB"/>
<path d="M215.657 180.641H200.31V156.143H215.657V180.641Z" fill="#B0E2BB"/>
<path d="M194.409 180.629H179.063V159.064H194.409V180.629Z" fill="#B0E2BB"/>
<path d="M173.162 180.637H157.815V154.815H173.162V180.637Z" fill="#B0E2BB"/>
<path d="M151.819 180.676H136.473V150.787H151.819V180.676Z" fill="#B0E2BB"/>
<path d="M130.572 180.688H115.225V142.097H130.572V180.688Z" fill="#B0E2BB"/>
<path d="M109.324 180.648H93.9774V135.343H109.324V180.648Z" fill="#B0E2BB"/>
<path d="M282.49 145.185L282.585 144.712L250.661 136.2L229.346 127.971L229.251 128.066L208.694 133.457L186.717 137.808L165.023 131.471L144.277 125.701L123.057 111.797L101.174 102.906L100.984 103.379L122.772 112.27L144.087 126.174L164.928 131.944L186.717 138.375L186.811 138.281L208.884 133.93L229.251 128.538L250.471 136.673L282.49 145.185Z" fill="#E6949E"/>
<path d="M98.5211 101.962L103.826 101.395L101.931 103.57L101.837 106.313L98.5211 101.962Z" fill="#FAA634"/>
<path opacity="0.13" d="M219.304 123.431V76.8008H280.312C285.332 76.8008 289.501 80.8679 289.501 85.9754V126.457H222.43C220.631 126.457 219.304 125.039 219.304 123.431Z" fill="#5A5A5A"/>
<path d="M228.493 120.312H323.32C325.025 120.312 326.351 118.988 326.351 117.285V60.0618C326.351 58.3593 325.025 57.0352 323.32 57.0352H228.399C226.693 57.0352 225.367 58.3593 225.367 60.0618V117.285C225.462 118.988 226.788 120.312 228.493 120.312Z" fill="white"/>
<path d="M225.462 60.0618C225.462 58.3593 226.788 57.0352 228.493 57.0352H323.32C325.025 57.0352 326.351 58.3593 326.351 60.0618V63.2777H225.367V60.0618H225.462Z" fill="#5FC891"/>
<path d="M289.689 70.2773V92.5992H312.046C312.046 104.895 302.004 114.921 289.689 114.921C277.374 114.921 267.333 104.895 267.333 92.5992C267.333 80.3032 277.374 70.2773 289.689 70.2773Z" fill="#11B2BC"/>
<path d="M312.047 92.6006H289.69L297.932 71.8867C306.268 75.1972 312.047 83.2368 312.047 92.6006Z" fill="#E6949E"/>
<path d="M297.932 71.8853L289.69 92.5992V70.2773C292.627 70.2773 295.469 70.8448 297.932 71.8853Z" fill="#B0E2BB"/>
<path d="M297.837 72.2628C295.184 71.2223 292.532 70.7494 289.69 70.7494V70.3711C292.627 70.3711 295.374 70.9386 297.932 71.979L297.837 72.2628Z" fill="#B0E2BB"/>
<path d="M289.689 70.2773V70.6557C277.564 70.6557 267.712 80.4924 267.712 92.5992C267.712 104.706 277.564 114.543 289.689 114.543C301.815 114.543 311.667 104.706 311.667 92.5992H312.046C312.046 104.895 302.005 114.921 289.689 114.921C277.374 114.921 267.333 104.895 267.333 92.5992C267.333 80.3032 277.374 70.2773 289.689 70.2773Z" fill="#11B2BC"/>
<path d="M311.668 92.6006C311.668 83.5205 306.268 75.5755 297.837 72.2651L298.026 71.8867C306.268 75.1972 312.141 83.2368 312.141 92.6006H311.668Z" fill="#E6949E"/>
<path d="M249.713 73.8711H254.355V78.5057H249.713V73.8711Z" fill="#E6949E"/>
<g opacity="0.3">
<path opacity="0.3" d="M232.851 75.1953H246.871V75.7628H232.851V75.1953Z" fill="#005D92"/>
<path opacity="0.3" d="M237.872 76.6133H246.871V77.1808H237.872V76.6133Z" fill="#005D92"/>
</g>
<path d="M249.713 80.9648H254.355V85.5995H249.713V80.9648Z" fill="#B0E2BB"/>
<g opacity="0.3">
<path opacity="0.3" d="M232.851 82.2891H246.871V82.8566H232.851V82.2891Z" fill="#005D92"/>
<path opacity="0.3" d="M237.872 83.8008H246.871V84.3683H237.872V83.8008Z" fill="#005D92"/>
</g>
<path d="M249.713 87.8711H254.355V92.5057H249.713V87.8711Z" fill="#11B2BC"/>
<g opacity="0.3">
<path opacity="0.3" d="M232.851 89.1016H246.871V89.6691H232.851V89.1016Z" fill="#005D92"/>
<path opacity="0.3" d="M237.872 90.6133H246.871V91.1808H237.872V90.6133Z" fill="#005D92"/>
</g>
<path opacity="0.2" d="M232.851 97.3281H254.355V110.286H232.851V97.3281Z" fill="#EEF9F1"/>
<path d="M280.758 94.0209C279.962 89.0698 283.336 84.4114 288.295 83.6161C293.254 82.8207 297.919 86.1896 298.716 91.1407C299.512 96.0918 296.138 100.75 291.179 101.546C286.221 102.341 281.555 98.972 280.758 94.0209Z" fill="white"/>
<path opacity="0.2" d="M87.3428 62.8997H160.002C161.234 62.8997 162.276 61.8592 162.276 60.6296V16.7427C162.276 15.5131 161.234 14.4727 160.002 14.4727H87.3428C86.1113 14.4727 85.0692 15.5131 85.0692 16.7427V60.5351C84.9745 61.8592 86.0165 62.8997 87.3428 62.8997Z" fill="#1BB062"/>
<path opacity="0.2" d="M84.9744 16.7427C84.9744 15.5131 86.0165 14.4727 87.248 14.4727H159.907C161.139 14.4727 162.181 15.5131 162.181 16.7427V19.2019H84.8797V16.7427H84.9744Z" fill="#1BB062"/>
<path d="M92.4582 57.7903H165.118C166.349 57.7903 167.391 56.7499 167.391 55.5203V11.6333C167.391 10.4037 166.349 9.36328 165.118 9.36328H92.4582C91.2267 9.36328 90.1847 10.4037 90.1847 11.6333V55.4257C90.0899 56.7499 91.132 57.7903 92.4582 57.7903Z" fill="white"/>
<path d="M90.0899 11.6333C90.0899 10.4037 91.132 9.36328 92.3635 9.36328H165.118C166.349 9.36328 167.391 10.4037 167.391 11.6333V14.1871H90.0899V11.6333Z" fill="#15844B"/>
<path d="M96.6264 35.1842L98.3316 34.9951C98.6158 34.9951 98.8053 34.8059 98.9 34.6167L99.8473 32.8196C100.131 32.2521 100.889 32.2521 101.174 32.725L101.931 33.86C102.216 34.333 102.879 34.333 103.163 33.9546L103.447 33.6709C103.731 33.2925 104.3 33.2925 104.679 33.6709L104.773 33.7655C105.152 34.2384 105.815 34.1438 106.1 33.5763L108.373 28.5633C108.657 27.9013 109.605 27.9958 109.794 28.5633L113.868 39.1567C114.057 39.6297 114.72 39.8188 115.099 39.5351L115.289 39.4405C115.668 39.1567 116.141 39.2513 116.425 39.6297L116.804 40.1972L117.562 39.4405H119.173C119.552 39.4405 119.836 39.7243 119.93 40.1026L120.12 41.2376C120.215 41.8051 120.973 42.0888 121.446 41.6159C121.825 41.2376 122.488 41.3322 122.678 41.8051L124.004 44.3589C124.193 44.7372 124.667 44.9264 125.046 44.7372L126.088 44.1697C126.277 44.0751 126.562 44.0751 126.846 44.1697L128.267 44.8318C128.551 45.021 129.025 44.9264 129.214 44.6426L129.593 44.1697C129.972 43.6968 130.635 43.7914 130.919 44.3589C131.109 44.7372 131.488 44.8318 131.867 44.7372L133.382 44.2643C133.667 44.1697 133.856 44.2643 134.046 44.3589L135.94 45.683C136.13 45.8722 136.414 45.8722 136.698 45.7776L138.024 45.3047C138.214 45.2101 138.403 45.2101 138.593 45.3047L139.824 45.7776C140.108 45.8722 140.393 45.7776 140.582 45.683L141.908 44.6426C142.192 44.4534 142.571 44.3589 142.856 44.6426L144.845 46.2505C144.845 46.2505 144.94 46.2505 144.94 46.3451L147.213 47.6693C147.403 47.7639 147.687 47.7639 147.876 47.6693L149.108 47.1018C149.203 47.1018 149.203 47.1018 149.297 47.0072L153.939 46.2505H154.034H157.35C157.444 46.2505 157.539 46.2505 157.634 46.3451L160.949 47.5747C161.234 47.6693 161.423 47.9531 161.423 48.3314V51.0743H95.9633V35.9409C95.9633 35.5626 96.2475 35.1842 96.6264 35.1842Z" fill="#5FC891"/>
<g opacity="0.3">
<path opacity="0.3" d="M96.058 45.3047H161.612V45.5884H96.058V45.3047Z" fill="#005D92"/>
<path opacity="0.3" d="M96.058 39.5352H161.612V39.8189H96.058V39.5352Z" fill="#005D92"/>
<path opacity="0.3" d="M96.058 33.8594H161.612V34.1431H96.058V33.8594Z" fill="#005D92"/>
<path opacity="0.3" d="M96.058 28.0898H161.612V28.3736H96.058V28.0898Z" fill="#005D92"/>
<path opacity="0.3" d="M96.0573 22.4141H161.612V22.6978H96.0573V22.4141Z" fill="#005D92"/>
</g>
<path d="M161.423 22.5078H161.707V51.1667H161.423V22.5078Z" fill="#2A2A28"/>
<path d="M96.058 50.9766H161.612V51.2603H96.058V50.9766Z" fill="#2A2A28"/>
<path d="M96.6264 30.9282L98.3316 30.6445C98.6158 30.6445 98.8053 30.4553 98.9 30.077L99.8473 27.807C100.131 27.1449 100.889 27.0503 101.174 27.7124L101.931 29.2257C102.216 29.7932 102.879 29.7932 103.163 29.3203L103.447 28.942C103.731 28.469 104.3 28.469 104.679 28.942L104.773 29.1311C105.152 29.6986 105.815 29.604 106.1 28.942L108.373 22.6048C108.657 21.7536 109.605 21.8482 109.794 22.6994L113.868 36.1303C114.057 36.7924 114.72 36.9816 115.099 36.6033L115.289 36.4141C115.668 36.0358 116.141 36.1303 116.425 36.6033L116.804 37.2654L117.562 36.3195H119.173C119.552 36.3195 119.836 36.6978 119.93 37.0762L120.12 38.4949C120.215 39.2516 120.973 39.5354 121.446 39.0624C121.825 38.5895 122.488 38.7787 122.678 39.3462L124.004 42.5621C124.193 43.035 124.667 43.2241 125.046 43.035L126.088 42.3729C126.277 42.1837 126.562 42.1837 126.846 42.3729L128.267 43.2241C128.551 43.4133 129.025 43.3187 129.214 42.9404L129.593 42.3729C129.972 41.8054 130.635 41.9 130.919 42.5621C131.109 43.035 131.488 43.2241 131.867 43.035L133.382 42.3729C133.667 42.2783 133.856 42.2783 134.046 42.4675L135.94 44.0754C136.13 44.2646 136.414 44.2646 136.698 44.17L138.024 43.6025C138.214 43.5079 138.403 43.5079 138.593 43.6025L139.824 44.17C140.108 44.2646 140.393 44.2646 140.582 43.9808L141.908 42.6566C142.192 42.3729 142.571 42.3729 142.856 42.6566L144.845 44.6429L144.94 44.7375L147.213 46.3454C147.403 46.5346 147.687 46.5346 147.876 46.3454L149.108 45.6833C149.203 45.6833 149.203 45.5887 149.297 45.5887L153.939 44.6429H154.034H157.35C157.444 44.6429 157.539 44.6429 157.634 44.7375L160.949 46.3454C161.234 46.5346 161.423 46.8183 161.423 47.2913V48.0479C161.423 47.7642 161.234 47.3858 160.949 47.2913L157.634 46.0617C157.539 46.0617 157.444 45.9671 157.35 45.9671H154.034H153.939L149.297 46.7238C149.203 46.7238 149.203 46.7237 149.108 46.8183L147.876 47.3858C147.687 47.4804 147.403 47.4804 147.213 47.3858L144.94 46.0617C144.94 46.0617 144.845 46.0617 144.845 45.9671L142.856 44.3592C142.571 44.17 142.192 44.17 141.908 44.3592L140.582 45.3996C140.393 45.5887 140.108 45.5887 139.824 45.4942L138.593 45.0212C138.403 44.9267 138.214 44.9267 138.024 45.0212L136.698 45.4942C136.414 45.5887 136.224 45.5887 135.94 45.3996L134.046 44.0754C133.856 43.8862 133.572 43.8862 133.382 43.9808L131.867 44.4537C131.488 44.5483 131.109 44.4537 130.919 44.0754C130.635 43.6025 129.972 43.5079 129.593 43.8862L129.214 44.3592C129.025 44.6429 128.551 44.7375 128.267 44.5483L126.846 43.8862C126.656 43.7916 126.372 43.7916 126.088 43.8862L125.046 44.4537C124.667 44.6429 124.193 44.5483 124.004 44.0754L122.678 41.5216C122.394 41.0487 121.825 40.9541 121.446 41.3325C120.973 41.7108 120.215 41.5216 120.12 40.9541L119.93 39.8191C119.836 39.4408 119.552 39.157 119.173 39.157H117.562L116.804 39.9137L116.425 39.3462C116.141 38.9679 115.668 38.8733 115.289 39.157L115.099 39.2516C114.72 39.5354 114.057 39.4408 113.868 38.8733L109.794 28.2799C109.51 27.6178 108.657 27.6178 108.373 28.2799L106.1 33.2928C105.815 33.8603 105.152 33.9549 104.773 33.482L104.679 33.3874C104.394 33.0091 103.826 33.0091 103.447 33.3874L103.163 33.6712C102.784 34.0495 102.216 34.0495 101.931 33.5766L101.174 32.4416C100.795 31.9686 100.131 31.9687 99.8473 32.5362L98.9 34.3332C98.8053 34.5224 98.521 34.7116 98.3316 34.7116L96.6264 34.9008C96.2475 34.9953 95.9633 35.2791 95.9633 35.6574V31.5903C95.9633 31.4011 96.2475 30.9282 96.6264 30.9282Z" fill="#BBE6C5"/>
<path opacity="0.13" d="M131.298 101.962C132.909 101.962 134.14 103.286 134.14 104.799V159.28C134.14 160.888 132.814 162.117 131.298 162.117H84.406V101.867H131.298V101.962Z" fill="#5A5A5A"/>
<path d="M46.7028 156.347H137.077C138.687 156.347 139.919 155.023 139.919 153.509V99.0289C139.919 97.421 138.593 96.1914 137.077 96.1914H46.7028C45.0923 96.1914 43.8608 97.5156 43.8608 99.0289V153.509C43.8608 155.117 45.0923 156.347 46.7028 156.347Z" fill="white"/>
<path d="M43.8608 99.0289C43.8608 97.421 45.1871 96.1914 46.7028 96.1914H137.077C138.687 96.1914 139.919 97.5156 139.919 99.0289V102.056H43.8608V99.0289Z" fill="#216C2A"/>
<path d="M125.709 123.812H131.962V149.066H125.709V123.812Z" fill="#5FC891"/>
<path d="M115.194 128.73H121.446V149.066H115.194V128.73Z" fill="#BBE6C5"/>
<path d="M104.679 133.836H110.931V149.064H104.679V133.836Z" fill="#5FC891"/>
<path d="M94.1635 132.609H100.416V149.067H94.1635V132.609Z" fill="#BBE6C5"/>
<path d="M83.6483 130.621H89.9006V149.16H83.6483V130.621Z" fill="#5FC891"/>
<path d="M73.133 118.609H79.3853V149.065H73.133V118.609Z" fill="#BBE6C5"/>
<path d="M62.6177 110.191H68.87V149.065H62.6177V110.191Z" fill="#5FC891"/>
<path d="M52.1026 112.367H58.3549V149.066H52.1026V112.367Z" fill="#BBE6C5"/>
<path d="M107.805 129.77H107.9L118.225 124.662L128.93 119.744L128.835 119.46L118.036 124.473L107.805 129.486L97.2896 128.256L86.5849 126.27L76.3539 114.352L65.7439 105.84L54.8498 108.015L54.9445 108.299L65.6492 106.124L76.1644 114.542L86.4902 126.459H86.5849L97.2896 128.54L107.805 129.77Z" fill="#11B2BC"/>
<path d="M129.025 120.69C129.593 120.69 130.067 120.217 130.067 119.65C130.067 119.082 129.593 118.609 129.025 118.609C128.456 118.609 127.983 119.082 127.983 119.65C127.983 120.217 128.456 120.69 129.025 120.69Z" fill="#11B2BC"/>
<path d="M118.699 125.608C119.267 125.608 119.741 125.135 119.741 124.568C119.741 124 119.267 123.527 118.699 123.527C118.131 123.527 117.657 124 117.657 124.568C117.657 125.135 118.131 125.608 118.699 125.608Z" fill="#11B2BC"/>
<path d="M107.805 130.714C108.373 130.714 108.847 130.241 108.847 129.673C108.847 129.106 108.373 128.633 107.805 128.633C107.237 128.633 106.763 129.106 106.763 129.673C106.763 130.241 107.237 130.714 107.805 130.714Z" fill="#11B2BC"/>
<path d="M97.2896 129.581C97.858 129.581 98.3317 129.108 98.3317 128.54C98.3317 127.973 97.858 127.5 97.2896 127.5C96.7212 127.5 96.2476 127.973 96.2476 128.54C96.2476 129.108 96.7212 129.581 97.2896 129.581Z" fill="#11B2BC"/>
<path d="M86.7743 127.405C87.3427 127.405 87.8164 126.932 87.8164 126.365C87.8164 125.797 87.3427 125.324 86.7743 125.324C86.2059 125.324 85.7323 125.797 85.7323 126.365C85.7323 126.932 86.2059 127.405 86.7743 127.405Z" fill="#11B2BC"/>
<path d="M76.4486 115.675C77.017 115.675 77.4907 115.202 77.4907 114.634C77.4907 114.067 77.017 113.594 76.4486 113.594C75.8802 113.594 75.4066 114.067 75.4066 114.634C75.4066 115.202 75.8802 115.675 76.4486 115.675Z" fill="#11B2BC"/>
<path d="M65.7439 107.069C66.3123 107.069 66.7859 106.596 66.7859 106.029C66.7859 105.461 66.3123 104.988 65.7439 104.988C65.1755 104.988 64.7018 105.461 64.7018 106.029C64.6071 106.596 65.1755 107.069 65.7439 107.069Z" fill="#11B2BC"/>
<path d="M55.2287 109.245C55.7971 109.245 56.2708 108.772 56.2708 108.204C56.2708 107.637 55.7971 107.164 55.2287 107.164C54.6603 107.164 54.1867 107.637 54.1867 108.204C54.0919 108.772 54.6603 109.245 55.2287 109.245Z" fill="#11B2BC"/>
<path d="M379.401 183.962L381.201 182.922L394.653 232.011C394.842 232.673 394.369 233.241 393.706 233.241C393.232 233.241 392.853 232.957 392.758 232.484L379.401 183.962Z" fill="#2A2A28"/>
<path d="M393.611 182.828L395.411 183.869L382.054 232.485C381.959 232.958 381.58 233.241 381.106 233.241C380.443 233.241 379.969 232.579 380.159 232.012L393.611 182.828Z" fill="#2A2A28"/>
<path d="M299.353 183.962L301.152 182.922L314.604 232.011C314.794 232.673 314.32 233.241 313.657 233.241C313.183 233.241 312.805 232.957 312.71 232.484L299.353 183.962Z" fill="#2A2A28"/>
<path d="M313.562 182.828L315.362 183.869L302.005 232.39C301.91 232.863 301.531 233.147 301.058 233.147C300.395 233.147 299.921 232.485 300.11 231.917L313.562 182.828Z" fill="#2A2A28"/>
<path d="M303.9 184.532H397.4C398.347 184.532 399.011 183.776 399.011 182.924C399.011 181.978 398.253 181.316 397.4 181.316H303.995V184.532H303.9Z" fill="#0C99AF"/>
<path d="M298.405 184.532H316.215C317.162 184.532 317.825 183.776 317.825 182.924C317.825 181.978 317.068 181.316 316.215 181.316H298.311C297.363 181.316 296.7 182.073 296.7 182.924C296.7 183.776 297.458 184.532 298.405 184.532Z" fill="#11B2BC"/>
<path d="M353.066 231.825H353.16V232.393H355.908L355.813 231.636H355.718L354.96 228.609L352.118 228.893L352.213 229.65L351.55 230.217L347.476 231.352C347.476 231.352 347.192 231.447 347.192 231.636V231.92V232.109C347.192 232.109 347.287 232.204 347.571 232.298H352.308L352.592 231.92L352.876 231.731L353.066 231.825Z" fill="#2A2A28"/>
<path d="M351.929 192.856L352.402 188.789L352.118 187.181L372.012 186.613L372.107 191.059L372.486 195.599L369.833 200.328L351.645 200.895L355.529 228.892L351.36 229.933L344.54 199.004L345.866 195.693L351.929 192.856Z" fill="#216C2A"/>
<path d="M327.109 232.39H327.204V232.958H329.951L329.856 232.201H329.762L329.667 229.174L326.825 228.891L326.256 230.215L325.593 230.782L321.52 231.917C321.52 231.917 321.236 232.012 321.236 232.201V232.485V232.674C321.236 232.674 321.33 232.769 321.615 232.863H326.351L326.635 232.485L326.92 232.296L327.109 232.39Z" fill="#2A2A28"/>
<path d="M351.929 192.854L352.402 189.639L351.55 187.652L373.149 188.504L372.107 191.057L372.486 195.597L371.254 198.908C370.875 199.948 369.928 200.61 368.886 200.61L332.604 202.124L330.33 229.931L326.067 229.553V200.232L327.583 197.016L351.929 192.854Z" fill="#216C2A"/>
<path d="M338.572 138.375L336.961 136.767L336.772 135.821L336.488 134.591L334.593 132.511L334.024 132.794L334.877 134.119L334.688 134.213L332.888 131.754L331.94 133.74L332.888 136.294L333.74 137.145L335.351 138.375L336.772 140.077L338.572 138.375Z" fill="#FCCA85"/>
<path d="M345.582 148.307L345.771 148.118C346.813 147.172 348.045 147.266 349.561 148.401C353.066 150.86 356.665 152.563 360.265 155.779C362.16 157.387 361.592 158.806 360.928 160.035L360.834 160.224C359.792 161.643 357.897 162.211 356.76 161.17C352.971 157.765 345.866 151.901 345.866 151.901C344.729 150.671 344.54 149.253 345.582 148.307Z" fill="#11B2BC"/>
<path d="M335.635 139.321L338.098 137.43C338.098 137.43 346.245 144.996 348.613 148.023C349.845 149.536 350.318 150.671 349.276 151.617C348.329 152.658 346.719 153.036 345.203 151.239C343.024 148.496 335.635 139.321 335.635 139.321Z" fill="#11B2BC"/>
<path d="M370.117 181.032H365.76L364.623 181.127L363.202 181.316L361.497 181.127L361.213 180.654L361.97 180.37H362.823L362.728 180.275L360.928 180.37L358.939 180.937L358.465 180.559L360.265 179.14L362.634 178.289L363.865 178.478L366.423 178.857L370.212 178.951L370.117 181.032Z" fill="#FCCA85"/>
<path d="M382.905 181.033L382.716 181.128C381.39 181.506 380.348 180.844 379.495 179.141C377.506 175.358 373.811 167.129 372.011 162.684C371.064 160.414 372.201 159.373 373.337 158.617L373.527 158.522C375.137 157.671 376.843 158.617 377.411 160.035C379.306 164.765 384.326 177.817 384.326 177.817C384.705 179.236 384.232 180.655 382.905 181.033Z" fill="#11B2BC"/>
<path d="M367.465 181.222L366.707 178.574C366.707 178.574 377.033 177.06 381.106 176.682C383.096 176.493 384.232 176.871 384.422 178.29C384.706 179.709 384.043 181.222 381.769 181.411C378.17 181.6 367.465 181.222 367.465 181.222Z" fill="#11B2BC"/>
<path d="M366.644 152.601L370.344 153.414L369.042 159.326L365.341 158.513L366.644 152.601Z" fill="#FCCA85"/>
<path d="M364.623 148.308C363.676 150.861 364.623 153.51 366.802 154.361C368.981 155.212 371.444 153.793 372.486 151.334C372.58 150.956 374.57 146.51 374.665 146.132L373.528 144.146L370.686 142.065L367.844 141.781C367.749 141.876 366.518 142.349 365.949 143.957C365.286 145.375 364.718 148.024 364.623 148.308Z" fill="#FCCA85"/>
<path d="M366.233 141.875C365.854 140.267 366.612 139.416 367.275 139.132C367.56 139.038 368.507 138.848 370.212 139.983C371.917 141.118 372.202 140.173 373.244 140.929C374.854 142.159 375.896 145.091 375.328 147.077C374.854 148.591 373.528 150.198 372.959 150.861L372.012 152.374C371.633 152.941 370.97 153.225 370.402 153.036L368.981 152.752C368.412 152.658 368.223 152.658 367.844 152.185L367.654 151.901C367.181 151.334 366.991 150.671 367.086 149.82L367.181 148.212L367.465 146.888L367.086 146.321L366.612 147.361L366.233 146.983C366.423 146.699 366.328 145.848 366.612 145.186C366.707 145.091 366.423 144.807 366.423 144.713C366.707 144.145 366.897 143.578 367.086 143.199C366.707 143.01 366.423 142.632 366.233 141.875Z" fill="#2A2A28"/>
<path opacity="0.9" d="M366.139 147.172C366.139 147.172 365.475 148.969 365.191 149.064C364.812 149.158 364.433 148.78 364.433 148.78C364.433 148.78 364.244 149.158 364.244 149.442C364.244 149.631 364.054 151.523 364.339 152.469C364.718 153.414 365.76 153.887 365.76 153.887V153.793C365.76 153.509 365.665 152.847 365.57 152.658C365.475 152.374 365.76 149.631 365.854 149.347C365.949 149.064 366.518 147.55 366.518 147.55L366.139 147.172Z" fill="#2A2A28"/>
<path d="M365.002 156.064L364.528 155.969L359.886 155.023C356.95 155.118 355.623 157.388 355.339 159.753L353.445 171.576L352.971 175.548L351.171 187.844L352.118 190.303L372.107 191.06L373.433 188.506L373.054 176.967L375.612 171.103L377.601 163.536C377.791 161.833 377.791 159.091 375.517 158.05C374.286 157.483 370.402 156.726 370.402 156.726C370.402 156.726 368.507 156.821 367.844 156.726C367.086 156.726 365.002 156.064 365.002 156.064Z" fill="#11B2BC"/>
<path d="M363.272 229.707H361.283V208.236H363.272V229.707Z" fill="#11B2BC"/>
<path d="M352.308 231.634V231.35C352.308 230.404 353.065 229.742 353.918 229.742H370.591C371.538 229.742 372.201 230.499 372.201 231.35V231.634H352.308Z" fill="#2A2A28"/>
<path d="M368.317 233.428C368.317 232.104 369.454 230.969 370.78 230.969C372.107 230.969 373.243 232.104 373.243 233.428C373.243 234.752 372.107 235.887 370.78 235.887C369.454 235.887 368.317 234.752 368.317 233.428Z" fill="#11B2BC"/>
<path d="M369.265 233.432C369.265 232.581 369.928 231.824 370.875 231.824C371.728 231.824 372.486 232.486 372.486 233.432C372.486 234.283 371.822 235.04 370.875 235.04C369.928 234.945 369.265 234.283 369.265 233.432Z" fill="#2A2A28"/>
<path d="M359.697 233.428C359.697 232.104 360.833 230.969 362.16 230.969C363.486 230.969 364.623 232.104 364.623 233.428C364.623 234.752 363.486 235.887 362.16 235.887C360.833 235.887 359.697 234.752 359.697 233.428Z" fill="#11B2BC"/>
<path d="M351.171 233.428C351.171 232.104 352.308 230.969 353.634 230.969C354.96 230.969 356.097 232.104 356.097 233.428C356.097 234.752 354.96 235.887 353.634 235.887C352.213 235.887 351.171 234.752 351.171 233.428Z" fill="#11B2BC"/>
<path d="M360.739 233.432C360.739 232.581 361.402 231.824 362.349 231.824C363.202 231.824 363.96 232.486 363.96 233.432C363.96 234.283 363.297 235.04 362.349 235.04C361.402 234.945 360.739 234.283 360.739 233.432Z" fill="#2A2A28"/>
<path d="M352.023 233.432C352.023 232.581 352.687 231.824 353.634 231.824C354.486 231.824 355.244 232.486 355.244 233.432C355.244 234.283 354.581 235.04 353.634 235.04C352.781 234.945 352.023 234.283 352.023 233.432Z" fill="#2A2A28"/>
<path d="M360.17 229.741H364.339V222.268C364.339 221.89 364.054 221.512 363.581 221.512H360.834C360.455 221.512 360.076 221.795 360.076 222.268V229.741H360.17Z" fill="#2A2A28"/>
<path opacity="0.9" d="M361.781 210.258H362.254V221.419H361.781V210.258Z" fill="#2A2A28"/>
<path d="M352.213 206.949C352.213 206.949 361.591 214.894 372.296 206.57L352.213 206.949Z" fill="#2A2A28"/>
<path d="M374.664 206.477L343.498 207.044C341.414 207.044 339.708 205.626 339.708 203.923V203.734C339.708 202.031 341.035 201.464 343.213 201.464L374.759 200.234C376.843 200.234 378.548 201.653 378.548 203.356C378.548 205.153 376.749 206.477 374.664 206.477Z" fill="#E6949E"/>
<g opacity="0.3">
<path opacity="0.3" d="M339.708 203.83C339.708 202.127 341.035 201.56 343.213 201.56L369.738 200.52C369.738 200.52 369.833 200.992 367.654 201.087C365.475 201.182 355.623 201.938 354.013 201.938C352.308 201.938 346.245 202.411 344.54 202.6C342.835 202.79 340.466 203.073 339.803 204.398C339.803 204.303 339.708 204.114 339.708 204.019V203.83V203.83Z" fill="#BB7D27"/>
</g>
<path opacity="0.3" d="M374.854 170.344C374.854 170.344 370.97 169.871 369.17 169.682C366.802 169.493 360.36 168.452 359.128 172.33C357.897 175.924 358.371 179.519 357.707 184.532C357.139 189.545 357.044 192.098 357.613 193.99C358.181 195.882 362.823 196.165 365.57 196.165C370.78 196.071 372.201 196.26 373.054 194.841C374.38 192.571 375.612 185.099 376.275 182.829C377.033 180.464 380.254 172.141 374.854 170.344Z" fill="#005D92"/>
<path d="M370.78 195.787L363.012 195.882C362.633 195.882 362.255 195.882 361.97 195.787L359.413 195.22C359.318 195.22 359.223 195.22 359.223 195.125C358.371 194.558 358.181 193.328 358.181 191.625C358.276 188.599 359.128 184.532 359.602 181.978L360.17 174.411C360.834 170.344 362.349 169.871 367.465 169.871L375.801 170.533C380.064 171.29 380.538 174.033 379.875 178.1L377.601 185.477C376.749 189.45 375.612 195.787 370.78 195.787Z" fill="#E6949E"/>
<path d="M359.507 181.884L360.076 174.317C360.739 170.25 362.255 169.777 367.37 169.777L375.422 170.345C376.18 170.439 376.843 170.629 377.412 170.818C378.833 171.385 379.496 172.237 378.738 172.047C378.643 172.047 377.696 171.102 375.612 170.818C371.728 170.439 367.181 170.061 365.57 170.534C364.244 170.912 363.676 172.047 363.297 174.223L362.728 181.79C362.349 184.154 361.118 188.789 361.118 191.91C361.118 194.275 362.16 195.693 362.444 195.693L359.413 195.031C359.318 195.031 359.318 195.031 359.223 194.937C356.95 193.707 358.749 185.951 359.507 181.884Z" fill="#DC8B95"/>
<path d="M366.991 208.272L365.854 208.177L369.644 181.41L370.78 181.505L366.991 208.272Z" fill="#2A2A28"/>
<path d="M316.973 179.708H338.477L334.782 167.98C334.688 167.696 334.498 167.602 334.214 167.602H313.941C313.562 167.602 313.278 167.98 313.373 168.358L316.973 179.708Z" fill="#2A2A28"/>
<path d="M317.541 178.571H337.34L334.119 168.262H314.226L317.541 178.571Z" fill="white"/>
<path opacity="0.7" d="M317.541 178.571H337.34L334.119 168.262H314.226L317.541 178.571Z" fill="#E7F6EB"/>
<path d="M317.257 181.22H349.466C349.845 181.22 350.129 180.937 350.129 180.558V179.707H316.973V180.937C316.973 181.126 317.068 181.22 317.257 181.22Z" fill="#2A2A28"/>
<path d="M317.257 181.22H331.183C331.562 181.22 331.846 180.937 331.846 180.558V179.707H316.973V180.937C316.973 181.126 317.068 181.22 317.257 181.22Z" fill="#484845"/>
<path d="M317.234 174.511L317.992 174.7C318.087 174.7 318.56 174.605 318.655 174.511L318.939 174.038C319.034 173.943 319.224 173.849 319.318 174.038L319.603 174.322C319.697 174.416 319.887 174.416 319.981 174.322L320.076 174.227C320.171 174.132 320.36 174.132 320.455 174.227C320.55 174.322 320.739 174.322 320.834 174.227L321.497 172.997C321.592 172.808 321.876 172.808 321.971 172.997L323.202 175.646C323.297 175.74 323.487 175.835 323.581 175.74C323.676 175.646 323.865 175.646 323.96 175.74L324.055 175.835L324.244 175.646H324.718C324.813 175.646 324.908 175.74 324.908 175.835L325.002 176.119C325.002 176.308 325.286 176.308 325.381 176.213C325.476 176.119 325.665 176.119 325.76 176.308L326.139 176.97C326.234 177.064 326.328 177.064 326.423 177.064L326.707 176.97C326.802 176.97 326.897 176.97 326.897 176.97L327.276 177.159C327.371 177.159 327.465 177.159 327.56 177.064L327.655 176.97C327.749 176.875 327.939 176.875 328.034 176.97C328.128 177.064 328.223 177.064 328.318 177.064L328.792 176.97C328.886 176.97 328.981 176.97 328.981 176.97L329.549 177.254C329.644 177.254 329.644 177.254 329.739 177.254L330.118 177.159C330.212 177.159 330.212 177.159 330.307 177.159L330.686 177.254C330.781 177.254 330.876 177.254 330.876 177.254L331.255 176.97C331.349 176.875 331.444 176.875 331.539 176.97L332.107 177.348L332.77 177.632C332.865 177.632 332.96 177.632 332.96 177.632L333.339 177.537C333.339 177.537 333.339 177.537 333.433 177.537L334.854 177.348H335.802H335.896L336.844 177.632C336.938 177.632 337.033 177.727 337.033 177.821L337.223 178.578H317.424L316.287 174.984C316.571 174.984 317.139 174.511 317.234 174.511Z" fill="#B0E2BB"/>
</g>
<defs>
<clipPath id="clip0_1380_48030">
<rect width="401" height="241" fill="white" transform="matrix(-1 0 0 1 401 0)"/>
</clipPath>
</defs>
</svg>
