<!-- <svg width="18" height="18" viewBox="0 0 18 18" -->
<!-- <svg width="12" height="12" viewBox="-4 -2 24 24" fill="none" xmlns="http://www.w3.org/2000/svg">
  <path d="M17.6977 8.04672L9.62169 0.687896C9.26721 0.364846 8.73266 0.364882 8.37832 0.687861L0.302275 8.04675C0.0183179 8.3055 -0.0754788 8.70417 0.0632475 9.06238C0.202009 9.42058 0.53986 9.65202 0.924012 9.65202H2.21389V17.025C2.21389 17.3173 2.45092 17.5544 2.74324 17.5544H7.1699C7.46222 17.5544 7.69925 17.3174 7.69925 17.025V12.5484H10.3009V17.025C10.3009 17.3174 10.5379 17.5544 10.8302 17.5544H15.2567C15.549 17.5544 15.786 17.3174 15.786 17.025V9.65202H17.0761C17.4603 9.65202 17.7981 9.42055 17.9369 9.06238C18.0755 8.70414 17.9817 8.3055 17.6977 8.04672Z" fill="#666666" />
</svg> -->
<svg width="18" height="18" viewBox="-4 -2 24 24" fill="none" xmlns="http://www.w3.org/2000/svg">
  <g clip-path="url(#clip0_5368_57125)">
  <path d="M17.6977 8.04672L9.62169 0.687896C9.26721 0.364846 8.73266 0.364882 8.37832 0.687861L0.302275 8.04675C0.0183179 8.3055 -0.0754788 8.70417 0.0632475 9.06238C0.202009 9.42058 0.53986 9.65202 0.924012 9.65202H2.21389V17.025C2.21389 17.3173 2.45092 17.5544 2.74324 17.5544H7.1699C7.46222 17.5544 7.69925 17.3174 7.69925 17.025V12.5484H10.3009V17.025C10.3009 17.3174 10.5379 17.5544 10.8302 17.5544H15.2567C15.549 17.5544 15.786 17.3174 15.786 17.025V9.65202H17.0761C17.4603 9.65202 17.7981 9.42055 17.9369 9.06238C18.0755 8.70414 17.9817 8.3055 17.6977 8.04672Z" fill="#666666"/>
  <path d="M15.6477 1.50223H12.0928L16.1771 5.21598V2.03154C16.1771 1.73922 15.9401 1.50223 15.6477 1.50223Z" fill="#666666"/>
  </g>
  <defs>
  <clipPath id="clip0_5368_57125">
  <rect width="18" height="18" fill="white"/>
  </clipPath>
  </defs>
  </svg>