<svg width="24" height="24" viewBox="0 0 24 24" fill="none" xmlns="http://www.w3.org/2000/svg">
  <path d="M12 2C9.24889 2 7 4.24889 7 7C7 9.75111 9.24889 12 12 12C14.7511 12 17 9.75111 17 7C17 4.24889 14.7511 2 12 2Z" fill="#666666" />
  <path d="M20.9615 16.0876C20.8247 15.7196 20.6423 15.3762 20.4372 15.0572C19.3884 13.389 17.7697 12.285 15.9457 12.0151C15.7177 11.9906 15.4669 12.0397 15.2845 12.1869C14.327 12.9474 13.187 13.3399 12.0014 13.3399C10.8158 13.3399 9.67587 12.9474 8.71829 12.1869C8.53588 12.0397 8.28508 11.9661 8.05711 12.0151C6.23316 12.285 4.59163 13.389 3.56567 15.0572C3.36047 15.3762 3.17806 15.7442 3.04129 16.0876C2.97291 16.2348 2.99569 16.4065 3.06407 16.5538C3.24649 16.8972 3.47446 17.2407 3.67965 17.5351C3.99883 18.0012 4.34083 18.4182 4.72844 18.8108C5.04761 19.1542 5.41239 19.4731 5.77722 19.7921C7.57835 21.2395 9.7443 22 11.9786 22C14.213 22 16.3789 21.2395 18.18 19.7921C18.5448 19.4977 18.9096 19.1542 19.2288 18.8108C19.5936 18.4182 19.9584 18.0012 20.2776 17.5351C20.5056 17.2161 20.7108 16.8972 20.8932 16.5538C21.0071 16.4065 21.0299 16.2348 20.9615 16.0876Z" fill="#666666" />
</svg>