<svg width="344" height="235" viewBox="0 0 344 235" fill="none" xmlns="http://www.w3.org/2000/svg">
<path opacity="0.2" d="M169.009 204.618C142.913 220.045 72.6522 242.429 44.1986 196.417C-0.0439756 125.086 44.7592 44.1055 84.2239 50.7146C112.6 55.4933 130.407 63.7554 153.08 41.0506C178.647 15.3331 262.405 -3.43865 299.972 33.8816C333.013 66.735 305.376 99.9549 321.011 126.713C378.458 224.918 246.161 197.889 220.143 190.237C194.055 182.672 181.724 197.1 169.009 204.618Z" fill="#92D6C1"/>
<path opacity="0.2" d="M181.718 205.541C137.465 209.429 15.6457 254.484 13.4382 144.783C11.2307 35.0822 115.642 100.521 154.977 59.3284C194.303 18.0579 236.067 -14.1805 286.484 34.4759C336.979 83.1236 338.755 89.7853 323.828 130.039C308.969 170.205 312.826 209.286 250.866 207.836C188.907 206.386 198.893 204.077 181.718 205.541Z" fill="#92D6C1"/>
<path opacity="0.3" d="M251 178.5C251 174.908 207.796 172 154.5 172C101.204 172 58 174.915 58 178.5C58 182.085 101.204 185 154.5 185C207.796 185 251 182.085 251 178.5Z" fill="#92D6C1"/>
<g opacity="0.5">
<path d="M306 145.5C306 147.987 291.897 150 274.5 150C257.103 150 243 147.982 243 145.5C243 143.018 257.103 141 274.5 141C291.897 141 306 143.018 306 145.5Z" fill="#9BD9C3"/>
<path d="M303.559 103.695C303.267 105.292 298.021 114.542 294.779 120.727C292.242 125.572 292.785 130.17 293.14 131.945H293.761C293.391 129.805 293.239 130.134 293.777 126.798C294.367 123.139 300.088 120.597 303.679 113.539C307.276 106.487 303.857 102.097 303.559 103.689V103.695Z" fill="#60C3A0"/>
<path d="M291.501 128.15C291.684 129.904 291.83 131.115 291.893 131.945H292.206C292.31 128.97 292.493 123.828 292.373 120.393C292.195 115.335 293.584 113.252 294.367 104.723C295.15 96.1936 292.942 84.125 292.942 84.125C292.942 84.125 287.643 94.9565 289.491 107.015C291.339 119.073 290.692 120.414 291.496 128.15H291.501Z" fill="#60C3A0"/>
<path d="M290.003 126.455C290.04 128.366 290.363 130.705 290.562 131.952H290.896C290.838 131.07 290.776 129.447 290.708 126.565C290.504 117.832 289.612 117.931 288.098 112.09C286.589 106.249 284.152 103.822 281.63 100.883C281.63 100.883 279.026 105.08 282.706 111.318C286.386 117.555 287.842 117.989 288.709 121.058C289.575 124.127 289.946 123.715 290.003 126.455Z" fill="#60C3A0"/>
<path d="M289.142 131.944H289.507C289.685 130.748 289.7 128.963 288.719 127.298C287.043 124.458 285.733 120.71 283.149 118.236C279.615 114.853 277.157 106.402 277.157 106.402C277.157 106.402 275.298 113.909 278.895 119.859C282.492 125.81 285.498 126.933 287.101 127.909C288.818 128.947 289.152 130.691 289.142 131.944Z" fill="#60C3A0"/>
<path d="M291.914 131.945H291.971L292.248 130.786C292.352 127.759 292.483 123.416 292.373 120.393C292.196 115.335 293.584 113.252 294.367 104.723C295.15 96.1936 292.942 84.125 292.942 84.125C292.942 84.125 290.927 100.944 291.48 108.659C291.997 115.795 291.919 129.878 291.903 131.945H291.914Z" fill="#40AA85"/>
<path d="M303.758 103.384C303.81 105.655 303.627 113.37 299.086 117.478C293.819 122.233 292.144 127.485 293.71 131.948H293.757C293.386 129.808 293.235 130.136 293.772 126.801C294.362 123.142 300.083 120.6 303.674 113.542C306.874 107.268 304.525 103.107 303.758 103.384Z" fill="#40AA85"/>
<path d="M290.718 131.944H290.896C290.838 131.062 290.776 129.439 290.708 126.557C290.504 117.824 289.612 117.923 288.098 112.082C286.589 106.241 284.151 103.814 281.63 100.875C281.63 100.875 281.526 106.68 285.289 112.26C289.053 117.84 290.097 121.953 290.201 123.498C290.29 124.772 290.609 130.112 290.723 131.944H290.718Z" fill="#40AA85"/>
<path d="M289.22 131.944H289.507C289.685 130.748 289.7 128.963 288.719 127.298C287.043 124.458 285.733 120.71 283.149 118.236C279.615 114.853 277.157 106.402 277.157 106.402C277.157 106.402 277.272 115.971 280.059 118.758C282.847 121.551 282.779 120.742 284.94 123.498C287.101 126.254 287.764 127.021 288.599 128.713C289.137 129.793 289.225 131.124 289.225 131.944H289.22Z" fill="#40AA85"/>
<path d="M296.085 130.406H286.313C285.316 130.406 284.564 131.315 284.752 132.291L286.668 142.308C286.809 143.054 287.466 143.597 288.229 143.597H294.169C294.931 143.597 295.584 143.054 295.73 142.308L297.645 132.291C297.833 131.309 297.082 130.406 296.085 130.406Z" fill="#DBE6ED"/>
<path d="M297.625 131.612C297.457 130.928 296.842 130.406 296.085 130.406H286.313C285.556 130.406 284.94 130.933 284.773 131.612H297.625Z" fill="#B4CEDB"/>
<path d="M296.084 130.406H293.918C294.915 130.406 295.666 131.315 295.478 132.291L293.563 142.308C293.422 143.054 292.764 143.597 292.002 143.597H294.168C294.93 143.597 295.583 143.054 295.729 142.308L297.645 132.291C297.833 131.309 297.081 130.406 296.084 130.406Z" fill="#B4CEDB"/>
</g>
<path d="M254.048 122.996H285V146.87H254.048V122.996Z" fill="#77C5AA"/>
<path opacity="0.3" d="M254 123.07H261.928V146.853H254V123.07Z" fill="#4AAB89"/>
<path d="M272.041 123.055H275.557V128.148H272.041V123.055Z" fill="#69BDA0"/>
<path d="M272.041 141.703H275.557V146.797H272.041V141.703Z" fill="#69BDA0"/>
<g opacity="0.65" clip-path="url(#clip0_8794_65588)">
<path d="M78.1814 95.438C76.117 97.5374 77.3267 70.1951 85.6242 71.0182C93.9217 71.8413 79.6779 93.9142 78.1814 95.438Z" fill="#60C3A0"/>
<path d="M78.8488 113.103C79.3883 116.278 65.0481 97.2616 68.5522 94.1639C72.0563 91.0662 77.7584 106.677 78.8488 113.103Z" fill="#60C3A0"/>
<path d="M80.7205 111.834C79.1473 107.635 78.8633 102.221 80.8909 97.0133C82.9184 91.8051 86.255 88.7353 87.6351 89.2664C89.0151 89.7947 87.3795 95.1086 84.9771 102.227C82.5748 109.346 80.7233 111.837 80.7233 111.837L80.7205 111.834Z" fill="#60C3A0"/>
<path d="M70.8893 116.82C71.7128 113.255 81.2882 121.166 83.2731 125.454C85.2608 129.742 85.9395 132.328 78.068 127.317C70.1965 122.306 70.5429 118.31 70.8893 116.82Z" fill="#60C3A0"/>
<path d="M85.1981 128.331C83.8862 126.365 83.0428 118.095 84.8886 113.085C86.7344 108.077 88.7505 105.307 90.5906 106.517C92.4307 107.729 90.8831 114.233 89.3043 119.561C87.7282 124.888 87.1206 131.209 85.1981 128.331Z" fill="#60C3A0"/>
<path d="M75.7678 132.598C76.0035 129.781 86.1467 135.342 88.356 138.91C90.5624 142.474 90.1279 142.905 87.453 141.493C84.778 140.083 75.41 136.86 75.7678 132.598Z" fill="#60C3A0"/>
<path d="M93.7741 149.813C92.6638 147.527 79.7064 141.557 79.2521 143.918C78.7977 146.276 96.8693 156.197 93.7741 149.813Z" fill="#60C3A0"/>
<path d="M90.8775 142.277C87.6886 141.924 85.8144 122.081 93.3282 122.507C100.845 122.935 93.2061 142.536 90.8775 142.277Z" fill="#60C3A0"/>
<path d="M101.478 159.215C101.348 159.232 101.209 159.198 101.095 159.109C100.678 158.781 90.7587 150.72 81.6235 120.319C76.8443 104.416 77.2618 93.8305 78.4544 87.7492C79.7607 81.0895 82.2028 78.2504 82.305 78.1337C82.4867 77.9251 82.8076 77.9029 83.0206 78.0808C83.2336 78.2588 83.2563 78.573 83.0745 78.7816C83.0518 78.8094 80.6722 81.5984 79.4313 88.0384C78.2812 94.0001 77.895 104.391 82.5975 120.038C91.6219 150.069 101.629 158.253 101.731 158.334C101.95 158.506 101.984 158.82 101.808 159.031C101.723 159.137 101.603 159.198 101.478 159.212V159.215Z" fill="#40AA85"/>
<path d="M80.8026 115.695C80.6578 115.714 80.5101 115.67 80.3966 115.573C76.1995 111.905 70.2221 98.897 69.9693 98.3437C69.8557 98.0934 69.9693 97.7986 70.2249 97.6874C70.4805 97.5762 70.7815 97.6874 70.8979 97.9377C70.9547 98.06 76.1797 109.436 80.1552 113.907C80.0047 106.33 83.8695 96.1108 84.0427 95.6548C84.1421 95.3989 84.4345 95.2682 84.6958 95.3628C84.957 95.4601 85.0905 95.7465 84.994 96.0023C84.9485 96.1191 80.5584 107.731 81.2371 115.156C81.2541 115.359 81.1462 115.553 80.9588 115.645C80.9077 115.67 80.8537 115.687 80.7969 115.695H80.8026Z" fill="#40AA85"/>
<path d="M85.1981 129.878C85.1442 129.887 85.0902 129.884 85.0363 129.875C78.576 128.649 72.6071 119.512 72.3543 119.123C72.2038 118.892 72.2748 118.583 72.5134 118.436C72.7491 118.291 73.0643 118.358 73.2148 118.591C73.2716 118.68 78.7748 127.1 84.5706 128.741C84.386 123.855 87.7283 111.031 87.8788 110.461C87.9469 110.194 88.2252 110.033 88.4978 110.102C88.7704 110.172 88.9323 110.441 88.8641 110.705C88.8272 110.853 85.0561 125.323 85.6411 129.314C85.6638 129.472 85.607 129.633 85.4878 129.745C85.4083 129.82 85.3089 129.864 85.2038 129.878H85.1981Z" fill="#40AA85"/>
<path d="M90.2161 142.099C90.1252 142.11 90.0315 142.099 89.9435 142.06C86.3655 140.512 79.3799 135.584 79.0818 135.376C78.8546 135.214 78.8035 134.903 78.9682 134.681C79.1329 134.458 79.4509 134.408 79.6781 134.569C79.7463 134.617 85.9112 138.966 89.5743 140.787C89.5062 137.005 91.4542 127.996 91.545 127.579C91.6018 127.309 91.8744 127.137 92.147 127.195C92.4225 127.253 92.5957 127.518 92.5389 127.784C92.5162 127.893 90.165 138.765 90.6505 141.518C90.6818 141.699 90.6108 141.882 90.4631 141.996C90.3893 142.052 90.3041 142.085 90.2161 142.097V142.099Z" fill="#40AA85"/>
</g>
<path d="M97.3767 100H141.353V133.917H97.3767V100Z" fill="#40AA85"/>
<path d="M97.3865 100.277H106.174V134.041H97.3865V100.277Z" fill="#3C9F7D"/>
<path d="M141.353 100L133.231 107.576H89.9995L97.3767 100H141.353Z" fill="#5CC29E"/>
<path d="M141.251 100.375L133.477 110.236H97.3769V107.576H133.231L141.251 100.375Z" fill="#3B9C7A"/>
<path d="M141.353 100L150.382 107.576H141.353V100Z" fill="#389474"/>
<path d="M92.203 133.918H144.61V174.34H92.203V133.918Z" fill="#3C9F7D"/>
<path opacity="0.3" d="M92.1214 134.047H105.544V174.316H92.1214V134.047Z" fill="#2D775D"/>
<path d="M122.668 134.02H128.622V142.644H122.668V134.02Z" fill="#328669"/>
<path d="M122.668 165.594H128.622V174.218H122.668V165.594Z" fill="#328669"/>
<path fill-rule="evenodd" clip-rule="evenodd" d="M191.992 86.0842C189.91 87.3337 187.865 87.9374 186.905 87.6909C184.497 87.073 184.276 78.303 186.139 74.8456C188.002 71.3882 197.578 69.8813 198.061 76.7315C198.228 79.109 197.226 81.2307 195.744 82.9621L198.4 95.2894H190.685L191.992 86.0842Z" fill="#57331F"/>
<path fill-rule="evenodd" clip-rule="evenodd" d="M196.338 84.5026C197.306 80.2129 200.064 77.2888 199.643 75.3716C199.222 73.4543 197.397 72.987 197.397 72.987C197.397 72.987 196.454 69.1858 191.311 69.7534C186.168 70.321 183.029 72.4478 184.384 77.1277C185.63 77.1277 187.135 76.6789 189.215 77.4478C190.205 77.8137 190.631 79.7173 190.631 79.7173H191.571C191.571 79.7173 192.94 77.4582 194.27 78.057C195.6 78.6558 194.874 80.9658 194.874 80.9658L195.337 84.5026H196.338Z" fill="#191847"/>
<path fill-rule="evenodd" clip-rule="evenodd" d="M198.569 115.289L186.386 147.511L177.847 171.261H172.978L184.716 115.289L198.569 115.289Z" fill="#191847"/>
<path fill-rule="evenodd" clip-rule="evenodd" d="M201.579 115.289C201.712 126.345 201.616 141.231 201.925 141.92C202.233 142.609 221.119 157.625 221.119 157.625L218.609 161.89C218.609 161.89 196.188 147.437 195.041 145.512C193.895 143.586 188.136 125.866 185.14 115.289H201.579Z" fill="#2F3676"/>
<path fill-rule="evenodd" clip-rule="evenodd" d="M225.533 160.497L221.295 157.272L217.875 161.346C217.48 165.954 214.822 171.681 214.822 171.681L215.599 172.332L221.788 164.959L223.517 162.111L223.905 162.437L225.533 160.497Z" fill="#191847"/>
<path fill-rule="evenodd" clip-rule="evenodd" d="M178.299 175.823L178.045 170.504L172.725 170.504C168.94 173.163 162.843 174.809 162.843 174.809V175.823H172.471L175.765 175.316V175.823H178.299Z" fill="#191847"/>
<path fill-rule="evenodd" clip-rule="evenodd" d="M169.005 117.987L177.088 112.055L178.874 116.469L170.871 119.787C168.607 122.445 167.342 123.553 167.074 123.111C166.848 122.738 167.024 122.389 167.187 122.068C167.314 121.818 167.432 121.584 167.345 121.369C167.146 120.878 165.626 120.93 164.185 121.04C162.744 121.151 163.164 120.51 163.511 120.194C164.982 119.314 166.813 118.578 169.005 117.987ZM211.39 128.441C210.647 126.936 208.119 112.261 208.119 112.261L202.824 112.281C202.824 112.281 207.728 128.106 208.119 129.074C208.626 130.332 207.764 132.159 207.179 133.398C207.089 133.59 207.005 133.768 206.934 133.927C207.745 134.29 208.135 133.851 208.546 133.389C209.01 132.866 209.501 132.314 210.657 132.851C211.104 133.059 211.527 133.305 211.94 133.544C213.366 134.373 214.677 135.135 216.459 134.035C216.742 133.861 217.052 133.205 216.303 132.692C214.439 131.414 211.753 129.178 211.39 128.441Z" fill="#57331F"/>
<path fill-rule="evenodd" clip-rule="evenodd" d="M193.071 90.0473L190.88 89.6717C182.751 96.6911 179.412 110.176 169.448 117.32L171.847 120.291C189.133 118.152 193.417 101.703 193.071 90.0473Z" fill="#D2743E"/>
<path fill-rule="evenodd" clip-rule="evenodd" d="M202.623 117.572C202.623 117.572 189.445 117.572 183.237 117.572C182.351 117.572 182.518 116.293 182.646 115.648C184.124 108.202 189.893 100.175 189.893 89.5757L195.485 88.6992C200.11 96.1347 201.709 105.289 202.623 117.572Z" fill="#DDE3E9"/>
<path fill-rule="evenodd" clip-rule="evenodd" d="M201.879 95.9198C202.897 95.8474 203.816 95.4219 204.396 94.3744C206.44 90.6881 205.702 88.6585 203.518 87.9913C202.317 87.6245 201.187 87.8749 199.835 88.1746C198.728 88.42 197.472 88.6984 195.906 88.6984C195.75 88.6984 195.609 88.7091 195.481 88.7295L193.635 88.8348C193.635 88.8348 186.101 114.357 189.48 122.89H204.802C205.673 124.982 206.528 126.807 207.333 128.209H211.49C211.938 113.752 206.462 102.627 201.879 95.9198Z" fill="#E88A54"/>
<path fill-rule="evenodd" clip-rule="evenodd" d="M204.803 122.893C203.66 120.148 202.487 116.945 201.359 113.637C200.939 117.28 200.24 120.939 199.076 122.893H204.803Z" fill="black" fill-opacity="0.1"/>
<g clip-path="url(#clip1_8794_65588)">
<circle r="11.0747" transform="matrix(-0.978121 -0.208037 -0.208037 0.978121 154.532 96.2511)" fill="white" fill-opacity="0.2"/>
<path d="M166.269 97.9169C166.595 95.501 166.2 92.9652 164.973 90.6508C163.461 87.8027 160.929 85.7113 157.848 84.7663C154.763 83.8215 151.496 84.1324 148.648 85.6442C142.768 88.7649 140.521 96.0878 143.642 101.972C145.154 104.82 147.685 106.911 150.767 107.856C153.851 108.801 157.118 108.49 159.966 106.978C163.536 105.084 165.763 101.644 166.269 97.9169ZM143.145 94.8154C143.617 91.3383 145.696 88.1274 149.027 86.3598C151.685 84.9484 154.734 84.6577 157.611 85.5404C160.488 86.4231 162.849 88.3717 164.26 91.0295C165.671 93.6874 165.962 96.7365 165.08 99.6134C164.197 102.49 162.248 104.851 159.59 106.262C156.933 107.674 153.883 107.965 151.006 107.082C148.13 106.199 145.769 104.251 144.357 101.593C143.212 99.4346 142.843 97.0696 143.148 94.8152L143.145 94.8154Z" fill="#455A64"/>
<path d="M141.666 96.989C141.761 98.8051 142.251 100.592 143.129 102.244C144.715 105.232 147.365 107.422 150.598 108.411C153.831 109.404 157.255 109.076 160.242 107.49C163.831 105.583 166.301 102.034 166.849 97.9926C167.204 95.3591 166.737 92.7249 165.49 90.3766C163.904 87.3894 161.254 85.1991 158.021 84.2095C154.788 83.217 151.364 83.5448 148.377 85.131C145.396 86.7139 143.205 89.3674 142.213 92.6032C141.769 94.0477 141.59 95.5279 141.666 96.9919L141.666 96.989ZM164.983 95.7466C165.048 96.9807 164.897 98.2259 164.523 99.442C163.685 102.171 161.838 104.409 159.316 105.747C156.794 107.084 153.905 107.36 151.176 106.522C148.448 105.687 146.209 103.837 144.872 101.316C143.82 99.3337 143.423 97.1101 143.725 94.8881C144.188 91.4756 146.273 88.4775 149.3 86.8717C151.821 85.5346 154.711 85.258 157.44 86.096C160.168 86.931 162.407 88.7809 163.744 91.3025C164.485 92.6996 164.9 94.213 164.98 95.7468L164.983 95.7466Z" fill="#2F3676"/>
<path d="M167.621 125.027L167.877 124.905C168.427 124.649 168.73 124.131 168.549 123.749L160.46 106.504C160.42 106.419 160.288 106.397 160.165 106.456L158.359 107.303C158.237 107.362 158.17 107.476 158.209 107.562L166.299 124.804C166.479 125.185 167.068 125.286 167.621 125.027Z" fill="#2F3676"/>
</g>
<path fill-rule="evenodd" clip-rule="evenodd" d="M167.505 121.353C167.704 121.844 166.832 122.432 167.234 123.095C167.502 123.536 168.768 122.429 171.031 119.771C169.033 119.157 168.03 119.157 167.505 121.353Z" fill="#57331F"/>
<defs>
<clipPath id="clip0_8794_65588">
<rect width="34.0143" height="83.8491" fill="white" transform="translate(68 71)"/>
</clipPath>
<clipPath id="clip1_8794_65588">
<rect width="42.148" height="25.4922" fill="white" transform="matrix(-0.0522076 -0.998636 -0.998636 0.0522076 168.658 125.09)"/>
</clipPath>
</defs>
</svg>
