<svg width="401" height="241" viewBox="0 0 401 241" fill="none" xmlns="http://www.w3.org/2000/svg">
<g clip-path="url(#clip0_1380_48030)">
<path opacity="0.2" d="M210.873 224.545C244.314 239.489 331.751 256.798 359.697 197.872C403.179 106.504 338.382 15.6085 291.869 28.8503C258.429 38.4033 238.156 50.6992 207.842 26.5803C173.644 -0.754497 70.4806 -11.9154 30.409 37.8358C-4.83128 81.6282 32.872 117.665 17.7149 151.809C-37.9874 277.133 117.278 226.909 147.498 214.235C177.812 201.655 194.579 217.262 210.873 224.545Z" fill="#92D6C1"/>
<path opacity="0.2" d="M195.527 227.665C249.24 226.341 401.758 263.891 389.537 132.041C377.317 0.190559 260.702 92.7883 207.842 48.7121C154.981 4.54141 100.416 -28.4684 46.4186 36.7C-7.67329 101.868 -8.90482 110.097 14.494 156.349C37.798 202.506 38.4611 249.892 112.731 239.772C187.001 229.651 174.686 228.233 195.527 227.665Z" fill="#92D6C1"/>
<path opacity="0.3" d="M363.202 236.366C370.023 236.366 382.622 236.65 381.012 234.947C379.496 233.245 371.254 234.947 364.528 234.285C357.802 233.718 351.739 233.055 344.919 233.907C338.098 234.758 339.898 235.798 342.929 236.082C348.424 236.555 349.466 236.839 352.687 236.555C362.065 235.704 360.549 236.366 363.202 236.366Z" fill="#1BB062"/>
<path opacity="0.3" d="M354.487 234.567C372.107 234.567 404.695 235.134 400.621 232.108C396.642 229.081 375.422 232.013 357.992 231.067C340.656 230.027 324.93 228.892 307.121 230.405C289.311 231.919 294.142 233.621 302.005 234.094C316.31 234.945 318.867 235.418 327.204 234.851C351.55 233.432 347.571 234.661 354.487 234.567Z" fill="#1BB062"/>
<path opacity="0.3" d="M193.916 226.148C215.041 226.148 253.881 227 249.05 222.46C244.219 218.014 218.925 222.365 198.179 220.852C177.433 219.338 158.676 217.636 137.456 219.811C116.236 221.987 122.015 224.54 131.298 225.297C148.445 226.621 151.476 227.189 161.423 226.432C190.411 224.446 185.674 226.148 193.916 226.148Z" fill="#1BB062"/>
<path d="M165.023 189.07H208.789V218.391H165.023V189.07Z" fill="#005D92"/>
<path d="M165.023 189.07H208.789V218.391H165.023V189.07Z" fill="#15844B"/>
<path d="M152.992 222.837H220.82C220.82 220.094 219.304 217.635 216.841 216.405L208.884 212.527H165.118L157.16 216.405C154.508 217.635 152.992 220.094 152.992 222.837Z" fill="#216C2A"/>
<path d="M208.789 199.379H165.023V202.5L208.789 201.365V199.379Z" fill="#216C2A"/>
<path d="M92.2688 199.382H281.543C285.901 199.382 289.406 195.882 289.406 191.531V84.6513C289.406 80.3004 285.901 76.8008 281.543 76.8008H92.1741C87.8164 76.8008 84.3114 80.3004 84.3114 84.6513V191.531C84.4061 195.787 87.9112 199.382 92.2688 199.382Z" fill="#15844B"/>
<path d="M91.2267 87.2031H282.49V183.395H91.2267V87.2031Z" fill="#EEF9F1"/>
<path d="M91.2268 87.2037V183.49H282.49V87.2037H91.2268ZM90.2795 86.2578H91.2268H282.49H283.532V87.2982V183.49V184.531H282.49H91.2268H90.1847V183.49V87.2037V86.2578H90.2795Z" fill="#216C2A"/>
<path opacity="0.2" d="M93.5004 187.747H280.312C282.111 187.747 283.532 186.328 283.532 184.531H90.2795C90.2795 186.234 91.7005 187.747 93.5004 187.747Z" fill="#216C2A"/>
<path opacity="0.15" d="M91.3215 180.562H282.49V180.846H91.3215V180.562Z" fill="#005D92"/>
<path opacity="0.15" d="M91.3215 160.793H282.49V161.077H91.3215V160.793Z" fill="#005D92"/>
<path opacity="0.15" d="M91.3215 141.121H282.49V141.405H91.3215V141.121Z" fill="#005D92"/>
<path opacity="0.15" d="M91.3215 121.445H282.49V121.729H91.3215V121.445Z" fill="#005D92"/>
<path opacity="0.15" d="M91.3215 101.773H282.49V102.057H91.3215V101.773Z" fill="#005D92"/>
<path opacity="0.15" d="M239.956 87.207H240.24V180.561H239.956V87.207Z" fill="#005D92"/>
<path opacity="0.15" d="M218.736 87.207H219.02V180.561H218.736V87.207Z" fill="#005D92"/>
<path opacity="0.15" d="M197.421 87.207H197.705V180.561H197.421V87.207Z" fill="#005D92"/>
<path opacity="0.15" d="M176.201 87.207H176.485V180.561H176.201V87.207Z" fill="#005D92"/>
<path opacity="0.15" d="M154.887 87.207H155.171V180.561H154.887V87.207Z" fill="#005D92"/>
<path opacity="0.15" d="M133.667 87.207H133.951V180.561H133.667V87.207Z" fill="#005D92"/>
<path opacity="0.15" d="M112.352 87.207H112.636V180.561H112.352V87.207Z" fill="#005D92"/>
<path opacity="0.15" d="M261.176 87.207H261.46V180.561H261.176V87.207Z" fill="#005D92"/>
<path d="M279.589 180.688H264.242V152.501H279.589V180.688Z" fill="#5FC891"/>
<path d="M258.247 180.621H242.9V146.76H258.247V180.621Z" fill="#5FC891"/>
<path d="M236.999 180.602H221.652V138.985H236.999V180.602Z" fill="#5FC891"/>
<path d="M215.657 180.613H200.31V144.009H215.657V180.613Z" fill="#5FC891"/>
<path d="M194.409 180.629H179.062V148.376H194.409V180.629Z" fill="#5FC891"/>
<path d="M173.161 180.609H157.815V142.019H173.161V180.609Z" fill="#5FC891"/>
<path d="M151.819 180.684H136.472V135.945H151.819V180.684Z" fill="#5FC891"/>
<path d="M130.571 180.648H115.225V122.858H130.571V180.648Z" fill="#3D95D1"/>
<path d="M109.324 180.621H93.9772L93.9772 112.899H109.324L109.324 180.621Z" fill="#3D95D1"/>
<path d="M279.589 180.676H264.242V161.854H279.589V180.676Z" fill="#B0E2BB"/>
<path d="M258.247 180.684H242.9V158.078H258.247V180.684Z" fill="#B0E2BB"/>
<path d="M236.999 180.688H221.653V152.88H236.999V180.688Z" fill="#B0E2BB"/>
<path d="M215.657 180.641H200.31V156.143H215.657V180.641Z" fill="#B0E2BB"/>
<path d="M194.409 180.629H179.063V159.064H194.409V180.629Z" fill="#B0E2BB"/>
<path d="M173.162 180.637H157.815V154.815H173.162V180.637Z" fill="#B0E2BB"/>
<path d="M151.819 180.676H136.473V150.787H151.819V180.676Z" fill="#B0E2BB"/>
<path d="M130.572 180.688H115.225V142.097H130.572V180.688Z" fill="#B0E2BB"/>
<path d="M109.324 180.648H93.9774V135.343H109.324V180.648Z" fill="#B0E2BB"/>
<path d="M282.49 145.185L282.585 144.712L250.661 136.2L229.346 127.971L229.251 128.066L208.694 133.457L186.717 137.808L165.023 131.471L144.277 125.701L123.057 111.797L101.174 102.906L100.984 103.379L122.772 112.27L144.087 126.174L164.928 131.944L186.717 138.375L186.811 138.281L208.884 133.93L229.251 128.538L250.471 136.673L282.49 145.185Z" fill="#E6949E"/>
<path d="M98.5211 101.962L103.826 101.395L101.931 103.57L101.837 106.313L98.5211 101.962Z" fill="#FAA634"/>
<path opacity="0.13" d="M219.304 123.431V76.8008H280.312C285.332 76.8008 289.501 80.8679 289.501 85.9754V126.457H222.43C220.631 126.457 219.304 125.039 219.304 123.431Z" fill="#5A5A5A"/>
<path d="M228.493 120.312H323.32C325.025 120.312 326.351 118.988 326.351 117.285V60.0618C326.351 58.3593 325.025 57.0352 323.32 57.0352H228.399C226.693 57.0352 225.367 58.3593 225.367 60.0618V117.285C225.462 118.988 226.788 120.312 228.493 120.312Z" fill="white"/>
<path d="M225.462 60.0618C225.462 58.3593 226.788 57.0352 228.493 57.0352H323.32C325.025 57.0352 326.351 58.3593 326.351 60.0618V63.2777H225.367V60.0618H225.462Z" fill="#5FC891"/>
<path d="M289.689 70.2773V92.5992H312.046C312.046 104.895 302.004 114.921 289.689 114.921C277.374 114.921 267.333 104.895 267.333 92.5992C267.333 80.3032 277.374 70.2773 289.689 70.2773Z" fill="#11B2BC"/>
<path d="M312.047 92.6006H289.69L297.932 71.8867C306.268 75.1972 312.047 83.2368 312.047 92.6006Z" fill="#E6949E"/>
<path d="M297.932 71.8853L289.69 92.5992V70.2773C292.627 70.2773 295.469 70.8448 297.932 71.8853Z" fill="#B0E2BB"/>
<path d="M297.837 72.2628C295.184 71.2223 292.532 70.7494 289.69 70.7494V70.3711C292.627 70.3711 295.374 70.9386 297.932 71.979L297.837 72.2628Z" fill="#B0E2BB"/>
<path d="M289.689 70.2773V70.6557C277.564 70.6557 267.712 80.4924 267.712 92.5992C267.712 104.706 277.564 114.543 289.689 114.543C301.815 114.543 311.667 104.706 311.667 92.5992H312.046C312.046 104.895 302.005 114.921 289.689 114.921C277.374 114.921 267.333 104.895 267.333 92.5992C267.333 80.3032 277.374 70.2773 289.689 70.2773Z" fill="#11B2BC"/>
<path d="M311.668 92.6006C311.668 83.5205 306.268 75.5755 297.837 72.2651L298.026 71.8867C306.268 75.1972 312.141 83.2368 312.141 92.6006H311.668Z" fill="#E6949E"/>
<path d="M249.713 73.8711H254.355V78.5057H249.713V73.8711Z" fill="#E6949E"/>
<g opacity="0.3">
<path opacity="0.3" d="M232.851 75.1953H246.871V75.7628H232.851V75.1953Z" fill="#005D92"/>
<path opacity="0.3" d="M237.872 76.6133H246.871V77.1808H237.872V76.6133Z" fill="#005D92"/>
</g>
<path d="M249.713 80.9648H254.355V85.5995H249.713V80.9648Z" fill="#B0E2BB"/>
<g opacity="0.3">
<path opacity="0.3" d="M232.851 82.2891H246.871V82.8566H232.851V82.2891Z" fill="#005D92"/>
<path opacity="0.3" d="M237.872 83.8008H246.871V84.3683H237.872V83.8008Z" fill="#005D92"/>
</g>
<path d="M249.713 87.8711H254.355V92.5057H249.713V87.8711Z" fill="#11B2BC"/>
<g opacity="0.3">
<path opacity="0.3" d="M232.851 89.1016H246.871V89.6691H232.851V89.1016Z" fill="#005D92"/>
<path opacity="0.3" d="M237.872 90.6133H246.871V91.1808H237.872V90.6133Z" fill="#005D92"/>
</g>
<path opacity="0.2" d="M232.851 97.3281H254.355V110.286H232.851V97.3281Z" fill="#EEF9F1"/>
<path d="M280.758 94.0209C279.962 89.0698 283.336 84.4114 288.295 83.6161C293.254 82.8207 297.919 86.1896 298.716 91.1407C299.512 96.0918 296.138 100.75 291.179 101.546C286.221 102.341 281.555 98.972 280.758 94.0209Z" fill="white"/>
<path opacity="0.13" d="M131.298 101.962C132.909 101.962 134.14 103.286 134.14 104.799V159.28C134.14 160.888 132.814 162.117 131.298 162.117H84.406V101.867H131.298V101.962Z" fill="#5A5A5A"/>
<path d="M46.7028 156.347H137.077C138.687 156.347 139.919 155.023 139.919 153.509V99.0289C139.919 97.421 138.593 96.1914 137.077 96.1914H46.7028C45.0923 96.1914 43.8608 97.5156 43.8608 99.0289V153.509C43.8608 155.117 45.0923 156.347 46.7028 156.347Z" fill="white"/>
<path d="M43.8608 99.0289C43.8608 97.421 45.1871 96.1914 46.7028 96.1914H137.077C138.687 96.1914 139.919 97.5156 139.919 99.0289V102.056H43.8608V99.0289Z" fill="#216C2A"/>
<path d="M125.709 123.812H131.962V149.066H125.709V123.812Z" fill="#5FC891"/>
<path d="M115.194 128.73H121.446V149.066H115.194V128.73Z" fill="#BBE6C5"/>
<path d="M104.679 133.836H110.931V149.064H104.679V133.836Z" fill="#5FC891"/>
<path d="M94.1635 132.609H100.416V149.067H94.1635V132.609Z" fill="#BBE6C5"/>
<path d="M83.6483 130.621H89.9006V149.16H83.6483V130.621Z" fill="#5FC891"/>
<path d="M73.133 118.609H79.3853V149.065H73.133V118.609Z" fill="#BBE6C5"/>
<path d="M62.6177 110.191H68.87V149.065H62.6177V110.191Z" fill="#5FC891"/>
<path d="M52.1026 112.367H58.3549V149.066H52.1026V112.367Z" fill="#BBE6C5"/>
<path d="M107.805 129.77H107.9L118.225 124.662L128.93 119.744L128.835 119.46L118.036 124.473L107.805 129.486L97.2896 128.256L86.5849 126.27L76.3539 114.352L65.7439 105.84L54.8498 108.015L54.9445 108.299L65.6492 106.124L76.1644 114.542L86.4902 126.459H86.5849L97.2896 128.54L107.805 129.77Z" fill="#11B2BC"/>
<path d="M129.025 120.69C129.593 120.69 130.067 120.217 130.067 119.65C130.067 119.082 129.593 118.609 129.025 118.609C128.456 118.609 127.983 119.082 127.983 119.65C127.983 120.217 128.456 120.69 129.025 120.69Z" fill="#11B2BC"/>
<path d="M118.699 125.608C119.267 125.608 119.741 125.135 119.741 124.568C119.741 124 119.267 123.527 118.699 123.527C118.131 123.527 117.657 124 117.657 124.568C117.657 125.135 118.131 125.608 118.699 125.608Z" fill="#11B2BC"/>
<path d="M107.805 130.714C108.373 130.714 108.847 130.241 108.847 129.673C108.847 129.106 108.373 128.633 107.805 128.633C107.237 128.633 106.763 129.106 106.763 129.673C106.763 130.241 107.237 130.714 107.805 130.714Z" fill="#11B2BC"/>
<path d="M97.2896 129.581C97.858 129.581 98.3317 129.108 98.3317 128.54C98.3317 127.973 97.858 127.5 97.2896 127.5C96.7212 127.5 96.2476 127.973 96.2476 128.54C96.2476 129.108 96.7212 129.581 97.2896 129.581Z" fill="#11B2BC"/>
<path d="M86.7743 127.405C87.3427 127.405 87.8164 126.932 87.8164 126.365C87.8164 125.797 87.3427 125.324 86.7743 125.324C86.2059 125.324 85.7323 125.797 85.7323 126.365C85.7323 126.932 86.2059 127.405 86.7743 127.405Z" fill="#11B2BC"/>
<path d="M76.4486 115.675C77.017 115.675 77.4907 115.202 77.4907 114.634C77.4907 114.067 77.017 113.594 76.4486 113.594C75.8802 113.594 75.4066 114.067 75.4066 114.634C75.4066 115.202 75.8802 115.675 76.4486 115.675Z" fill="#11B2BC"/>
<path d="M65.7439 107.069C66.3123 107.069 66.7859 106.596 66.7859 106.029C66.7859 105.461 66.3123 104.988 65.7439 104.988C65.1755 104.988 64.7018 105.461 64.7018 106.029C64.6071 106.596 65.1755 107.069 65.7439 107.069Z" fill="#11B2BC"/>
<path d="M55.2287 109.245C55.7971 109.245 56.2708 108.772 56.2708 108.204C56.2708 107.637 55.7971 107.164 55.2287 107.164C54.6603 107.164 54.1867 107.637 54.1867 108.204C54.0919 108.772 54.6603 109.245 55.2287 109.245Z" fill="#11B2BC"/>
<path d="M379.401 183.962L381.201 182.922L394.653 232.011C394.842 232.673 394.369 233.241 393.706 233.241C393.232 233.241 392.853 232.957 392.758 232.484L379.401 183.962Z" fill="#2A2A28"/>
<path d="M393.611 182.828L395.411 183.869L382.054 232.485C381.959 232.958 381.58 233.241 381.106 233.241C380.443 233.241 379.969 232.579 380.159 232.012L393.611 182.828Z" fill="#2A2A28"/>
<path d="M299.353 183.962L301.152 182.922L314.604 232.011C314.794 232.673 314.32 233.241 313.657 233.241C313.183 233.241 312.805 232.957 312.71 232.484L299.353 183.962Z" fill="#2A2A28"/>
<path d="M313.562 182.828L315.362 183.869L302.005 232.39C301.91 232.863 301.531 233.147 301.058 233.147C300.395 233.147 299.921 232.485 300.11 231.917L313.562 182.828Z" fill="#2A2A28"/>
<path d="M303.9 184.532H397.4C398.347 184.532 399.011 183.776 399.011 182.924C399.011 181.978 398.253 181.316 397.4 181.316H303.995V184.532H303.9Z" fill="#0C99AF"/>
<path d="M298.405 184.532H316.215C317.162 184.532 317.825 183.776 317.825 182.924C317.825 181.978 317.068 181.316 316.215 181.316H298.311C297.363 181.316 296.7 182.073 296.7 182.924C296.7 183.776 297.458 184.532 298.405 184.532Z" fill="#11B2BC"/>
<path d="M316.973 179.708H338.477L334.782 167.98C334.688 167.696 334.498 167.602 334.214 167.602H313.941C313.562 167.602 313.278 167.98 313.373 168.358L316.973 179.708Z" fill="#2A2A28"/>
<path d="M317.541 178.571H337.34L334.119 168.262H314.226L317.541 178.571Z" fill="white"/>
<path opacity="0.7" d="M317.541 178.571H337.34L334.119 168.262H314.226L317.541 178.571Z" fill="#E7F6EB"/>
<path d="M317.257 181.22H349.466C349.845 181.22 350.129 180.937 350.129 180.558V179.707H316.973V180.937C316.973 181.126 317.068 181.22 317.257 181.22Z" fill="#2A2A28"/>
<path d="M317.257 181.22H331.183C331.562 181.22 331.846 180.937 331.846 180.558V179.707H316.973V180.937C316.973 181.126 317.068 181.22 317.257 181.22Z" fill="#484845"/>
<path d="M317.234 174.511L317.992 174.7C318.087 174.7 318.56 174.605 318.655 174.511L318.939 174.038C319.034 173.943 319.224 173.849 319.318 174.038L319.603 174.322C319.697 174.416 319.887 174.416 319.981 174.322L320.076 174.227C320.171 174.132 320.36 174.132 320.455 174.227C320.55 174.322 320.739 174.322 320.834 174.227L321.497 172.997C321.592 172.808 321.876 172.808 321.971 172.997L323.202 175.646C323.297 175.74 323.487 175.835 323.581 175.74C323.676 175.646 323.865 175.646 323.96 175.74L324.055 175.835L324.244 175.646H324.718C324.813 175.646 324.908 175.74 324.908 175.835L325.002 176.119C325.002 176.308 325.286 176.308 325.381 176.213C325.476 176.119 325.665 176.119 325.76 176.308L326.139 176.97C326.234 177.064 326.328 177.064 326.423 177.064L326.707 176.97C326.802 176.97 326.897 176.97 326.897 176.97L327.276 177.159C327.371 177.159 327.465 177.159 327.56 177.064L327.655 176.97C327.749 176.875 327.939 176.875 328.034 176.97C328.128 177.064 328.223 177.064 328.318 177.064L328.792 176.97C328.886 176.97 328.981 176.97 328.981 176.97L329.549 177.254C329.644 177.254 329.644 177.254 329.739 177.254L330.118 177.159C330.212 177.159 330.212 177.159 330.307 177.159L330.686 177.254C330.781 177.254 330.876 177.254 330.876 177.254L331.255 176.97C331.349 176.875 331.444 176.875 331.539 176.97L332.107 177.348L332.77 177.632C332.865 177.632 332.96 177.632 332.96 177.632L333.339 177.537C333.339 177.537 333.339 177.537 333.433 177.537L334.854 177.348H335.802H335.896L336.844 177.632C336.938 177.632 337.033 177.727 337.033 177.821L337.223 178.578H317.424L316.287 174.984C316.571 174.984 317.139 174.511 317.234 174.511Z" fill="#B0E2BB"/>
</g>
<defs>
<clipPath id="clip0_1380_48030">
<rect width="401" height="241" fill="white" transform="matrix(-1 0 0 1 401 0)"/>
</clipPath>
</defs>
</svg>
