<svg height='100px' width='100px'  fill="#1A1A1A" xmlns="http://www.w3.org/2000/svg" xmlns:xlink="http://www.w3.org/1999/xlink" version="1.1" x="0px" y="0px" viewBox="0 0 100 100" style="enable-background:new 0 0 100 100;" xml:space="preserve"><path d="M92,47v30c0,8.271-6.729,15-15,15H23c-8.271,0-15-6.729-15-15V23c0-8.271,6.729-15,15-15h30c1.657,0,3,1.343,3,3  s-1.343,3-3,3H23c-4.963,0-9,4.037-9,9v54c0,4.963,4.037,9,9,9h54c4.963,0,9-4.037,9-9V47c0-1.657,1.343-3,3-3S92,45.343,92,47z   M29.879,50.879l42-42c1.172-1.172,3.07-1.172,4.242,0l15,15c1.172,1.172,1.172,3.07,0,4.242l-42,42C48.559,70.684,47.795,71,47,71  H32c-1.657,0-3-1.343-3-3V53C29,52.205,29.316,51.441,29.879,50.879z M69.242,20L80,30.758L84.758,26L74,15.242L69.242,20z M35,65  h10.758l30-30L65,24.242l-30,30V65z"></path></svg>