<svg height='100px' width='100px'  fill="#1A1A1A" xmlns="http://www.w3.org/2000/svg" xmlns:xlink="http://www.w3.org/1999/xlink" version="1.1" x="0px" y="0px" viewBox="0 0 1024 1024" style="enable-background:new 0 0 1024 1024;" xml:space="preserve"><g><g><path d="M998.7,834.4c-17.4-46.9-44.9-88.8-81.7-122.8c-34.3-31.7-74.3-56.9-116.8-76    c-43.6-19.6-88.9-34.6-135.4-45.3c-43.4-10-87.6-16.7-132-21.3c-32.5-3.4-65.1-5.5-97.8-6.2c-3.1-0.1-6.2-0.1-9.3-0.2    c-21.6-0.3-40,18.6-40,40c0,34.3,0,68.7,0,103c0,5.5,0.3,11.1-0.2,16.6c0.5-3.5,1-7.1,1.4-10.6c-0.4,2.8-1.1,5.3-2.2,7.9    c1.3-3.2,2.7-6.4,4-9.6c-1,2.1-2.1,3.9-3.5,5.8c2.1-2.7,4.2-5.4,6.3-8.1c-1.6,2-3.4,3.8-5.5,5.4c2.7-2.1,5.4-4.2,8.1-6.3    c-1.8,1.3-3.7,2.4-5.7,3.3c3.2-1.3,6.4-2.7,9.6-4c-2.7,1.1-5.5,1.9-8.4,2.3c3.5-0.5,7.1-1,10.6-1.4c-2.2,0.2-4.4,0.2-6.6,0    c3.5,0.5,7.1,1,10.6,1.4c-2.7-0.4-5.2-1-7.7-2.1c3.2,1.3,6.4,2.7,9.6,4c-2.2-1-4.3-2.2-6.2-3.7c2.7,2.1,5.4,4.2,8.1,6.3    c-10.7-8.6-21-17.6-31.5-26.4c-24.5-20.6-49-41.1-73.6-61.7c-29.6-24.8-59.2-49.6-88.7-74.4c-25.4-21.3-50.9-42.6-76.3-64    c-11.7-9.8-23.7-19.5-35.3-29.6c-1.8-1.6-3.4-3.3-4.9-5.1c2.1,2.7,4.2,5.4,6.3,8.1c-1.3-1.8-2.3-3.7-3.3-5.7    c1.3,3.2,2.7,6.4,4,9.6c-1-2.4-1.6-4.8-2-7.4c0.5,3.5,1,7.1,1.4,10.6c-0.3-2.6-0.3-5.1,0-7.6c-0.5,3.5-1,7.1-1.4,10.6    c0.4-2.6,1.1-5,2-7.4c-1.3,3.2-2.7,6.4-4,9.6c0.9-2,2-3.9,3.2-5.7c-2.1,2.7-4.2,5.4-6.3,8.1c3.3-4.2,7.6-7.4,11.7-10.8    c7.2-6,14.4-12.1,21.6-18.1c24.2-20.3,48.4-40.6,72.6-60.8c29.6-24.8,59.1-49.6,88.7-74.3c25.7-21.6,51.5-43.2,77.2-64.7    c12.4-10.4,24.8-20.7,37.1-31.1c0.5-0.4,1-0.8,1.4-1.2c-2.7,2.1-5.4,4.2-8.1,6.3c2-1.5,4-2.7,6.2-3.7c-3.2,1.3-6.4,2.7-9.6,4    c2.5-1,5-1.7,7.7-2.1c-3.5,0.5-7.1,1-10.6,1.4c2.2-0.2,4.4-0.2,6.6,0c-3.5-0.5-7.1-1-10.6-1.4c2.9,0.4,5.7,1.2,8.4,2.3    c-3.2-1.3-6.4-2.7-9.6-4c2,0.9,3.9,2,5.7,3.3c-2.7-2.1-5.4-4.2-8.1-6.3c2.1,1.6,3.9,3.3,5.5,5.4c-2.1-2.7-4.2-5.4-6.3-8.1    c1.4,1.8,2.5,3.7,3.5,5.8c-1.3-3.2-2.7-6.4-4-9.6c1.1,2.6,1.8,5.1,2.2,7.9c-0.5-3.5-1-7.1-1.4-10.6c1.4,13.3,0.2,27.2,0.2,40.5    c0,21.1,0,42.2,0,63.2c0,4.9,0,9.8,0,14.7c0,22,18.3,39.5,40,40c20.6,0.5,41.2,1.8,61.7,4c7,0.7,13.9,1.6,20.8,2.5    c-3.5-0.5-7.1-1-10.6-1.4c43.5,5.9,86.5,15.5,128.1,29.6c13,4.4,25.9,9.3,38.5,14.6c-3.2-1.3-6.4-2.7-9.6-4    c30.3,12.8,59.4,28.2,86.7,46.6c8,5.4,15.8,11.1,23.5,17c-2.7-2.1-5.4-4.2-8.1-6.3c28.5,22.1,54.1,47.6,76.2,76.1    c-2.1-2.7-4.2-5.4-6.3-8.1c22.8,29.6,41.4,62.1,56,96.5c-1.3-3.2-2.7-6.4-4-9.6c18.6,44.3,30.3,91.2,36.7,138.7    c-0.5-3.5-1-7.1-1.4-10.6c4.3,32.2,6.2,64.7,6.2,97.1c0,20.9,18.4,41,40,40c21.7-1,40-17.6,40-40c-0.1-81.6-11.2-165.3-42.2-241.3    c-13.4-32.8-29-64.3-49.2-93.4c-18.3-26.5-39-51.5-62.4-73.6c-41.5-39.4-90.3-71.4-142.7-94.5c-47-20.7-95.8-36.2-146.2-45.7    c-40-7.6-80.7-12.3-121.4-13.8c-3.4-0.1-6.8-0.2-10.2-0.3c13.3,13.3,26.7,26.7,40,40c0-38.1,0.7-76.3,0-114.5    c-0.5-30.7-20.6-58.1-50.6-66.3c-17.1-4.7-34.9-2.2-50.5,5.7c-5.4,2.7-10.1,6.8-14.7,10.7c-7,5.8-14,11.7-21,17.6    c-35.1,29.4-70.2,58.8-105.3,88.2c-40.3,33.8-80.6,67.6-120.9,101.4C88.8,376.7,75,388.4,61.1,400c-6,5-13,9.8-18.3,15.7    C30.7,429.2,22.6,447,24,465.5c1.3,17.9,8,35.6,21.8,47.6c1.4,1.3,2.9,2.5,4.4,3.7c10.2,8.5,20.4,17.1,30.6,25.6    c38,31.8,75.9,63.7,113.9,95.5c38.5,32.3,77,64.6,115.5,96.9c11.2,9.4,22.5,18.8,33.7,28.2c2.1,1.8,4.2,3.5,6.3,5.3    c9,7.5,16.1,12.1,27.3,15.8c12.8,4.3,29.3,4,41.9-1.1c15.9-6.3,30-16.2,38.1-31.8c5.5-10.7,8.2-21.5,8.4-33.6    c0.1-7.4,0-14.7,0-22.1c0-25.6,0-51.2,0-76.8c0-5.4,0-10.8,0-16.3c-13.3,13.3-26.7,26.7-40,40c34.5,0.5,68.9,2.5,103.2,6    c11.9,1.2,23.9,2.6,35.8,4.2c-3.5-0.5-7.1-1-10.6-1.4c53.6,7.2,106.9,18.2,158.3,35.3c15.2,5,30.2,10.6,45,16.8    c-3.2-1.3-6.4-2.7-9.6-4c34.9,14.7,68.4,33,98.4,56.1c-2.7-2.1-5.4-4.2-8.1-6.3c20.6,15.9,39.3,34.1,55.3,54.7    c-2.1-2.7-4.2-5.4-6.3-8.1c13.8,18,25.4,37.6,34.2,58.6c-1.3-3.2-2.7-6.4-4-9.6c1.5,3.5,2.9,7.1,4.2,10.7    c3.7,10,8.9,18.4,18.4,23.9c8.6,5,21.2,7.1,30.8,4c9.7-3.1,19-9.1,23.9-18.4C999.5,856.1,1002.4,844.3,998.7,834.4z"></path></g></g></svg>