<svg height='100px' width='100px'  fill="#2a2a28" xmlns="http://www.w3.org/2000/svg" data-name="Layer 1" viewBox="0 0 64 64" x="0px" y="0px"><title>file format document</title><path d="M33.664,10.645a1,1,0,0,0-1-1h-15a1,1,0,0,0-1,1v24.01a1,1,0,0,0,1,1H46.339a1,1,0,0,0,1-1V22.65a1,1,0,0,0-1-1H33.664Zm-2,23.01h-13v-4h13Zm0-6h-13v-4h13Zm0-6h-13v-4h13Zm0-6h-13v-4h13ZM45.339,33.655H33.664v-4H45.339Zm0-10.005v4H33.664v-4Z"></path><path d="M54,43.67V17.376l-.293-.293L39.417,2.793,39.124,2.5H14a4,4,0,0,0-4,4V40.242a1.991,1.991,0,0,0-1,1.722V56.5a5.006,5.006,0,0,0,5,5H50a5.006,5.006,0,0,0,5-5V45.393A1.991,1.991,0,0,0,54,43.67ZM28,55.915a3.075,3.075,0,0,1-.737.746,3.532,3.532,0,0,1-2.1.591,3.467,3.467,0,0,1-1.7-.384,3.074,3.074,0,0,1-1.111-1.026,4.432,4.432,0,0,1-.6-1.464,8.01,8.01,0,0,1,0-3.414,4.356,4.356,0,0,1,.609-1.47,3.125,3.125,0,0,1,1.117-1.026,3.467,3.467,0,0,1,1.7-.384,3.661,3.661,0,0,1,1.92.5,2.195,2.195,0,0,1,.726.728,4.952,4.952,0,0,1,.535,1.259l-1.752.42a2.539,2.539,0,0,0-.529-.912,1.247,1.247,0,0,0-.96-.36,1.277,1.277,0,0,0-.63.151,1.393,1.393,0,0,0-.45.4,2.268,2.268,0,0,0-.294.562,3.942,3.942,0,0,0-.174.648,5.352,5.352,0,0,0-.078.659c-.011.218-.017.415-.017.593a4.483,4.483,0,0,0,.42,2.177,1.33,1.33,0,0,0,1.271.714,1.632,1.632,0,0,0,.594-.1,1.273,1.273,0,0,0,.427-.27,2.04,2.04,0,0,0,.323-.414,5.189,5.189,0,0,0,.276-.528l1.8.468A5.27,5.27,0,0,1,28,55.915Zm6.666.641a3.585,3.585,0,0,1-2.351.7,3.844,3.844,0,0,1-1.9-.516,3.009,3.009,0,0,1-.852-.678A3.965,3.965,0,0,1,28.929,55l1.6-.7a4.625,4.625,0,0,0,.312.57,1.928,1.928,0,0,0,.385.438,1.62,1.62,0,0,0,.5.282,1.87,1.87,0,0,0,.641.1,2.52,2.52,0,0,0,.493-.048,1.287,1.287,0,0,0,.425-.162.818.818,0,0,0,.294-.312,1.02,1.02,0,0,0,.109-.5.878.878,0,0,0-.456-.744,5.925,5.925,0,0,0-1.212-.6,7.514,7.514,0,0,1-2.076-1.092,2.1,2.1,0,0,1-.721-1.692,2.191,2.191,0,0,1,.841-1.764,3.177,3.177,0,0,1,2.1-.7,3.555,3.555,0,0,1,1.9.516,2.869,2.869,0,0,1,.743.648,4.24,4.24,0,0,1,.589,1.008l-1.765.54a2.442,2.442,0,0,0-.546-.834,1.285,1.285,0,0,0-.929-.318,1.893,1.893,0,0,0-.391.042,1.268,1.268,0,0,0-.359.132.7.7,0,0,0-.367.642.606.606,0,0,0,.115.348,1.134,1.134,0,0,0,.389.324,8.137,8.137,0,0,0,1.3.576,6.23,6.23,0,0,1,1.824.972,2.161,2.161,0,0,1,.852,1.848A2.523,2.523,0,0,1,34.664,56.556Zm5.688.576h-2.04L35.948,48.2h1.907L39.3,54.216,40.808,48.2h1.92ZM52,43.393H30.086l-2.4-2.746a2,2,0,0,0-1.505-.683H12V6.5a2,2,0,0,1,2-2H37.71V14.79a4,4,0,0,0,4,4H52Z"></path></svg>