<svg height='100px' width='100px'  fill="#db4c5d" xmlns="http://www.w3.org/2000/svg" xmlns:xlink="http://www.w3.org/1999/xlink" version="1.1" x="0px" y="0px" viewBox="0 0 32 32" enable-background="new 0 0 32 32" xml:space="preserve"><g display="none"><rect x="-12" y="-15.333" display="inline" fill="#db4c5d" width="404.667" height="211.333"></rect></g><g display="none"><g display="inline"><g><text transform="matrix(1 0 0 1 9.0002 13.4635)" font-family="'Arial-BoldMT'" font-size="7px">PDF</text></g></g><g display="inline"><g><path d="M23.124,1L27.5,5.376V31h-23V1H23.124 M23.538,0H3.5v32h25V4.962L23.538,0L23.538,0z"></path></g><g><g><g><line fill="none" stroke="#db4c5d" stroke-miterlimit="10" x1="8.507" y1="24.542" x2="23.493" y2="24.542"></line></g></g><g><g><line fill="none" stroke="#db4c5d" stroke-miterlimit="10" x1="8.507" y1="21" x2="23.493" y2="21"></line></g></g></g></g></g><g><g><g><path d="M16.962,11.669c0.108-0.098,0.197-0.259,0.266-0.483s0.103-0.53,0.103-0.918s-0.034-0.685-0.103-0.893     c-0.068-0.207-0.164-0.369-0.288-0.484c-0.123-0.117-0.279-0.195-0.468-0.236c-0.141-0.032-0.418-0.048-0.831-0.048h-0.455v3.319     h0.755c0.283,0,0.486-0.017,0.612-0.049C16.718,11.836,16.854,11.766,16.962,11.669z"></path><path d="M23.538,0H3.5v32h25V4.962L23.538,0z M19.24,7.759h3.436v0.848h-2.424v1.187h2.092v0.848h-2.092v2.129H19.24V7.759z      M14.175,7.759h1.849c0.417,0,0.735,0.032,0.954,0.096c0.294,0.087,0.546,0.24,0.756,0.462c0.209,0.221,0.369,0.491,0.479,0.812     s0.164,0.715,0.164,1.185c0,0.412-0.052,0.768-0.154,1.066c-0.125,0.364-0.304,0.659-0.536,0.885     c-0.176,0.171-0.413,0.305-0.711,0.4c-0.223,0.07-0.522,0.105-0.896,0.105h-1.904V7.759z M9.509,7.759h1.624     c0.615,0,1.016,0.025,1.203,0.075c0.287,0.075,0.527,0.238,0.721,0.49s0.291,0.577,0.291,0.977c0,0.307-0.056,0.565-0.167,0.775     s-0.253,0.374-0.425,0.494c-0.172,0.119-0.347,0.198-0.525,0.237c-0.242,0.048-0.591,0.071-1.049,0.071h-0.66v1.891H9.509V7.759z      M23.493,25.041H8.507v-1h14.986V25.041z M23.493,21.5H8.507v-1h14.986V21.5z"></path><path d="M11.875,9.949c0.134-0.052,0.24-0.134,0.316-0.246c0.077-0.111,0.115-0.241,0.115-0.389c0-0.183-0.054-0.333-0.161-0.451     c-0.107-0.119-0.243-0.193-0.407-0.223c-0.121-0.022-0.363-0.034-0.728-0.034h-0.489v1.422h0.554     C11.474,10.028,11.74,10.002,11.875,9.949z"></path></g></g></g><g display="none"><g display="inline"><g><text transform="matrix(1 0 0 1 9.0002 13.4635)" stroke="#db4c5d" stroke-width="0.25" stroke-miterlimit="10" font-family="'Arial-BoldMT'" font-size="7px">PDF</text></g></g><g display="inline"><g><path d="M22.71,2l3.79,3.79V30h-21V2H22.71 M23.538,0H3.5v32h25V4.962L23.538,0L23.538,0z"></path></g><g><g><g><line fill="none" stroke="#db4c5d" stroke-width="2" stroke-miterlimit="10" x1="8.507" y1="24.542" x2="23.493" y2="24.542"></line></g></g><g><g><line fill="none" stroke="#db4c5d" stroke-width="2" stroke-miterlimit="10" x1="8.507" y1="21" x2="23.493" y2="21"></line></g></g></g></g></g><g display="none"><g display="inline"><g><text transform="matrix(1 0 0 1 9.0002 13.4635)" font-family="'Arial-BoldMT'" font-size="7px">PDF</text></g></g><g display="inline"><g><path fill="#db4c5d" d="M23.331,0.5L28,5.169V31.5H4v-31H23.331 M23.538,0H3.5v32h25V4.962L23.538,0L23.538,0z"></path></g><g><g><g><line fill="none" stroke="#db4c5d" stroke-width="0.5" stroke-miterlimit="10" x1="8.507" y1="24.542" x2="23.493" y2="24.542"></line></g></g><g><g><line fill="none" stroke="#db4c5d" stroke-width="0.5" stroke-miterlimit="10" x1="8.507" y1="21" x2="23.493" y2="21"></line></g></g></g></g></g></svg>