<svg height='100px' width='100px'  fill="#db4c5d" xmlns="http://www.w3.org/2000/svg" data-name="Project Development" viewBox="0 0 64 64" x="0px" y="0px"><path d="M60.142,42.01l-3.63-.519a12.885,12.885,0,0,0-1.186-2.854l2.2-2.937a1,1,0,0,0-.092-1.306l-2.829-2.829a1,1,0,0,0-1.306-.092l-2.937,2.2a12.885,12.885,0,0,0-2.854-1.186l-.519-3.63A1,1,0,0,0,46,28H45V7a5.006,5.006,0,0,0-5-5H8A5.006,5.006,0,0,0,3,7V51a5.006,5.006,0,0,0,5,5H30.959l2.435,2.435a1,1,0,0,0,1.306.092l2.937-2.2a12.885,12.885,0,0,0,2.854,1.186l.519,3.63A1,1,0,0,0,42,62h4a1,1,0,0,0,.99-.858l.519-3.63a12.885,12.885,0,0,0,2.854-1.186l2.937,2.2a1,1,0,0,0,1.306-.092l2.829-2.829a1,1,0,0,0,.092-1.306l-2.2-2.937a12.885,12.885,0,0,0,1.186-2.854l3.63-.519A1,1,0,0,0,61,47V43A1,1,0,0,0,60.142,42.01ZM37,4v6.586L35.707,9.293a1,1,0,0,0-1.414,0L33,10.586V4ZM5,51V7A3,3,0,0,1,8,4H31v9a1,1,0,0,0,1.707.707L35,11.414l2.293,2.293A1,1,0,0,0,38,14a.987.987,0,0,0,.383-.076A1,1,0,0,0,39,13V4h1a3,3,0,0,1,3,3V28H42a1,1,0,0,0-.99.858l-.519,3.63a12.885,12.885,0,0,0-2.854,1.186l-2.937-2.2a1,1,0,0,0-1.306.092l-2.829,2.829a1,1,0,0,0-.092,1.306l2.2,2.937a12.885,12.885,0,0,0-1.186,2.854l-3.63.519A1,1,0,0,0,27,43v4a1,1,0,0,0,.858.99l3.63.519a12.885,12.885,0,0,0,1.186,2.854L30.7,54H8A3,3,0,0,1,5,51Zm54-4.867-3.436.49a1,1,0,0,0-.835.773,10.876,10.876,0,0,1-1.45,3.494,1,1,0,0,0,.044,1.135l2.084,2.781-1.6,1.6-2.781-2.084a1,1,0,0,0-1.135-.044,10.876,10.876,0,0,1-3.494,1.45,1,1,0,0,0-.773.835L45.133,60H42.867l-.49-3.436a1,1,0,0,0-.773-.835,10.876,10.876,0,0,1-3.494-1.45,1,1,0,0,0-1.135.044l-2.781,2.084-1.6-1.6,2.084-2.781a1,1,0,0,0,.044-1.135,10.876,10.876,0,0,1-1.45-3.494,1,1,0,0,0-.835-.773L29,46.133V43.867l3.436-.49a1,1,0,0,0,.835-.773,10.876,10.876,0,0,1,1.45-3.494,1,1,0,0,0-.044-1.135l-2.084-2.781,1.6-1.6,2.781,2.084a1,1,0,0,0,1.135.044,10.876,10.876,0,0,1,3.494-1.45,1,1,0,0,0,.773-.835L42.867,30h2.266l.49,3.436a1,1,0,0,0,.773.835,10.876,10.876,0,0,1,3.494,1.45,1,1,0,0,0,1.135-.044l2.781-2.084,1.6,1.6-2.084,2.781a1,1,0,0,0-.044,1.135,10.876,10.876,0,0,1,1.45,3.494,1,1,0,0,0,.835.773l3.436.49Z"></path><path d="M44,37a8,8,0,1,0,8,8A8.009,8.009,0,0,0,44,37Zm0,14a6,6,0,1,1,6-6A6.006,6.006,0,0,1,44,51Z"></path><rect x="9" y="8" width="4" height="2"></rect><rect x="15" y="8" width="10" height="2"></rect><rect x="9" y="12" width="16" height="2"></rect><rect x="9" y="20" width="28" height="2"></rect><rect x="9" y="26" width="22" height="2"></rect><rect x="33" y="26" width="4" height="2"></rect><rect x="9" y="32" width="20" height="2"></rect><rect x="9" y="40" width="8" height="2"></rect><rect x="9" y="44" width="8" height="2"></rect></svg>