<svg xmlns="http://www.w3.org/2000/svg" xmlns:xlink="http://www.w3.org/1999/xlink" width="100" height="100" viewBox="0 0 100 100"><circle stroke="none" fill="#1bb062" r="48%" cx="50%" cy="50%"></circle><g transform="translate(50 50) scale(0.69 0.69) rotate(0) translate(-50 -50)" style="fill:#ffffff"><svg fill="#ffffff" xmlns="http://www.w3.org/2000/svg" viewBox="0 0 64 64" x="0px" y="0px"><title>project, compose, write, edit</title><g><path d="M36.89,23.71V26.1H27.11V23.71a3,3,0,0,1,3-3h3.78A3,3,0,0,1,36.89,23.71ZM27.11,46.29l4.11,5.05a1.012,1.012,0,0,0,1.56,0l4.11-5.05V29.1H27.11ZM55.5,6.1V57.9A3.5,3.5,0,0,1,52,61.4H12a3.5,3.5,0,0,1-3.5-3.5V17.68a1.265,1.265,0,0,1,.03-.28,1.455,1.455,0,0,1,.38-.75L21.77,3.07a1.476,1.476,0,0,1,1.09-.47H52A3.5,3.5,0,0,1,55.5,6.1Zm-3,0a.5.5,0,0,0-.5-.5H24.36V15.68a3.5,3.5,0,0,1-3.5,3.5H11.5V57.9a.5.5,0,0,0,.5.5H52a.5.5,0,0,0,.5-.5Z"></path></g></svg></g></svg>