<svg xmlns="http://www.w3.org/2000/svg" xmlns:xlink="http://www.w3.org/1999/xlink" width="100" height="100" viewBox="0 0 100 100"><circle stroke="none" fill="#000000" r="48%" cx="50%" cy="50%"></circle><g transform="translate(50 50) scale(0.69 0.69) rotate(0) translate(-50 -50)" style="fill:#FFFFFF"><svg fill="#FFFFFF" xmlns="http://www.w3.org/2000/svg" viewBox="0 0 64 64" x="0px" y="0px"><title>project, compose, write, edit</title><g><path d="M33.89,19.71H30.11a4,4,0,0,0-4,4V46.29a1,1,0,0,0,.23.63l4.88,6a1,1,0,0,0,1.56,0l4.88-6a1,1,0,0,0,.23-.63V23.71A4,4,0,0,0,33.89,19.71Zm-3.78,2h3.78a2,2,0,0,1,2,2V26.6H28.11V23.71A2,2,0,0,1,30.11,21.71Zm1.89,29-3.89-4.78V28.6h7.78V45.93ZM52,3.1H22.8a1.18,1.18,0,0,0-.27.06l-.1,0a1,1,0,0,0-.3.2L9.27,17a1.27,1.27,0,0,0-.18.29l0,.1a1,1,0,0,0-.05.24s0,0,0,.06V57.9a3,3,0,0,0,3,3H52a3,3,0,0,0,3-3V6.1A3,3,0,0,0,52,3.1ZM21.86,6.61v9.07a1,1,0,0,1-1,1H12.32ZM53,57.9a1,1,0,0,1-1,1H12a1,1,0,0,1-1-1V18.68h9.86a3,3,0,0,0,3-3V5.1H52a1,1,0,0,1,1,1Z"></path></g></svg></g></svg>