<svg width="16" height="16" viewBox="0 0 16 16" fill="none" xmlns="http://www.w3.org/2000/svg">
  <path d="M7.46666 15.9996C3.34294 15.9996 0 12.6567 0 8.53298C0 4.72785 2.84635 1.58752 6.52604 1.125C7.46666 2.66614 6.93332 4.79947 6.93332 8.5328C9.59999 11.7328 10.6667 12.7995 11.7333 14.3995C10.633 15.1758 9.21441 15.9996 7.46666 15.9996Z" fill="white" />
  <path d="M7.46666 15.9996C3.34294 15.9996 0 12.6567 0 8.53298C0 4.72785 2.84635 1.58752 6.52604 1.125C7.46666 2.66614 6.93332 4.79947 6.93332 8.5328C9.59999 11.7328 10.6667 12.7995 11.7333 14.3995C10.633 15.1758 9.21441 15.9996 7.46666 15.9996Z" fill="url(#paint0_linear_5604_36394)" fill-opacity="0.8" />
  <path d="M8.5332 7.46653V0.533203C14.0799 1.38654 15.4665 5.51097 15.4665 7.46653H8.5332Z" fill="white" />
  <path d="M8.5332 7.46653V0.533203C14.0799 1.38654 15.4665 5.51097 15.4665 7.46653H8.5332Z" fill="url(#paint1_linear_5604_36394)" fill-opacity="0.8" />
  <path d="M9.06654 9.06652L13.3332 14.3999C15.0399 13.1199 15.4665 10.311 15.4665 9.06652H9.06654Z" fill="white" />
  <path d="M9.06654 9.06652L13.3332 14.3999C15.0399 13.1199 15.4665 10.311 15.4665 9.06652H9.06654Z" fill="url(#paint2_linear_5604_36394)" fill-opacity="0.8" />
  <path d="M7.43867 8.35509C7.3704 8.26732 7.33333 8.15929 7.33333 8.0481V1.00034C7.33333 0.816336 7.18399 0.666992 6.99999 0.666992C3.14 0.666992 0 4.10633 0 8.33363C0 12.5609 3.43934 16.0003 7.66665 16.0003C9.55799 16.0003 10.5813 15.6577 11.8786 14.591C12.018 14.4763 12.0406 14.2716 11.93 14.129L7.43867 8.35509ZM7.66665 15.3337C3.80665 15.3337 0.666655 12.1937 0.666655 8.33366C0.666655 4.59767 3.32865 1.53568 6.66665 1.34302V8.33366C6.66665 8.40766 6.6913 8.47966 6.7373 8.53832L11.2013 14.2777C10.1486 15.0817 9.27064 15.3337 7.66665 15.3337Z" fill="#12814B" />
  <path d="M8.33334 7.99999H15.6667C15.8507 7.99999 16 7.85065 16 7.66665C16 3.43934 12.5606 0 8.33334 0C8.14934 0 8 0.149344 8 0.333343V7.66668C8 7.85065 8.14934 7.99999 8.33334 7.99999ZM8.66666 0.674655C12.262 0.843999 15.156 3.73799 15.3253 7.3333H8.66666V0.674655Z" fill="#12814B" />
  <path d="M15.6664 8.66699H8.99972C8.87172 8.66699 8.75372 8.74099 8.69838 8.85699C8.64304 8.97299 8.65972 9.11034 8.74038 9.20965L13.0737 14.5743C13.1317 14.647 13.2171 14.691 13.3097 14.6976C13.3177 14.6983 13.3251 14.6983 13.3331 14.6983C13.4171 14.6983 13.4984 14.6663 13.5604 14.609C15.1104 13.163 15.9997 11.119 15.9997 9.00034C15.9997 8.81634 15.8504 8.66699 15.6664 8.66699ZM13.3617 13.8697L9.69772 9.33368H15.3251C15.2431 11.0283 14.5417 12.649 13.3617 13.8697Z" fill="#12814B" />
  <defs>
    <linearGradient id="paint0_linear_5604_36394" x1="7.46669" y1="1.06615" x2="7.47512" y2="15.9995" gradientUnits="userSpaceOnUse">
      <stop stop-color="#B0E2BB" stop-opacity="0.75" />
      <stop offset="1" stop-color="#92D6C1" stop-opacity="0.75" />
    </linearGradient>
    <linearGradient id="paint1_linear_5604_36394" x1="12.9453" y1="0.478337" x2="12.9577" y2="14.3997" gradientUnits="userSpaceOnUse">
      <stop stop-color="#B0E2BB" stop-opacity="0.75" />
      <stop offset="1" stop-color="#92D6C1" stop-opacity="0.75" />
    </linearGradient>
    <linearGradient id="paint2_linear_5604_36394" x1="12.9453" y1="0.478337" x2="12.9577" y2="14.3997" gradientUnits="userSpaceOnUse">
      <stop stop-color="#B0E2BB" stop-opacity="0.75" />
      <stop offset="1" stop-color="#92D6C1" stop-opacity="0.75" />
    </linearGradient>
  </defs>
</svg>