<svg height='100px' width='100px'  fill="#2a2a28" xmlns="http://www.w3.org/2000/svg" xmlns:xlink="http://www.w3.org/1999/xlink" viewBox="0 0 20 19" version="1.1" x="0px" y="0px"><title>star</title><g stroke="none" stroke-width="1" fill="none" fill-rule="evenodd"><g transform="translate(-100.000000, -221.000000)" fill="#2a2a28" fill-rule="nonzero"><path d="M106.691,226.445 L101.296693,227.22924 L101.182917,227.25217 C100.44737,227.443449 100.177225,228.383947 100.74248,228.934933 L104.645,232.739 L103.724324,238.112108 L103.711296,238.222226 C103.661907,238.983563 104.474993,239.534444 105.175274,239.166284 L110,236.63 L114.824726,239.166284 L114.925428,239.212703 C115.634241,239.494942 116.409417,238.891882 116.275676,238.112108 L115.354,232.739 L119.25752,228.934933 L119.336089,228.849506 C119.818729,228.262415 119.484469,227.34275 118.703307,227.22924 L113.308,226.445 L110.896736,221.557434 C110.529922,220.814189 109.470078,220.814189 109.103264,221.557434 L106.691,226.445 Z M110,224.258 L111.748298,227.801989 L111.809112,227.908292 C111.965041,228.145818 112.216239,228.307618 112.501235,228.349031 L116.41,228.917 L113.581743,231.67449 L113.499435,231.765178 C113.321719,231.986874 113.245463,232.275777 113.294146,232.559622 L113.962,236.453 L110.465341,234.614869 L110.353658,234.564614 C110.087895,234.464104 109.789567,234.480855 109.534659,234.614869 L106.037,236.453 L106.705854,232.559622 L106.719137,232.437875 C106.732603,232.15406 106.624483,231.87551 106.418257,231.67449 L103.589,228.917 L107.498765,228.349031 C107.824475,228.301702 108.10604,228.097133 108.251702,227.801989 L110,224.258 Z"></path></g></g></svg>