<svg height='100px' width='100px'  fill="#2a2a28" xmlns="http://www.w3.org/2000/svg" xmlns:xlink="http://www.w3.org/1999/xlink" viewBox="0 0 20 20" version="1.1" x="0px" y="0px"><title>star-filled</title><desc>Created with Sketch.</desc><g stroke="none" stroke-width="1" fill="none" fill-rule="evenodd"><g transform="translate(-620.000000, -251.000000)" fill="#2a2a28" fill-rule="nonzero"><path d="M626.538921,257.15842 L620.896695,257.973398 L620.77769,257.997227 C620.008338,258.196003 619.725777,259.173364 620.31701,259.745947 L624.398888,263.699116 L623.435899,269.282826 L623.422272,269.39726 C623.370612,270.188438 624.221068,270.760911 624.953533,270.378321 L630,267.742626 L635.046467,270.378321 L635.151798,270.42656 C635.893187,270.719861 636.70399,270.093164 636.564101,269.282826 L635.600066,263.699116 L639.68299,259.745947 L639.765169,259.657172 C640.269991,259.04707 639.920369,258.091357 639.103305,257.973398 L633.460033,257.15842 L630.937949,252.079283 C630.554277,251.306906 629.445723,251.306906 629.062051,252.079283 L626.538921,257.15842 Z"></path></g></g></svg>