<svg width="11" height="24" viewBox="0 0 11 24" fill="none" xmlns="http://www.w3.org/2000/svg">
<path d="M7.29253 20.833C7.30691 20.4308 7.32129 20.0718 7.35005 19.6122C8.47165 20.3159 9.50697 20.9766 10.6573 21.6948C9.52135 22.4273 8.47165 23.1023 7.32129 23.8635C7.32129 23.3177 7.32129 22.93 7.32129 22.5134C6.76049 22.4129 6.22845 22.3698 5.73955 22.2262C3.91337 21.7235 2.50418 20.6894 1.5839 19.0233C0.304126 16.6965 -0.0122213 14.4129 0.260988 11.9856C1.62703 11.9856 3.00746 11.9856 4.48854 11.9856C4.48854 12.5745 4.48854 13.149 4.48854 13.7091C4.48854 14.0969 4.50292 14.4703 4.5173 14.8581C4.53168 15.3321 4.77613 15.7199 5.23627 15.6481C5.567 15.605 5.99838 15.3034 6.1278 15.0017C6.6167 13.824 6.1278 12.2585 5.09248 11.4973C4.28723 10.9084 3.48198 10.2764 2.60484 9.78809C0.347265 8.52417 -0.0984979 6.49903 0.0165376 4.15792C0.189091 0.940673 2.25973 0.150725 4.45978 0.0214606C5.78269 -0.0503529 7.09122 0.0358232 8.31347 0.624694C9.42069 1.15611 10.0821 1.97479 10.154 3.2387C10.1972 4.04301 10.2547 4.84732 10.3122 5.70909C8.83113 5.70909 7.45071 5.70909 5.95525 5.70909C5.95525 5.10585 5.984 4.50262 5.94087 3.91375C5.91211 3.49723 5.85459 3.0089 5.25065 3.0089C4.61796 3.0089 4.4454 3.43978 4.37351 3.94248C4.21533 5.13458 4.53168 6.09688 5.66766 6.71448C6.44415 7.13099 7.14874 7.67677 7.91085 8.13638C9.86645 9.2854 10.6861 11.0376 10.6573 13.2351C10.6429 13.982 10.6286 14.7289 10.5279 15.4614C10.2978 17.0843 9.07558 18.1615 7.09122 18.5206C6.41539 18.6355 5.71079 18.6642 5.02058 18.736C5.09248 19.7271 5.92649 20.5314 7.29253 20.833Z" fill="#206D36"/>
</svg>
