<svg width="15" height="12" viewBox="0 0 15 12" fill="none" xmlns="http://www.w3.org/2000/svg">
<path d="M13.1992 1.79993H10.1994V1.19994C10.1994 0.53817 9.66127 0 8.99947 0H5.39968C4.73791 0 4.19974 0.538142 4.19974 1.19994V1.7999H1.19994C0.53814 1.79993 0 2.33807 0 2.99984V4.79974C0 5.46154 0.53814 5.99968 1.19994 5.99968H5.99966V5.69969C5.99966 5.53388 6.13384 5.3997 6.29966 5.3997H8.09955C8.26536 5.3997 8.39954 5.53388 8.39954 5.69969V5.99968H13.1993C13.861 5.99968 14.3991 5.46154 14.3991 4.79974V2.99984C14.3991 2.33807 13.861 1.79993 13.1992 1.79993ZM8.99947 1.79993H5.39968V1.19994H8.99947V1.79993Z" fill="#2A2A28"/>
<path d="M14.2327 6.32367C14.1305 6.27299 14.0083 6.28472 13.9181 6.35326C13.7048 6.51469 13.4564 6.59993 13.1992 6.59993H8.39951V7.49988C8.39951 7.6657 8.26534 7.79987 8.09952 7.79987H6.29963C6.13381 7.79987 5.99964 7.6657 5.99964 7.49988V6.59993H1.19994C0.942722 6.59993 0.694309 6.51469 0.481022 6.35326C0.390492 6.28413 0.268634 6.2724 0.166378 6.32367C0.0644587 6.37438 0 6.47835 0 6.59234V10.7997C0 11.4615 0.53814 11.9997 1.19994 11.9997H13.1992C13.861 11.9997 14.3992 11.4615 14.3992 10.7997V6.59234C14.3991 6.47835 14.3347 6.37438 14.2327 6.32367Z" fill="#2A2A28"/>
</svg>
