<svg width="221" height="312" viewBox="0 0 221 312" fill="none" xmlns="http://www.w3.org/2000/svg">
<path fill-rule="evenodd" clip-rule="evenodd" d="M109.975 62.9448C115.403 66.2099 120.737 67.7875 123.24 67.1435C129.518 65.5286 130.095 42.6092 125.238 33.5736C120.38 24.5381 95.4092 20.5998 94.1505 38.5021C93.7137 44.7154 96.3279 50.2604 100.19 54.7851L93.2647 87H113.382L109.975 62.9448Z" fill="#B28B67"/>
<path fill-rule="evenodd" clip-rule="evenodd" d="M110.981 40.4792C112.721 37.8934 114.392 35.9211 116.565 34.7757C125.409 34.9152 126.445 33.3328 126.445 27.9997C125.016 26.9796 119.976 25.2619 114.331 24.7787C111.452 23.9564 108.041 24.1111 104.755 25.4828C100.698 26.6314 97.2635 29.105 95.7463 33.7361C90.2572 43.1896 94.4235 53.0304 100.038 56.392C101.532 54.625 102.837 52.9126 104 51.2733C103.066 50.3619 102.485 49.0899 102.485 47.6827C102.485 44.9106 104.737 42.6635 107.515 42.6635C107.719 42.6635 107.92 42.6756 108.118 42.6992C108.243 46.165 108.757 57.8907 110.109 61.9636C111.702 66.7654 120.997 67.9445 124.239 67.9445C127.039 67.9445 126.943 65.2983 126.875 63.4019C126.865 63.1288 126.856 62.8712 126.856 62.6394C126.856 62.1549 126.224 62.1561 125.511 62.1576C124.585 62.1594 123.52 62.1615 123.52 61.1008C123.52 59.9446 125.121 59.0577 126.554 58.2641C127.447 57.769 128.276 57.3101 128.609 56.8449C129.66 55.3769 130.014 53.3971 128.428 53.3971C127.562 53.3971 126.373 53.8957 124.943 54.4955C122.783 55.401 120.074 56.5372 117.092 56.5372C112.167 56.5372 110.996 40.6781 110.981 40.4792Z" fill="#191847"/>
<path fill-rule="evenodd" clip-rule="evenodd" d="M67.4335 167.722H123.678L131.048 258H47.3229L67.4335 167.722Z" fill="#C5CFD6"/>
<path fill-rule="evenodd" clip-rule="evenodd" d="M67.4335 167.722H84.7319L95.0855 258H47.3229L67.4335 167.722Z" fill="black" fill-opacity="0.1"/>
<path fill-rule="evenodd" clip-rule="evenodd" d="M154.581 185.608C148.261 199.012 138.384 231.552 138.384 231.552L146.769 235.382C146.769 235.382 168.043 201.178 181.045 177.796C180.439 183.06 179.822 188.986 179.25 195.215C177.896 209.973 179.249 241.857 179.978 251.067C180.436 256.855 188.301 255.643 189.036 251.052C189.16 250.274 189.667 247.545 190.423 243.472C194.131 223.5 203.835 171.23 203.853 158.431C203.86 153.281 193.798 148.655 187.802 152.256C183.683 147.861 175.887 145.328 171.408 152.588C168.561 157.203 161.796 170.307 154.581 185.608Z" fill="#B28B67"/>
<path fill-rule="evenodd" clip-rule="evenodd" d="M138.984 219.505L167.762 151.332C174.656 140.242 193.985 153.589 191.634 160.021C186.296 174.624 159.151 221.899 157.56 226.25L138.984 219.505Z" fill="#191847"/>
<path fill-rule="evenodd" clip-rule="evenodd" d="M139.54 227.557C139.036 226.869 138.059 226.707 137.407 227.255C136.217 228.256 134.505 229.799 133.887 230.869C132.902 232.574 131.582 236.174 131.582 236.174C133.56 237.316 167.143 256.706 167.143 256.706C167.143 256.706 171.175 252.923 168.4 250.834C165.624 248.744 163.819 247.309 163.819 247.309L151.544 230.398C151.303 230.066 150.836 229.998 150.511 230.248L147.96 232.212C147.96 232.212 144.451 231.906 142.722 230.908C141.67 230.3 140.385 228.709 139.54 227.557Z" fill="#E4E4E4"/>
<path fill-rule="evenodd" clip-rule="evenodd" d="M180.155 246.558C179.374 246.215 178.447 246.562 178.156 247.364C177.626 248.826 176.915 251.017 176.915 252.253C176.915 254.222 177.571 258 177.571 258C179.856 258 218.634 258 218.634 258C218.634 258 220.235 252.708 216.786 252.287C213.338 251.865 211.057 251.525 211.057 251.525L191.971 243.016C191.596 242.849 191.158 243.024 191.001 243.404L189.775 246.38C189.775 246.38 186.582 247.869 184.586 247.869C183.371 247.869 181.462 247.134 180.155 246.558Z" fill="#E4E4E4"/>
<path fill-rule="evenodd" clip-rule="evenodd" d="M205.87 163.669C205.87 183.011 196.684 228.129 196.678 232.387L176.915 232.403C176.915 232.403 181.254 172.016 179.992 171.366C178.73 170.715 128.264 176.404 113.128 176.404C91.3026 176.404 82.2737 162.641 81.5411 137.145H124.777C133.58 138.087 179.499 147.348 196.552 150.532C203.853 151.895 205.87 158.341 205.87 163.669Z" fill="#2F3676"/>
<path fill-rule="evenodd" clip-rule="evenodd" d="M168.914 138.968L148.729 124.187L144.267 135.186L164.256 143.452C169.909 150.074 173.07 152.834 173.739 151.733C174.303 150.805 173.862 149.936 173.456 149.136C173.14 148.512 172.844 147.93 173.062 147.394C173.558 146.17 177.356 146.299 180.954 146.575C184.553 146.851 183.504 145.254 182.636 144.466C178.963 142.274 174.389 140.441 168.914 138.968ZM63.0565 165.012C64.911 161.26 71.2261 124.697 71.2261 124.697L84.4503 124.749C84.4503 124.749 72.2023 164.175 71.2261 166.588C69.958 169.721 72.1121 174.274 73.5727 177.362C73.7987 177.839 74.0081 178.282 74.1856 178.679C72.1589 179.583 71.1853 178.49 70.159 177.338C68.9997 176.036 67.773 174.659 64.8854 175.998C63.7697 176.516 62.714 177.128 61.6826 177.726C58.1199 179.791 54.847 181.688 50.3947 178.948C49.6888 178.514 48.9153 176.879 50.7842 175.601C55.4403 172.417 62.15 166.846 63.0565 165.012Z" fill="#B28B67"/>
<path fill-rule="evenodd" clip-rule="evenodd" d="M108.807 69.3646L114.279 68.4287C134.582 85.9175 142.921 119.516 167.807 137.314L161.817 144.718C118.644 139.387 107.943 98.4057 108.807 69.3646Z" fill="#0D703F"/>
<path fill-rule="evenodd" clip-rule="evenodd" d="M84.9531 137.936C84.9531 137.936 117.864 137.936 133.371 137.936C135.583 137.936 135.166 134.75 134.846 133.143C131.155 114.591 116.746 94.5923 116.746 68.1838L102.781 66C91.229 84.5256 87.2343 107.334 84.9531 137.936Z" fill="#DDE3E9"/>
<path fill-rule="evenodd" clip-rule="evenodd" d="M79.509 151.187C77.333 156.398 75.1992 160.946 73.1885 164.438H62.8047C61.6875 128.419 75.3631 100.704 86.8082 83.9921C84.2671 83.811 81.9734 82.7506 80.5234 80.1418C75.4189 70.9573 77.2624 65.9006 82.7175 64.2384C85.7172 63.3244 88.5385 63.9482 91.9156 64.695C94.6791 65.3061 97.8148 65.9995 101.725 66C101.725 66 101.725 66 101.725 66L101.725 66C101.726 66 101.728 66 101.729 66C102.108 66 102.453 66.0253 102.766 66.0737L107.4 66.3374C107.4 66.3374 126.216 129.925 117.779 151.187H79.509Z" fill="#12814B"/>
<path fill-rule="evenodd" clip-rule="evenodd" d="M79.509 151.187C82.3641 144.35 85.2918 136.369 88.1092 128.126C89.158 137.203 90.9046 146.32 93.8126 151.187H79.509Z" fill="black" fill-opacity="0.1"/>
</svg>
