<svg width="117" height="36" viewBox="0 0 117 36" fill="none" xmlns="http://www.w3.org/2000/svg">
<path d="M49.5134 9.41095C50.6746 7.86456 52.0394 6.98963 53.9135 7.09137C56.0525 7.21345 57.5192 8.47497 57.6822 10.6114C57.8248 12.5648 57.8451 14.5384 57.8655 16.4918C57.8859 20.2967 57.8655 24.0813 57.8655 27.8862C57.8655 27.9472 57.8248 28.0083 57.784 28.1711C55.8692 28.1711 53.9135 28.1711 51.8561 28.1711C51.8357 27.7845 51.795 27.3775 51.795 26.9909C51.795 22.718 51.795 18.4451 51.795 14.1722C51.795 13.3583 51.795 12.5241 51.6116 11.7509C51.5301 11.3643 51.0209 11.0591 50.7153 10.7335C50.3894 11.0591 49.9005 11.3439 49.7986 11.7305C49.6153 12.4427 49.6153 13.2159 49.6153 13.9484C49.5949 18.262 49.6153 22.5552 49.6153 26.8688C49.6153 27.2758 49.6153 27.6827 49.6153 28.1711C47.5782 28.1711 45.643 28.1711 43.5244 28.1711C43.5244 27.8252 43.5244 27.4589 43.5244 27.113C43.5244 22.4738 43.504 17.8143 43.504 13.1752C43.504 12.6665 43.5447 12.1375 43.3818 11.6695C43.2596 11.3236 42.8114 10.7539 42.6077 10.8149C42.1799 10.9166 41.7317 11.2625 41.5077 11.6288C41.3243 11.934 41.4058 12.4223 41.4058 12.8293C41.4058 17.5498 41.4058 22.25 41.4058 26.9706C41.4058 27.3368 41.4058 27.7031 41.4058 28.1914C39.4095 28.1914 37.4742 28.1914 35.4167 28.1914C35.4167 21.3547 35.4167 14.5181 35.4167 7.60005C37.3927 7.60005 39.3483 7.60005 41.3854 7.60005C41.4058 8.10873 41.4465 8.59706 41.4873 9.28886C42.6281 7.90525 43.8707 7.09137 45.5615 7.11171C47.2523 7.11171 48.4949 7.9256 49.5134 9.41095Z" fill="#206D36"/>
<path d="M10.3311 31.7069C10.3515 31.1371 10.3719 30.6285 10.4126 29.9773C12.0015 30.9744 13.4682 31.9103 15.0979 32.9277C13.4886 33.9654 12.0015 34.9217 10.3719 36.0001C10.3719 35.2269 10.3719 34.6775 10.3719 34.0875C9.57739 33.945 8.82367 33.884 8.13105 33.6805C5.54395 32.9684 3.5476 31.5034 2.24386 29.1431C0.430847 25.8469 -0.0173135 22.6117 0.369734 19.173C2.30497 19.173 4.26058 19.173 6.35879 19.173C6.35879 20.0072 6.35879 20.8211 6.35879 21.6146C6.35879 22.164 6.37916 22.693 6.39953 23.2424C6.4199 23.9139 6.7662 24.4632 7.41807 24.3615C7.8866 24.3005 8.49773 23.8732 8.68107 23.4459C9.37368 21.7774 8.68107 19.5596 7.21436 18.4812C6.07359 17.6469 4.93282 16.7517 3.69019 16.0599C0.49196 14.2693 -0.139539 11.4003 0.0234284 8.08376C0.267879 3.52598 3.20129 2.40689 6.31804 2.22376C8.19217 2.12203 10.0459 2.24411 11.7774 3.07834C13.346 3.83119 14.2831 4.99098 14.3849 6.78153C14.446 7.92098 14.5275 9.06042 14.609 10.2813C12.5108 10.2813 10.5552 10.2813 8.43662 10.2813C8.43662 9.42667 8.47736 8.57209 8.41625 7.73785C8.37551 7.14778 8.29402 6.45598 7.43844 6.45598C6.54212 6.45598 6.29767 7.06639 6.19582 7.77855C5.97174 9.46736 6.4199 10.8306 8.0292 11.7056C9.12923 12.2956 10.1274 13.0688 11.2071 13.7199C13.9775 15.3477 15.1387 17.8301 15.0979 20.9432C15.0775 22.0012 15.0572 23.0593 14.9146 24.097C14.5886 26.3962 12.8571 27.9223 10.0459 28.431C9.08849 28.5937 8.09031 28.6344 7.11251 28.7362C7.21436 30.1401 8.39588 31.2796 10.3311 31.7069Z" fill="#206D36"/>
<path d="M94.5241 28.0746C94.4834 27.5456 94.463 27.1794 94.4426 26.691C94.2185 26.8742 94.0556 26.9962 93.9334 27.1183C92.4259 28.6851 90.5518 28.7868 88.6573 28.156C86.9258 27.566 86.335 26.0806 86.3146 24.3715C86.2739 18.8777 86.2535 13.384 86.2128 7.89023C86.2128 7.72746 86.2739 7.56468 86.3146 7.36121C88.3313 7.36121 90.3277 7.36121 92.4463 7.36121C92.4666 7.7478 92.5278 8.1344 92.5278 8.521C92.5278 13.1602 92.5278 17.8197 92.5278 22.4588C92.5278 23.0082 92.487 23.5779 92.6296 24.0663C92.7111 24.3715 93.1389 24.7784 93.4037 24.7784C93.7296 24.7581 94.1574 24.4325 94.3611 24.1273C94.5241 23.8831 94.463 23.4762 94.463 23.1303C94.4834 18.308 94.4834 13.5061 94.4834 8.68377C94.4834 8.27683 94.4834 7.86989 94.4834 7.38155C96.5408 7.38155 98.5575 7.38155 100.696 7.38155C100.717 7.70711 100.758 8.05301 100.758 8.41926C100.758 14.5845 100.737 20.77 100.778 26.9352C100.778 27.8305 100.554 28.1153 99.6372 28.0746C97.9872 28.034 96.2964 28.0746 94.5241 28.0746Z" fill="#206D36"/>
<path d="M66.7793 7.38928C66.7793 9.70886 66.7589 11.9064 66.7793 14.1242C66.7997 17.217 66.8404 20.2894 66.8811 23.3822C66.8811 23.6467 66.8404 23.9722 66.9626 24.1757C67.146 24.4606 67.4719 24.8065 67.7367 24.8065C68.0626 24.8065 68.5312 24.542 68.6534 24.2571C68.8367 23.8095 68.8367 23.2601 68.8367 22.7514C68.8571 18.0716 68.8367 13.3917 68.8367 8.71185C68.8367 8.30491 68.8367 7.89796 68.8367 7.40963C70.9146 7.40963 72.9313 7.40963 75.0295 7.40963C75.0295 14.2259 75.0295 21.0626 75.0295 28.001C72.9924 28.001 70.9553 28.001 68.8367 28.001C68.8367 27.6144 68.8367 27.2278 68.8367 26.6988C68.5719 26.8819 68.409 26.9633 68.2867 27.0854C66.8608 28.4893 64.7422 28.937 62.9292 28.1841C61.5847 27.6347 60.831 26.5563 60.7087 25.1524C60.5662 23.6263 60.5254 22.1003 60.5254 20.5743C60.505 16.5659 60.5254 12.5575 60.5254 8.56942C60.5254 8.20317 60.5254 7.83692 60.5254 7.40963C62.6032 7.38928 64.62 7.38928 66.7793 7.38928Z" fill="#206D36"/>
<path d="M102.489 20.8355C104.2 20.8355 105.83 20.8152 107.46 20.8762C107.663 20.8762 107.969 21.3442 107.989 21.6087C108.091 22.3412 108.03 23.0941 108.091 23.8469C108.152 24.4573 108.437 24.8643 109.13 24.8643C109.761 24.8643 110.108 24.5387 110.25 23.908C110.617 22.3209 110.21 21.2425 108.804 20.4082C107.745 19.7775 106.706 19.1467 105.626 18.5973C102.693 17.1323 101.919 14.65 102.285 11.6386C102.672 8.58652 104.424 7.12152 107.887 6.95874C108.417 6.93839 108.947 6.95874 109.497 6.95874C109.211 5.29027 108.193 4.27291 106.441 3.90666C106.4 4.43569 106.36 4.94437 106.298 5.63617C104.913 4.67985 103.65 3.80493 102.245 2.82826C103.609 1.87194 104.893 0.997013 106.319 0C106.36 0.712152 106.4 1.24118 106.421 1.87194C109.761 2.1975 112.43 3.64215 114.162 6.59249C115.465 8.83068 115.771 11.2927 115.588 13.9582C113.876 13.9582 112.226 13.9785 110.576 13.9175C110.393 13.9175 110.108 13.5105 110.067 13.246C109.986 12.6763 110.108 12.0659 109.965 11.5369C109.863 11.1706 109.456 10.6619 109.15 10.6416C108.804 10.6212 108.274 10.9875 108.091 11.3334C107.602 12.3304 108.01 13.7547 108.906 14.4262C109.415 14.8128 109.986 15.118 110.556 15.4435C111.024 15.708 111.513 15.9522 112.002 16.176C116.117 18.1497 116.769 20.103 115.73 25.1491C115.363 26.9804 113.836 27.835 112.145 28.2216C110.21 28.6692 108.254 28.6285 106.319 28.0995C104.037 27.4687 102.693 26.0648 102.509 23.6638C102.448 22.7482 102.489 21.8732 102.489 20.8355Z" fill="#206D36"/>
<path d="M77.5143 28.0816C77.5143 19.5154 77.5143 11.1324 77.5143 2.70862C79.6736 2.70862 81.7514 2.70862 83.9311 2.70862C83.9515 3.07487 83.9922 3.42077 83.9922 3.74633C83.9922 11.4783 83.9719 19.2102 84.0126 26.9421C84.0126 27.9188 83.707 28.1426 82.7904 28.1223C81.0792 28.0409 79.3477 28.0816 77.5143 28.0816Z" fill="#206D36"/>
<path d="M23.7355 7.73153C24.3467 7.79258 24.8356 7.83327 25.3652 7.87397C25.3652 8.89132 25.3652 9.8273 25.3652 10.8853C24.8559 10.9464 24.367 10.9871 23.7966 11.0481C23.7763 11.394 23.7355 11.7196 23.7355 12.0451C23.7355 15.6466 23.7355 19.248 23.7355 22.8292C23.7355 24.6604 23.7559 24.6604 25.63 24.9046C25.63 25.9219 25.63 26.9393 25.63 27.9363C23.7559 27.9363 21.9225 28.0787 20.1095 27.8956C18.4391 27.7328 17.502 26.4916 17.4817 24.7825C17.4409 20.6723 17.4205 16.5622 17.4409 12.4724C17.4409 11.5161 17.4409 10.7226 16.0964 10.9667C16.0964 9.90868 16.0964 8.93202 16.0964 7.91466C16.4835 7.85362 16.8705 7.79258 17.4002 7.71119C17.4002 6.67348 17.4002 5.63577 17.4002 4.55737C19.5595 4.55737 21.5762 4.55737 23.7152 4.55737C23.7355 5.63577 23.7355 6.67348 23.7355 7.73153Z" fill="#206D36"/>
<path d="M33.2487 28.0402C31.1098 28.0402 29.0523 28.0402 26.9337 28.0402C26.9337 21.1628 26.9337 14.3465 26.9337 7.42847C28.9912 7.42847 31.069 7.42847 33.2487 7.42847C33.2487 14.2244 33.2487 21.0814 33.2487 28.0402Z" fill="#206D36"/>
<path d="M26.9133 5.90313C26.9133 4.78403 26.9133 3.78702 26.9133 2.70862C29.0319 2.70862 31.1301 2.70862 33.2894 2.70862C33.2894 3.76667 33.2894 4.80438 33.2894 5.90313C31.1708 5.90313 29.0726 5.90313 26.9133 5.90313Z" fill="#206D36"/>
</svg>
